G04*
G04 #@! TF.GenerationSoftware,Altium Limited,Altium Designer,25.5.2 (35)*
G04*
G04 Layer_Color=16711935*
%FSLAX44Y44*%
%MOMM*%
G71*
G04*
G04 #@! TF.SameCoordinates,031FDC87-80B5-42A0-ABBE-4A2DC663B68C*
G04*
G04*
G04 #@! TF.FilePolarity,Negative*
G04*
G01*
G75*
G04:AMPARAMS|DCode=26|XSize=0.7mm|YSize=0.75mm|CornerRadius=0.1438mm|HoleSize=0mm|Usage=FLASHONLY|Rotation=90.000|XOffset=0mm|YOffset=0mm|HoleType=Round|Shape=RoundedRectangle|*
%AMROUNDEDRECTD26*
21,1,0.7000,0.4625,0,0,90.0*
21,1,0.4125,0.7500,0,0,90.0*
1,1,0.2875,0.2313,0.2063*
1,1,0.2875,0.2313,-0.2063*
1,1,0.2875,-0.2313,-0.2063*
1,1,0.2875,-0.2313,0.2063*
%
%ADD26ROUNDEDRECTD26*%
G04:AMPARAMS|DCode=27|XSize=0.7mm|YSize=0.75mm|CornerRadius=0.1438mm|HoleSize=0mm|Usage=FLASHONLY|Rotation=0.000|XOffset=0mm|YOffset=0mm|HoleType=Round|Shape=RoundedRectangle|*
%AMROUNDEDRECTD27*
21,1,0.7000,0.4625,0,0,0.0*
21,1,0.4125,0.7500,0,0,0.0*
1,1,0.2875,0.2063,-0.2313*
1,1,0.2875,-0.2063,-0.2313*
1,1,0.2875,-0.2063,0.2313*
1,1,0.2875,0.2063,0.2313*
%
%ADD27ROUNDEDRECTD27*%
%ADD35C,1.1000*%
G04:AMPARAMS|DCode=36|XSize=0.9mm|YSize=1.7mm|CornerRadius=0.45mm|HoleSize=0mm|Usage=FLASHONLY|Rotation=180.000|XOffset=0mm|YOffset=0mm|HoleType=Round|Shape=RoundedRectangle|*
%AMROUNDEDRECTD36*
21,1,0.9000,0.8000,0,0,180.0*
21,1,0.0000,1.7000,0,0,180.0*
1,1,0.9000,0.0000,0.4000*
1,1,0.9000,0.0000,0.4000*
1,1,0.9000,0.0000,-0.4000*
1,1,0.9000,0.0000,-0.4000*
%
%ADD36ROUNDEDRECTD36*%
G04:AMPARAMS|DCode=37|XSize=0.9mm|YSize=2.4mm|CornerRadius=0.45mm|HoleSize=0mm|Usage=FLASHONLY|Rotation=180.000|XOffset=0mm|YOffset=0mm|HoleType=Round|Shape=RoundedRectangle|*
%AMROUNDEDRECTD37*
21,1,0.9000,1.5000,0,0,180.0*
21,1,0.0000,2.4000,0,0,180.0*
1,1,0.9000,0.0000,0.7500*
1,1,0.9000,0.0000,0.7500*
1,1,0.9000,0.0000,-0.7500*
1,1,0.9000,0.0000,-0.7500*
%
%ADD37ROUNDEDRECTD37*%
%ADD38C,0.6500*%
%ADD56R,0.2540X1.7272*%
%ADD57R,1.7272X0.2540*%
G04:AMPARAMS|DCode=58|XSize=1.15mm|YSize=0.75mm|CornerRadius=0.15mm|HoleSize=0mm|Usage=FLASHONLY|Rotation=180.000|XOffset=0mm|YOffset=0mm|HoleType=Round|Shape=RoundedRectangle|*
%AMROUNDEDRECTD58*
21,1,1.1500,0.4500,0,0,180.0*
21,1,0.8500,0.7500,0,0,180.0*
1,1,0.3000,-0.4250,0.2250*
1,1,0.3000,0.4250,0.2250*
1,1,0.3000,0.4250,-0.2250*
1,1,0.3000,-0.4250,-0.2250*
%
%ADD58ROUNDEDRECTD58*%
G04:AMPARAMS|DCode=59|XSize=0.95mm|YSize=0.8mm|CornerRadius=0.1mm|HoleSize=0mm|Usage=FLASHONLY|Rotation=90.000|XOffset=0mm|YOffset=0mm|HoleType=Round|Shape=RoundedRectangle|*
%AMROUNDEDRECTD59*
21,1,0.9500,0.6000,0,0,90.0*
21,1,0.7500,0.8000,0,0,90.0*
1,1,0.2000,0.3000,0.3750*
1,1,0.2000,0.3000,-0.3750*
1,1,0.2000,-0.3000,-0.3750*
1,1,0.2000,-0.3000,0.3750*
%
%ADD59ROUNDEDRECTD59*%
G04:AMPARAMS|DCode=60|XSize=0.87mm|YSize=1.14mm|CornerRadius=0.165mm|HoleSize=0mm|Usage=FLASHONLY|Rotation=180.000|XOffset=0mm|YOffset=0mm|HoleType=Round|Shape=RoundedRectangle|*
%AMROUNDEDRECTD60*
21,1,0.8700,0.8100,0,0,180.0*
21,1,0.5400,1.1400,0,0,180.0*
1,1,0.3300,-0.2700,0.4050*
1,1,0.3300,0.2700,0.4050*
1,1,0.3300,0.2700,-0.4050*
1,1,0.3300,-0.2700,-0.4050*
%
%ADD60ROUNDEDRECTD60*%
G04:AMPARAMS|DCode=61|XSize=1.15mm|YSize=0.65mm|CornerRadius=0.1188mm|HoleSize=0mm|Usage=FLASHONLY|Rotation=0.000|XOffset=0mm|YOffset=0mm|HoleType=Round|Shape=RoundedRectangle|*
%AMROUNDEDRECTD61*
21,1,1.1500,0.4125,0,0,0.0*
21,1,0.9125,0.6500,0,0,0.0*
1,1,0.2375,0.4563,-0.2063*
1,1,0.2375,-0.4563,-0.2063*
1,1,0.2375,-0.4563,0.2063*
1,1,0.2375,0.4563,0.2063*
%
%ADD61ROUNDEDRECTD61*%
G04:AMPARAMS|DCode=62|XSize=1.3mm|YSize=2.8mm|CornerRadius=0.1mm|HoleSize=0mm|Usage=FLASHONLY|Rotation=180.000|XOffset=0mm|YOffset=0mm|HoleType=Round|Shape=RoundedRectangle|*
%AMROUNDEDRECTD62*
21,1,1.3000,2.6000,0,0,180.0*
21,1,1.1000,2.8000,0,0,180.0*
1,1,0.2000,-0.5500,1.3000*
1,1,0.2000,0.5500,1.3000*
1,1,0.2000,0.5500,-1.3000*
1,1,0.2000,-0.5500,-1.3000*
%
%ADD62ROUNDEDRECTD62*%
G04:AMPARAMS|DCode=63|XSize=1.2mm|YSize=0.7mm|CornerRadius=0.1438mm|HoleSize=0mm|Usage=FLASHONLY|Rotation=180.000|XOffset=0mm|YOffset=0mm|HoleType=Round|Shape=RoundedRectangle|*
%AMROUNDEDRECTD63*
21,1,1.2000,0.4125,0,0,180.0*
21,1,0.9125,0.7000,0,0,180.0*
1,1,0.2875,-0.4563,0.2063*
1,1,0.2875,0.4563,0.2063*
1,1,0.2875,0.4563,-0.2063*
1,1,0.2875,-0.4563,-0.2063*
%
%ADD63ROUNDEDRECTD63*%
G04:AMPARAMS|DCode=64|XSize=0.75mm|YSize=1.6mm|CornerRadius=0.15mm|HoleSize=0mm|Usage=FLASHONLY|Rotation=270.000|XOffset=0mm|YOffset=0mm|HoleType=Round|Shape=RoundedRectangle|*
%AMROUNDEDRECTD64*
21,1,0.7500,1.3000,0,0,270.0*
21,1,0.4500,1.6000,0,0,270.0*
1,1,0.3000,-0.6500,-0.2250*
1,1,0.3000,-0.6500,0.2250*
1,1,0.3000,0.6500,0.2250*
1,1,0.3000,0.6500,-0.2250*
%
%ADD64ROUNDEDRECTD64*%
G04:AMPARAMS|DCode=65|XSize=1.15mm|YSize=1.5mm|CornerRadius=0.1mm|HoleSize=0mm|Usage=FLASHONLY|Rotation=90.000|XOffset=0mm|YOffset=0mm|HoleType=Round|Shape=RoundedRectangle|*
%AMROUNDEDRECTD65*
21,1,1.1500,1.3000,0,0,90.0*
21,1,0.9500,1.5000,0,0,90.0*
1,1,0.2000,0.6500,0.4750*
1,1,0.2000,0.6500,-0.4750*
1,1,0.2000,-0.6500,-0.4750*
1,1,0.2000,-0.6500,0.4750*
%
%ADD65ROUNDEDRECTD65*%
G36*
X56951Y190807D02*
X56985Y190806D01*
X58063Y190664D01*
X58096Y190657D01*
X58129Y190651D01*
X59180Y190369D01*
X59211Y190358D01*
X59243Y190348D01*
X60248Y189932D01*
X60277Y189916D01*
X60308Y189902D01*
X61250Y189358D01*
X61277Y189339D01*
X61306Y189321D01*
X62169Y188659D01*
X62193Y188636D01*
X62219Y188615D01*
X62989Y187845D01*
X63010Y187819D01*
X63032Y187795D01*
X63695Y186932D01*
X63712Y186904D01*
X63732Y186876D01*
X64276Y185934D01*
X64290Y185904D01*
X64306Y185874D01*
X64722Y184869D01*
X64731Y184837D01*
X64743Y184806D01*
X65025Y183755D01*
X65030Y183722D01*
X65038Y183689D01*
X65180Y182611D01*
X65181Y182577D01*
X65184Y182544D01*
Y182000D01*
Y181456D01*
X65181Y181423D01*
X65180Y181389D01*
X65038Y180311D01*
X65030Y180278D01*
X65025Y180245D01*
X64743Y179194D01*
X64732Y179163D01*
X64722Y179131D01*
X64306Y178126D01*
X64290Y178097D01*
X64276Y178066D01*
X63732Y177124D01*
X63712Y177097D01*
X63695Y177068D01*
X63032Y176205D01*
X63010Y176181D01*
X62989Y176155D01*
X62219Y175385D01*
X62193Y175364D01*
X62169Y175341D01*
X61306Y174679D01*
X61278Y174662D01*
X61250Y174642D01*
X60308Y174098D01*
X60278Y174084D01*
X60248Y174068D01*
X59243Y173652D01*
X59211Y173642D01*
X59180Y173631D01*
X58129Y173349D01*
X58096Y173344D01*
X58063Y173336D01*
X56985Y173194D01*
X56951Y173193D01*
X56918Y173190D01*
X56252D01*
X56153Y173199D01*
X56057Y173228D01*
X55832Y173322D01*
X55744Y173369D01*
X55709Y173397D01*
X55666Y173432D01*
X55494Y173604D01*
X55459Y173647D01*
X55431Y173682D01*
X55384Y173770D01*
X55290Y173995D01*
X55261Y174091D01*
X55251Y174190D01*
Y174312D01*
Y189688D01*
Y189810D01*
X55261Y189909D01*
X55290Y190005D01*
X55384Y190230D01*
X55431Y190318D01*
X55459Y190353D01*
X55494Y190396D01*
X55666Y190568D01*
X55709Y190603D01*
X55744Y190631D01*
X55832Y190679D01*
X56057Y190772D01*
X56153Y190801D01*
X56252Y190811D01*
X56918D01*
X56951Y190807D01*
D02*
G37*
G36*
X53847Y190801D02*
X53943Y190772D01*
X54168Y190678D01*
X54256Y190631D01*
X54291Y190603D01*
X54334Y190568D01*
X54506Y190396D01*
X54541Y190353D01*
X54569Y190318D01*
X54616Y190230D01*
X54710Y190005D01*
X54739Y189909D01*
X54749Y189810D01*
Y189688D01*
Y174312D01*
Y174190D01*
X54739Y174091D01*
X54710Y173995D01*
X54616Y173770D01*
X54569Y173682D01*
X54541Y173647D01*
X54506Y173604D01*
X54334Y173432D01*
X54291Y173397D01*
X54256Y173369D01*
X54168Y173321D01*
X53943Y173228D01*
X53847Y173199D01*
X53748Y173190D01*
X53082D01*
X53049Y173193D01*
X53015Y173194D01*
X51937Y173336D01*
X51904Y173344D01*
X51871Y173349D01*
X50820Y173631D01*
X50789Y173642D01*
X50757Y173652D01*
X49752Y174068D01*
X49722Y174084D01*
X49692Y174098D01*
X48750Y174642D01*
X48722Y174662D01*
X48694Y174679D01*
X47831Y175341D01*
X47807Y175364D01*
X47781Y175385D01*
X47011Y176155D01*
X46990Y176181D01*
X46968Y176205D01*
X46305Y177068D01*
X46287Y177096D01*
X46268Y177124D01*
X45724Y178066D01*
X45710Y178097D01*
X45694Y178126D01*
X45278Y179131D01*
X45268Y179163D01*
X45257Y179194D01*
X44975Y180245D01*
X44970Y180278D01*
X44962Y180311D01*
X44820Y181389D01*
X44819Y181423D01*
X44816Y181456D01*
Y182000D01*
Y182544D01*
X44819Y182577D01*
X44820Y182611D01*
X44962Y183689D01*
X44970Y183722D01*
X44975Y183755D01*
X45257Y184806D01*
X45268Y184837D01*
X45278Y184869D01*
X45694Y185874D01*
X45710Y185903D01*
X45724Y185934D01*
X46268Y186876D01*
X46288Y186904D01*
X46305Y186932D01*
X46968Y187795D01*
X46990Y187819D01*
X47011Y187845D01*
X47781Y188615D01*
X47807Y188636D01*
X47831Y188659D01*
X48694Y189321D01*
X48723Y189339D01*
X48750Y189358D01*
X49692Y189902D01*
X49723Y189916D01*
X49752Y189932D01*
X50757Y190348D01*
X50789Y190358D01*
X50820Y190369D01*
X51871Y190651D01*
X51904Y190656D01*
X51937Y190664D01*
X53015Y190806D01*
X53049Y190807D01*
X53082Y190810D01*
X53748D01*
X53847Y190801D01*
D02*
G37*
G36*
X-17153Y128801D02*
X-17057Y128772D01*
X-16832Y128679D01*
X-16744Y128631D01*
X-16709Y128603D01*
X-16666Y128568D01*
X-16494Y128396D01*
X-16459Y128353D01*
X-16431Y128318D01*
X-16384Y128230D01*
X-16290Y128005D01*
X-16261Y127909D01*
X-16251Y127810D01*
Y127688D01*
Y112312D01*
Y112190D01*
X-16261Y112091D01*
X-16290Y111995D01*
X-16384Y111770D01*
X-16431Y111682D01*
X-16459Y111647D01*
X-16494Y111604D01*
X-16666Y111432D01*
X-16709Y111397D01*
X-16744Y111369D01*
X-16832Y111322D01*
X-17057Y111228D01*
X-17153Y111199D01*
X-17252Y111189D01*
X-17918D01*
X-17951Y111193D01*
X-17984Y111194D01*
X-19063Y111336D01*
X-19096Y111343D01*
X-19129Y111349D01*
X-20180Y111631D01*
X-20211Y111642D01*
X-20243Y111652D01*
X-21248Y112068D01*
X-21277Y112084D01*
X-21308Y112098D01*
X-22250Y112642D01*
X-22277Y112661D01*
X-22306Y112679D01*
X-23169Y113341D01*
X-23193Y113364D01*
X-23219Y113385D01*
X-23988Y114155D01*
X-24010Y114181D01*
X-24032Y114205D01*
X-24695Y115068D01*
X-24712Y115096D01*
X-24732Y115124D01*
X-25276Y116066D01*
X-25290Y116096D01*
X-25306Y116126D01*
X-25722Y117131D01*
X-25731Y117163D01*
X-25743Y117194D01*
X-26025Y118245D01*
X-26030Y118278D01*
X-26038Y118311D01*
X-26180Y119389D01*
X-26181Y119423D01*
X-26184Y119456D01*
Y120000D01*
Y120544D01*
X-26181Y120577D01*
X-26180Y120611D01*
X-26038Y121689D01*
X-26030Y121722D01*
X-26025Y121755D01*
X-25743Y122806D01*
X-25732Y122837D01*
X-25722Y122869D01*
X-25306Y123874D01*
X-25290Y123904D01*
X-25276Y123934D01*
X-24732Y124876D01*
X-24712Y124904D01*
X-24695Y124932D01*
X-24032Y125795D01*
X-24010Y125819D01*
X-23988Y125845D01*
X-23219Y126615D01*
X-23193Y126636D01*
X-23169Y126659D01*
X-22306Y127321D01*
X-22278Y127338D01*
X-22250Y127358D01*
X-21308Y127902D01*
X-21277Y127916D01*
X-21248Y127932D01*
X-20243Y128348D01*
X-20211Y128358D01*
X-20180Y128370D01*
X-19129Y128651D01*
X-19096Y128657D01*
X-19063Y128664D01*
X-17984Y128806D01*
X-17951Y128807D01*
X-17918Y128811D01*
X-17252D01*
X-17153Y128801D01*
D02*
G37*
G36*
X-14049Y128807D02*
X-14016Y128806D01*
X-12937Y128664D01*
X-12904Y128656D01*
X-12871Y128651D01*
X-11820Y128369D01*
X-11789Y128358D01*
X-11757Y128348D01*
X-10752Y127932D01*
X-10723Y127916D01*
X-10692Y127902D01*
X-9750Y127358D01*
X-9722Y127338D01*
X-9694Y127321D01*
X-8831Y126659D01*
X-8807Y126636D01*
X-8781Y126615D01*
X-8012Y125845D01*
X-7990Y125819D01*
X-7968Y125795D01*
X-7305Y124932D01*
X-7287Y124903D01*
X-7268Y124876D01*
X-6724Y123934D01*
X-6710Y123903D01*
X-6694Y123874D01*
X-6278Y122869D01*
X-6268Y122837D01*
X-6257Y122806D01*
X-5975Y121755D01*
X-5970Y121722D01*
X-5962Y121689D01*
X-5820Y120611D01*
X-5819Y120577D01*
X-5816Y120544D01*
Y120000D01*
Y119456D01*
X-5819Y119423D01*
X-5820Y119389D01*
X-5962Y118311D01*
X-5970Y118278D01*
X-5975Y118245D01*
X-6257Y117194D01*
X-6268Y117163D01*
X-6278Y117131D01*
X-6694Y116126D01*
X-6710Y116096D01*
X-6724Y116066D01*
X-7268Y115124D01*
X-7288Y115096D01*
X-7305Y115068D01*
X-7968Y114205D01*
X-7990Y114181D01*
X-8012Y114155D01*
X-8781Y113385D01*
X-8807Y113364D01*
X-8831Y113341D01*
X-9694Y112679D01*
X-9723Y112661D01*
X-9750Y112642D01*
X-10692Y112098D01*
X-10723Y112084D01*
X-10752Y112068D01*
X-11757Y111652D01*
X-11789Y111642D01*
X-11820Y111630D01*
X-12871Y111349D01*
X-12904Y111343D01*
X-12937Y111336D01*
X-14016Y111194D01*
X-14049Y111193D01*
X-14082Y111189D01*
X-14748D01*
X-14847Y111199D01*
X-14943Y111228D01*
X-15168Y111321D01*
X-15256Y111369D01*
X-15291Y111397D01*
X-15334Y111432D01*
X-15506Y111604D01*
X-15541Y111647D01*
X-15569Y111682D01*
X-15617Y111770D01*
X-15710Y111995D01*
X-15739Y112091D01*
X-15748Y112190D01*
Y112312D01*
Y127688D01*
Y127810D01*
X-15739Y127909D01*
X-15710Y128005D01*
X-15617Y128230D01*
X-15569Y128318D01*
X-15541Y128353D01*
X-15506Y128396D01*
X-15334Y128568D01*
X-15291Y128603D01*
X-15256Y128631D01*
X-15168Y128678D01*
X-14943Y128772D01*
X-14847Y128801D01*
X-14748Y128810D01*
X-14082D01*
X-14049Y128807D01*
D02*
G37*
G36*
X52847Y112551D02*
X52943Y112522D01*
X53168Y112429D01*
X53256Y112381D01*
X53291Y112353D01*
X53334Y112318D01*
X53506Y112146D01*
X53541Y112103D01*
X53569Y112068D01*
X53616Y111980D01*
X53710Y111755D01*
X53739Y111659D01*
X53748Y111560D01*
Y111438D01*
Y96062D01*
Y95940D01*
X53739Y95841D01*
X53710Y95745D01*
X53616Y95520D01*
X53569Y95432D01*
X53541Y95397D01*
X53506Y95354D01*
X53334Y95182D01*
X53291Y95147D01*
X53256Y95119D01*
X53168Y95072D01*
X52943Y94978D01*
X52847Y94949D01*
X52748Y94940D01*
X52082D01*
X52049Y94943D01*
X52015Y94944D01*
X50937Y95086D01*
X50904Y95094D01*
X50871Y95099D01*
X49820Y95381D01*
X49789Y95392D01*
X49757Y95402D01*
X48752Y95819D01*
X48723Y95834D01*
X48692Y95848D01*
X47750Y96392D01*
X47723Y96411D01*
X47694Y96429D01*
X46831Y97091D01*
X46807Y97114D01*
X46781Y97135D01*
X46012Y97905D01*
X45990Y97931D01*
X45967Y97955D01*
X45305Y98818D01*
X45288Y98846D01*
X45268Y98874D01*
X44724Y99816D01*
X44710Y99846D01*
X44694Y99876D01*
X44278Y100881D01*
X44268Y100913D01*
X44257Y100944D01*
X43975Y101995D01*
X43970Y102028D01*
X43962Y102061D01*
X43820Y103139D01*
X43819Y103173D01*
X43816Y103206D01*
Y103750D01*
Y104294D01*
X43819Y104327D01*
X43820Y104361D01*
X43962Y105439D01*
X43970Y105472D01*
X43975Y105505D01*
X44257Y106556D01*
X44268Y106587D01*
X44278Y106619D01*
X44694Y107624D01*
X44710Y107654D01*
X44724Y107684D01*
X45268Y108626D01*
X45287Y108654D01*
X45305Y108682D01*
X45967Y109545D01*
X45990Y109570D01*
X46012Y109595D01*
X46781Y110365D01*
X46807Y110386D01*
X46831Y110409D01*
X47694Y111071D01*
X47722Y111088D01*
X47750Y111108D01*
X48692Y111652D01*
X48723Y111666D01*
X48752Y111682D01*
X49757Y112098D01*
X49789Y112108D01*
X49820Y112120D01*
X50871Y112401D01*
X50904Y112407D01*
X50937Y112414D01*
X52016Y112556D01*
X52049Y112557D01*
X52082Y112561D01*
X52748D01*
X52847Y112551D01*
D02*
G37*
G36*
X55951Y112557D02*
X55985Y112556D01*
X57063Y112414D01*
X57096Y112406D01*
X57129Y112401D01*
X58180Y112119D01*
X58211Y112108D01*
X58243Y112098D01*
X59248Y111682D01*
X59278Y111666D01*
X59308Y111652D01*
X60250Y111108D01*
X60278Y111088D01*
X60306Y111071D01*
X61169Y110409D01*
X61193Y110386D01*
X61219Y110365D01*
X61989Y109595D01*
X62010Y109569D01*
X62032Y109545D01*
X62695Y108682D01*
X62712Y108653D01*
X62732Y108626D01*
X63276Y107684D01*
X63290Y107653D01*
X63306Y107624D01*
X63722Y106619D01*
X63732Y106587D01*
X63743Y106556D01*
X64025Y105505D01*
X64030Y105472D01*
X64038Y105439D01*
X64180Y104361D01*
X64181Y104327D01*
X64184Y104294D01*
Y103750D01*
Y103206D01*
X64181Y103173D01*
X64180Y103139D01*
X64038Y102061D01*
X64030Y102028D01*
X64025Y101995D01*
X63743Y100944D01*
X63732Y100913D01*
X63722Y100881D01*
X63306Y99876D01*
X63290Y99846D01*
X63276Y99816D01*
X62732Y98874D01*
X62712Y98846D01*
X62695Y98818D01*
X62032Y97955D01*
X62010Y97931D01*
X61989Y97905D01*
X61219Y97135D01*
X61193Y97114D01*
X61169Y97091D01*
X60306Y96429D01*
X60277Y96411D01*
X60250Y96392D01*
X59308Y95848D01*
X59277Y95834D01*
X59248Y95818D01*
X58243Y95402D01*
X58211Y95392D01*
X58180Y95380D01*
X57129Y95099D01*
X57096Y95093D01*
X57063Y95086D01*
X55985Y94944D01*
X55951Y94943D01*
X55918Y94939D01*
X55252D01*
X55153Y94949D01*
X55057Y94978D01*
X54832Y95071D01*
X54744Y95119D01*
X54709Y95147D01*
X54666Y95182D01*
X54494Y95354D01*
X54459Y95397D01*
X54431Y95432D01*
X54384Y95520D01*
X54290Y95745D01*
X54261Y95841D01*
X54251Y95940D01*
Y96062D01*
Y111438D01*
Y111560D01*
X54261Y111659D01*
X54290Y111755D01*
X54384Y111980D01*
X54431Y112068D01*
X54459Y112103D01*
X54494Y112146D01*
X54666Y112318D01*
X54709Y112353D01*
X54744Y112381D01*
X54832Y112428D01*
X55057Y112522D01*
X55153Y112551D01*
X55252Y112560D01*
X55918D01*
X55951Y112557D01*
D02*
G37*
G36*
X44577Y-51819D02*
X44611Y-51820D01*
X45689Y-51962D01*
X45722Y-51970D01*
X45755Y-51975D01*
X46806Y-52257D01*
X46837Y-52268D01*
X46869Y-52278D01*
X47874Y-52695D01*
X47903Y-52710D01*
X47934Y-52724D01*
X48876Y-53268D01*
X48904Y-53288D01*
X48932Y-53305D01*
X49795Y-53967D01*
X49819Y-53990D01*
X49845Y-54012D01*
X50615Y-54781D01*
X50636Y-54807D01*
X50659Y-54831D01*
X51321Y-55694D01*
X51339Y-55722D01*
X51358Y-55750D01*
X51902Y-56692D01*
X51916Y-56722D01*
X51932Y-56752D01*
X52348Y-57757D01*
X52358Y-57789D01*
X52369Y-57820D01*
X52651Y-58871D01*
X52656Y-58904D01*
X52664Y-58937D01*
X52806Y-60016D01*
X52807Y-60049D01*
X52811Y-60082D01*
Y-60626D01*
Y-60748D01*
X52801Y-60847D01*
X52772Y-60943D01*
X52678Y-61168D01*
X52631Y-61256D01*
X52603Y-61291D01*
X52568Y-61334D01*
X52396Y-61506D01*
X52353Y-61541D01*
X52318Y-61569D01*
X52230Y-61617D01*
X52005Y-61710D01*
X51909Y-61739D01*
X51810Y-61748D01*
X36190D01*
X36091Y-61739D01*
X35995Y-61710D01*
X35770Y-61617D01*
X35682Y-61569D01*
X35647Y-61541D01*
X35604Y-61506D01*
X35432Y-61334D01*
X35397Y-61291D01*
X35369Y-61256D01*
X35322Y-61168D01*
X35228Y-60943D01*
X35199Y-60847D01*
X35190Y-60748D01*
Y-60626D01*
Y-60082D01*
X35193Y-60049D01*
X35194Y-60016D01*
X35336Y-58937D01*
X35344Y-58904D01*
X35349Y-58871D01*
X35631Y-57820D01*
X35642Y-57789D01*
X35652Y-57757D01*
X36068Y-56752D01*
X36084Y-56723D01*
X36098Y-56692D01*
X36642Y-55750D01*
X36661Y-55723D01*
X36679Y-55694D01*
X37341Y-54831D01*
X37364Y-54807D01*
X37385Y-54781D01*
X38155Y-54012D01*
X38181Y-53990D01*
X38205Y-53967D01*
X39068Y-53305D01*
X39096Y-53288D01*
X39124Y-53268D01*
X40066Y-52724D01*
X40097Y-52710D01*
X40126Y-52695D01*
X41131Y-52278D01*
X41163Y-52268D01*
X41194Y-52257D01*
X42245Y-51975D01*
X42278Y-51970D01*
X42311Y-51962D01*
X43389Y-51820D01*
X43423Y-51819D01*
X43456Y-51816D01*
X44544D01*
X44577Y-51819D01*
D02*
G37*
G36*
X51909Y-62261D02*
X52005Y-62290D01*
X52230Y-62383D01*
X52318Y-62431D01*
X52353Y-62459D01*
X52396Y-62494D01*
X52568Y-62666D01*
X52603Y-62709D01*
X52631Y-62744D01*
X52678Y-62832D01*
X52772Y-63057D01*
X52801Y-63153D01*
X52810Y-63252D01*
Y-63374D01*
Y-63918D01*
X52807Y-63951D01*
X52806Y-63984D01*
X52664Y-65063D01*
X52656Y-65096D01*
X52651Y-65129D01*
X52369Y-66180D01*
X52358Y-66211D01*
X52348Y-66243D01*
X51932Y-67248D01*
X51916Y-67277D01*
X51902Y-67308D01*
X51358Y-68250D01*
X51338Y-68278D01*
X51321Y-68306D01*
X50659Y-69169D01*
X50636Y-69193D01*
X50615Y-69219D01*
X49845Y-69988D01*
X49819Y-70010D01*
X49795Y-70033D01*
X48932Y-70695D01*
X48903Y-70712D01*
X48876Y-70732D01*
X47934Y-71276D01*
X47903Y-71290D01*
X47874Y-71305D01*
X46869Y-71722D01*
X46837Y-71732D01*
X46806Y-71743D01*
X45755Y-72025D01*
X45722Y-72030D01*
X45689Y-72038D01*
X44611Y-72180D01*
X44577Y-72181D01*
X44544Y-72184D01*
X43456D01*
X43423Y-72181D01*
X43389Y-72180D01*
X42311Y-72038D01*
X42278Y-72030D01*
X42245Y-72025D01*
X41194Y-71743D01*
X41163Y-71732D01*
X41131Y-71722D01*
X40126Y-71305D01*
X40096Y-71290D01*
X40066Y-71276D01*
X39124Y-70732D01*
X39096Y-70712D01*
X39068Y-70695D01*
X38205Y-70033D01*
X38180Y-70010D01*
X38155Y-69988D01*
X37385Y-69219D01*
X37364Y-69193D01*
X37341Y-69169D01*
X36679Y-68306D01*
X36661Y-68277D01*
X36642Y-68250D01*
X36098Y-67308D01*
X36084Y-67277D01*
X36068Y-67248D01*
X35652Y-66243D01*
X35642Y-66211D01*
X35631Y-66180D01*
X35349Y-65129D01*
X35343Y-65096D01*
X35336Y-65063D01*
X35194Y-63985D01*
X35193Y-63951D01*
X35189Y-63918D01*
Y-63374D01*
Y-63252D01*
X35199Y-63153D01*
X35228Y-63057D01*
X35322Y-62832D01*
X35369Y-62744D01*
X35397Y-62709D01*
X35432Y-62666D01*
X35604Y-62494D01*
X35647Y-62459D01*
X35682Y-62431D01*
X35770Y-62383D01*
X35995Y-62290D01*
X36091Y-62261D01*
X36190Y-62252D01*
X51810D01*
X51909Y-62261D01*
D02*
G37*
D26*
X42000Y-104750D02*
D03*
Y-95750D02*
D03*
X34000Y-176500D02*
D03*
Y-167500D02*
D03*
X-43000Y-119500D02*
D03*
Y-110500D02*
D03*
X55000Y237500D02*
D03*
Y228500D02*
D03*
X-45250Y117500D02*
D03*
Y108500D02*
D03*
X17000Y6500D02*
D03*
Y15500D02*
D03*
X27000Y6500D02*
D03*
Y15500D02*
D03*
X-55000Y237500D02*
D03*
Y228500D02*
D03*
X-7250Y-62000D02*
D03*
Y-53000D02*
D03*
X23000Y172000D02*
D03*
Y163000D02*
D03*
D27*
X15750Y-12000D02*
D03*
X24750D02*
D03*
X-61250Y-3000D02*
D03*
X-52250D02*
D03*
X-61250Y-13000D02*
D03*
X-52250D02*
D03*
X43000Y-32500D02*
D03*
X34000D02*
D03*
X45250Y31000D02*
D03*
X36250D02*
D03*
X45500Y21000D02*
D03*
X36500D02*
D03*
X-32500Y182000D02*
D03*
X-23500D02*
D03*
D35*
X-76200Y241300D02*
D03*
Y215900D02*
D03*
Y190500D02*
D03*
Y165100D02*
D03*
Y139700D02*
D03*
Y114300D02*
D03*
Y88900D02*
D03*
Y63500D02*
D03*
Y38100D02*
D03*
Y12700D02*
D03*
Y-12700D02*
D03*
Y-38100D02*
D03*
Y-63500D02*
D03*
Y-88900D02*
D03*
Y-114300D02*
D03*
Y-139700D02*
D03*
Y-165100D02*
D03*
Y-190500D02*
D03*
Y-215900D02*
D03*
Y-241300D02*
D03*
X76200D02*
D03*
Y-215900D02*
D03*
Y-190500D02*
D03*
Y-165100D02*
D03*
Y-139700D02*
D03*
Y-114300D02*
D03*
Y-88900D02*
D03*
Y-63500D02*
D03*
Y-38100D02*
D03*
Y-12700D02*
D03*
Y12700D02*
D03*
Y38100D02*
D03*
Y63500D02*
D03*
Y88900D02*
D03*
Y114300D02*
D03*
Y139700D02*
D03*
Y165100D02*
D03*
Y190500D02*
D03*
Y215900D02*
D03*
Y241300D02*
D03*
D36*
X43250Y243380D02*
D03*
X-43250D02*
D03*
D37*
X43250Y209580D02*
D03*
X-43250D02*
D03*
D38*
X29750Y199780D02*
D03*
X21250D02*
D03*
X12750D02*
D03*
X4250D02*
D03*
X-4250D02*
D03*
X-12750D02*
D03*
X-21250D02*
D03*
X-29750D02*
D03*
Y213280D02*
D03*
X-21250D02*
D03*
X-12750D02*
D03*
X-4250D02*
D03*
X4250D02*
D03*
X12750D02*
D03*
X21250D02*
D03*
X29750D02*
D03*
D56*
X55000Y181999D02*
D03*
X-16000Y120001D02*
D03*
X54000Y103747D02*
D03*
D57*
X44000Y-62000D02*
D03*
D58*
X-21750Y-47500D02*
D03*
Y-66500D02*
D03*
X-44750Y-57000D02*
D03*
D59*
X-29500Y-32500D02*
D03*
X-46000D02*
D03*
D60*
X-34900Y-185500D02*
D03*
X-21100Y-185500D02*
D03*
X-34900Y-202000D02*
D03*
X-21100Y-202000D02*
D03*
X7900Y-142000D02*
D03*
X-5900Y-142000D02*
D03*
X-32900D02*
D03*
X-19100Y-142000D02*
D03*
D61*
X20500Y-177000D02*
D03*
X20500Y-167500D02*
D03*
Y-158000D02*
D03*
X-4500Y-158000D02*
D03*
X-4500Y-167500D02*
D03*
X-4500Y-177000D02*
D03*
D62*
X18000Y-204500D02*
D03*
X-4000Y-204500D02*
D03*
D63*
X24500Y141500D02*
D03*
Y122500D02*
D03*
X49500D02*
D03*
X49500Y132000D02*
D03*
X49500Y141500D02*
D03*
X-18500Y160500D02*
D03*
X-18500Y141500D02*
D03*
X6500Y141500D02*
D03*
Y151000D02*
D03*
X6500Y160500D02*
D03*
D64*
X35750Y85050D02*
D03*
Y72350D02*
D03*
Y59650D02*
D03*
Y46950D02*
D03*
X-35750Y85050D02*
D03*
Y72350D02*
D03*
Y59650D02*
D03*
Y46950D02*
D03*
X-27250Y-121050D02*
D03*
Y-108350D02*
D03*
Y-95650D02*
D03*
Y-82950D02*
D03*
X27250Y-121050D02*
D03*
Y-108350D02*
D03*
Y-95650D02*
D03*
Y-82950D02*
D03*
D65*
X-18000Y240930D02*
D03*
Y226430D02*
D03*
X18000Y240930D02*
D03*
Y226430D02*
D03*
M02*
