G04*
G04 #@! TF.GenerationSoftware,Altium Limited,Altium Designer,25.5.2 (35)*
G04*
G04 Layer_Physical_Order=2*
G04 Layer_Color=128*
%FSLAX44Y44*%
%MOMM*%
G71*
G04*
G04 #@! TF.SameCoordinates,031FDC87-80B5-42A0-ABBE-4A2DC663B68C*
G04*
G04*
G04 #@! TF.FilePolarity,Positive*
G04*
G01*
G75*
G04:AMPARAMS|DCode=36|XSize=0.9mm|YSize=1.7mm|CornerRadius=0.45mm|HoleSize=0mm|Usage=FLASHONLY|Rotation=180.000|XOffset=0mm|YOffset=0mm|HoleType=Round|Shape=RoundedRectangle|*
%AMROUNDEDRECTD36*
21,1,0.9000,0.8000,0,0,180.0*
21,1,0.0000,1.7000,0,0,180.0*
1,1,0.9000,0.0000,0.4000*
1,1,0.9000,0.0000,0.4000*
1,1,0.9000,0.0000,-0.4000*
1,1,0.9000,0.0000,-0.4000*
%
%ADD36ROUNDEDRECTD36*%
G04:AMPARAMS|DCode=37|XSize=0.9mm|YSize=2.4mm|CornerRadius=0.45mm|HoleSize=0mm|Usage=FLASHONLY|Rotation=180.000|XOffset=0mm|YOffset=0mm|HoleType=Round|Shape=RoundedRectangle|*
%AMROUNDEDRECTD37*
21,1,0.9000,1.5000,0,0,180.0*
21,1,0.0000,2.4000,0,0,180.0*
1,1,0.9000,0.0000,0.7500*
1,1,0.9000,0.0000,0.7500*
1,1,0.9000,0.0000,-0.7500*
1,1,0.9000,0.0000,-0.7500*
%
%ADD37ROUNDEDRECTD37*%
%ADD38C,0.6500*%
%ADD43C,1.2000*%
%ADD44C,0.5588*%
%ADD45C,0.5000*%
%ADD46C,0.6000*%
%ADD47C,0.7452*%
G36*
X82550Y252441D02*
X84383Y252077D01*
X85938Y251038D01*
X86977Y249484D01*
X87341Y247650D01*
X87341D01*
Y-247650D01*
X87341D01*
X86977Y-249484D01*
X85938Y-251038D01*
X84383Y-252077D01*
X82550Y-252441D01*
Y-252442D01*
X-82550D01*
Y-252441D01*
X-84383Y-252077D01*
X-85938Y-251038D01*
X-86977Y-249484D01*
X-87341Y-247650D01*
X-87341D01*
Y247650D01*
X-87341D01*
X-86977Y249484D01*
X-85938Y251038D01*
X-84383Y252077D01*
X-82550Y252441D01*
Y252442D01*
X82550D01*
Y252441D01*
D02*
G37*
%LPC*%
G36*
X77190Y248824D02*
X75209D01*
X73296Y248311D01*
X71580Y247321D01*
X70179Y245920D01*
X69189Y244204D01*
X68676Y242290D01*
Y240310D01*
X68830Y239733D01*
X55917Y226819D01*
X55027Y225488D01*
X54715Y223918D01*
Y156199D01*
X53191Y155180D01*
X52859Y155318D01*
X51141D01*
X49554Y154661D01*
X48339Y153446D01*
X47682Y151859D01*
Y150141D01*
X48339Y148554D01*
X49554Y147339D01*
X49886Y147202D01*
X50280Y145445D01*
X50254Y145400D01*
X49391Y144110D01*
X49079Y142540D01*
Y113176D01*
X49391Y111606D01*
X50281Y110275D01*
X50715Y109840D01*
Y90199D01*
X49191Y89180D01*
X48859Y89318D01*
X47141D01*
X45554Y88661D01*
X44339Y87446D01*
X43682Y85859D01*
Y84141D01*
X44339Y82554D01*
X45554Y81339D01*
X47141Y80682D01*
X47849D01*
X48481Y79158D01*
X35781Y66458D01*
X34892Y65127D01*
X34579Y63557D01*
Y31710D01*
X34892Y30140D01*
X35781Y28809D01*
X47994Y16596D01*
X47636Y14798D01*
X47304Y14661D01*
X46089Y13446D01*
X45432Y11859D01*
Y10141D01*
X46089Y8554D01*
X47304Y7339D01*
X48891Y6682D01*
X50609D01*
X52196Y7339D01*
X53411Y8554D01*
X53548Y8886D01*
X55346Y9244D01*
X57715Y6875D01*
Y-21801D01*
X56191Y-22820D01*
X55859Y-22682D01*
X54141D01*
X52554Y-23339D01*
X51339Y-24554D01*
X50682Y-26141D01*
Y-27859D01*
X51339Y-29446D01*
X52554Y-30661D01*
X54141Y-31318D01*
X55859D01*
X56191Y-31180D01*
X57715Y-32199D01*
Y-128483D01*
X-22926Y-209124D01*
X-23446Y-209339D01*
X-24661Y-210554D01*
X-25318Y-212141D01*
Y-213859D01*
X-24661Y-215446D01*
X-23446Y-216661D01*
X-21859Y-217318D01*
X-20141D01*
X-18554Y-216661D01*
X-17339Y-215446D01*
X-17124Y-214926D01*
X64719Y-133083D01*
X65609Y-131752D01*
X65921Y-130182D01*
Y8574D01*
X65609Y10144D01*
X64719Y11475D01*
X62264Y13931D01*
X62895Y15455D01*
X63816D01*
X65403Y16112D01*
X66618Y17327D01*
X67275Y18914D01*
Y20632D01*
X66618Y22219D01*
X65403Y23433D01*
X63816Y24091D01*
X62098D01*
X60511Y23433D01*
X59296Y22219D01*
X58639Y20632D01*
Y19711D01*
X57115Y19079D01*
X42785Y33410D01*
Y61858D01*
X57719Y76792D01*
X58608Y78123D01*
X58921Y79693D01*
Y111540D01*
X58608Y113110D01*
X57719Y114441D01*
X57285Y114875D01*
Y140841D01*
X61719Y145275D01*
X62608Y146606D01*
X62921Y148176D01*
Y222219D01*
X74633Y233930D01*
X75209Y233776D01*
X77190D01*
X79104Y234289D01*
X80820Y235279D01*
X82221Y236680D01*
X83211Y238396D01*
X83724Y240310D01*
Y242290D01*
X83211Y244204D01*
X82221Y245920D01*
X80820Y247321D01*
X79104Y248311D01*
X77190Y248824D01*
D02*
G37*
G36*
X33859Y234568D02*
X32141D01*
X30554Y233911D01*
X29339Y232696D01*
X28682Y231109D01*
Y229391D01*
X29339Y227804D01*
X30554Y226589D01*
X32141Y225932D01*
X33859D01*
X35446Y226589D01*
X36661Y227804D01*
X37318Y229391D01*
Y231109D01*
X36661Y232696D01*
X35446Y233911D01*
X33859Y234568D01*
D02*
G37*
G36*
X77190Y223424D02*
X75209D01*
X73296Y222911D01*
X71580Y221921D01*
X70179Y220520D01*
X69189Y218804D01*
X68676Y216891D01*
Y214909D01*
X69189Y212996D01*
X70179Y211280D01*
X71580Y209879D01*
X73296Y208889D01*
X75209Y208376D01*
X77190D01*
X79104Y208889D01*
X80820Y209879D01*
X82221Y211280D01*
X83211Y212996D01*
X83724Y214909D01*
Y216891D01*
X83211Y218804D01*
X82221Y220520D01*
X80820Y221921D01*
X79104Y222911D01*
X77190Y223424D01*
D02*
G37*
G36*
X-75209Y248824D02*
X-77190D01*
X-79104Y248311D01*
X-80820Y247321D01*
X-82221Y245920D01*
X-83211Y244204D01*
X-83724Y242290D01*
Y240310D01*
X-83211Y238396D01*
X-82221Y236680D01*
X-80820Y235279D01*
X-79104Y234289D01*
X-77190Y233776D01*
X-76246D01*
X-66915Y224445D01*
X-66915Y224445D01*
X-65178Y223285D01*
X-63130Y222877D01*
X-63130Y222877D01*
X-34896D01*
X-26386Y214367D01*
X-26603Y213280D01*
Y199780D01*
X-26195Y197732D01*
X-25035Y195995D01*
X-23298Y194835D01*
X-21250Y194427D01*
X-19202Y194835D01*
X-17465Y195995D01*
X-17432Y196044D01*
X-15915Y196194D01*
X-15454Y195733D01*
X-13700Y195006D01*
X-11800D01*
X-10046Y195733D01*
X-9496Y196283D01*
X-8500Y196942D01*
X-7504Y196283D01*
X-6954Y195733D01*
X-5200Y195006D01*
X-3300D01*
X-1546Y195733D01*
X-996Y196283D01*
X0Y196942D01*
X996Y196283D01*
X1546Y195733D01*
X3300Y195006D01*
X5200D01*
X6954Y195733D01*
X7504Y196283D01*
X8500Y196942D01*
X9496Y196283D01*
X10046Y195733D01*
X11800Y195006D01*
X13700D01*
X15454Y195733D01*
X15915Y196194D01*
X17432Y196044D01*
X17465Y195995D01*
X19202Y194835D01*
X21250Y194427D01*
X23298Y194835D01*
X25035Y195995D01*
X26195Y197732D01*
X26603Y199780D01*
Y213280D01*
Y216801D01*
X26603Y216801D01*
X26396Y217841D01*
Y219163D01*
X25988Y221211D01*
X24828Y222948D01*
X19201Y228575D01*
X17464Y229735D01*
X15416Y230143D01*
X-13261D01*
X-15309Y229735D01*
X-17046Y228575D01*
X-21250Y224371D01*
X-28894Y232015D01*
X-30631Y233175D01*
X-32679Y233583D01*
X-60913D01*
X-68676Y241346D01*
Y242290D01*
X-69189Y244204D01*
X-70179Y245920D01*
X-71580Y247321D01*
X-73296Y248311D01*
X-75209Y248824D01*
D02*
G37*
G36*
X77190Y198024D02*
X75209D01*
X73296Y197511D01*
X71580Y196521D01*
X70179Y195120D01*
X69189Y193404D01*
X68676Y191490D01*
Y189510D01*
X69189Y187596D01*
X70179Y185880D01*
X71580Y184479D01*
X73296Y183489D01*
X75209Y182976D01*
X77190D01*
X79104Y183489D01*
X80820Y184479D01*
X82221Y185880D01*
X83211Y187596D01*
X83724Y189510D01*
Y191490D01*
X83211Y193404D01*
X82221Y195120D01*
X80820Y196521D01*
X79104Y197511D01*
X77190Y198024D01*
D02*
G37*
G36*
Y172624D02*
X75209D01*
X73296Y172111D01*
X71580Y171121D01*
X70179Y169720D01*
X69189Y168004D01*
X68676Y166091D01*
Y164109D01*
X69189Y162196D01*
X70179Y160480D01*
X71580Y159079D01*
X73296Y158089D01*
X75209Y157576D01*
X77190D01*
X79104Y158089D01*
X80820Y159079D01*
X82221Y160480D01*
X83211Y162196D01*
X83724Y164109D01*
Y166091D01*
X83211Y168004D01*
X82221Y169720D01*
X80820Y171121D01*
X79104Y172111D01*
X77190Y172624D01*
D02*
G37*
G36*
X-75209D02*
X-77190D01*
X-79104Y172111D01*
X-80820Y171121D01*
X-82221Y169720D01*
X-83211Y168004D01*
X-83724Y166091D01*
Y164109D01*
X-83211Y162196D01*
X-82221Y160480D01*
X-80820Y159079D01*
X-79104Y158089D01*
X-77190Y157576D01*
X-75209D01*
X-73296Y158089D01*
X-71580Y159079D01*
X-70179Y160480D01*
X-69189Y162196D01*
X-68676Y164109D01*
Y166091D01*
X-69189Y168004D01*
X-70179Y169720D01*
X-71580Y171121D01*
X-73296Y172111D01*
X-75209Y172624D01*
D02*
G37*
G36*
Y223424D02*
X-77190D01*
X-79104Y222911D01*
X-80820Y221921D01*
X-82221Y220520D01*
X-83211Y218804D01*
X-83724Y216891D01*
Y214909D01*
X-83211Y212996D01*
X-82221Y211280D01*
X-80820Y209879D01*
X-79104Y208889D01*
X-77190Y208376D01*
X-75209D01*
X-75201Y208378D01*
X-65681Y198857D01*
Y-4583D01*
X-65329Y-6348D01*
X-64330Y-7844D01*
X-55766Y-16408D01*
X-56123Y-18206D01*
X-56446Y-18339D01*
X-57661Y-19554D01*
X-58318Y-21141D01*
Y-22859D01*
X-57661Y-24446D01*
X-56446Y-25661D01*
X-54859Y-26318D01*
X-53141D01*
X-52819Y-26184D01*
X-51295Y-27203D01*
Y-119818D01*
X-50943Y-121583D01*
X-49944Y-123080D01*
X-40262Y-132762D01*
X-38765Y-133762D01*
X-37000Y-134113D01*
X-35235Y-133762D01*
X-33738Y-132762D01*
X-32738Y-131265D01*
X-32387Y-129500D01*
X-32738Y-127735D01*
X-33738Y-126238D01*
X-42069Y-117907D01*
Y-18969D01*
X-42421Y-17204D01*
X-43420Y-15707D01*
X-56455Y-2672D01*
Y135797D01*
X-54931Y136816D01*
X-54609Y136682D01*
X-52891D01*
X-51304Y137339D01*
X-50089Y138554D01*
X-49432Y140141D01*
Y141859D01*
X-50089Y143446D01*
X-51304Y144661D01*
X-52891Y145318D01*
X-54609D01*
X-54931Y145184D01*
X-56455Y146203D01*
Y200768D01*
X-56807Y202533D01*
X-57806Y204030D01*
X-68678Y214901D01*
X-68676Y214909D01*
Y216891D01*
X-69189Y218804D01*
X-70179Y220520D01*
X-71580Y221921D01*
X-73296Y222911D01*
X-75209Y223424D01*
D02*
G37*
G36*
X77190Y147224D02*
X75209D01*
X73296Y146711D01*
X71580Y145721D01*
X70179Y144320D01*
X69189Y142604D01*
X68676Y140690D01*
Y138709D01*
X69189Y136796D01*
X70179Y135080D01*
X71580Y133679D01*
X73296Y132689D01*
X75209Y132176D01*
X77190D01*
X79104Y132689D01*
X80820Y133679D01*
X82221Y135080D01*
X83211Y136796D01*
X83724Y138709D01*
Y140690D01*
X83211Y142604D01*
X82221Y144320D01*
X80820Y145721D01*
X79104Y146711D01*
X77190Y147224D01*
D02*
G37*
G36*
X-75209D02*
X-77190D01*
X-79104Y146711D01*
X-80820Y145721D01*
X-82221Y144320D01*
X-83211Y142604D01*
X-83724Y140690D01*
Y138709D01*
X-83211Y136796D01*
X-82221Y135080D01*
X-80820Y133679D01*
X-79104Y132689D01*
X-77190Y132176D01*
X-75209D01*
X-73296Y132689D01*
X-71580Y133679D01*
X-70179Y135080D01*
X-69189Y136796D01*
X-68676Y138709D01*
Y140690D01*
X-69189Y142604D01*
X-70179Y144320D01*
X-71580Y145721D01*
X-73296Y146711D01*
X-75209Y147224D01*
D02*
G37*
G36*
X-44141Y130318D02*
X-45859D01*
X-47446Y129661D01*
X-48661Y128446D01*
X-49318Y126859D01*
Y125141D01*
X-48661Y123554D01*
X-47446Y122339D01*
X-45859Y121682D01*
X-44141D01*
X-42554Y122339D01*
X-41339Y123554D01*
X-40682Y125141D01*
Y126859D01*
X-41339Y128446D01*
X-42554Y129661D01*
X-44141Y130318D01*
D02*
G37*
G36*
X77190Y121824D02*
X75209D01*
X73296Y121311D01*
X71580Y120321D01*
X70179Y118920D01*
X69189Y117204D01*
X68676Y115290D01*
Y113309D01*
X69189Y111396D01*
X70179Y109680D01*
X71580Y108279D01*
X73296Y107289D01*
X75209Y106776D01*
X77190D01*
X79104Y107289D01*
X80820Y108279D01*
X82221Y109680D01*
X83211Y111396D01*
X83724Y113309D01*
Y115290D01*
X83211Y117204D01*
X82221Y118920D01*
X80820Y120321D01*
X79104Y121311D01*
X77190Y121824D01*
D02*
G37*
G36*
X-75209D02*
X-77190D01*
X-79104Y121311D01*
X-80820Y120321D01*
X-82221Y118920D01*
X-83211Y117204D01*
X-83724Y115290D01*
Y113309D01*
X-83211Y111396D01*
X-82221Y109680D01*
X-80820Y108279D01*
X-79104Y107289D01*
X-77190Y106776D01*
X-75209D01*
X-73296Y107289D01*
X-71580Y108279D01*
X-70179Y109680D01*
X-69189Y111396D01*
X-68676Y113309D01*
Y115290D01*
X-69189Y117204D01*
X-70179Y118920D01*
X-71580Y120321D01*
X-73296Y121311D01*
X-75209Y121824D01*
D02*
G37*
G36*
X4859Y109398D02*
X3141D01*
X1554Y108741D01*
X339Y107526D01*
X-318Y105939D01*
Y104221D01*
X339Y102634D01*
X1449Y101524D01*
X339Y100414D01*
X-318Y98827D01*
Y97109D01*
X339Y95522D01*
X1554Y94307D01*
X3141Y93650D01*
X4859D01*
X6446Y94307D01*
X7661Y95522D01*
X8318Y97109D01*
Y98827D01*
X7661Y100414D01*
X6551Y101524D01*
X7661Y102634D01*
X8318Y104221D01*
Y105939D01*
X7661Y107526D01*
X6446Y108741D01*
X4859Y109398D01*
D02*
G37*
G36*
X77190Y96424D02*
X75209D01*
X73296Y95911D01*
X71580Y94921D01*
X70179Y93520D01*
X69189Y91804D01*
X68676Y89890D01*
Y87909D01*
X69189Y85996D01*
X70179Y84280D01*
X71580Y82879D01*
X73296Y81889D01*
X75209Y81376D01*
X77190D01*
X79104Y81889D01*
X80820Y82879D01*
X82221Y84280D01*
X83211Y85996D01*
X83724Y87909D01*
Y89890D01*
X83211Y91804D01*
X82221Y93520D01*
X80820Y94921D01*
X79104Y95911D01*
X77190Y96424D01*
D02*
G37*
G36*
X-75209D02*
X-77190D01*
X-79104Y95911D01*
X-80820Y94921D01*
X-82221Y93520D01*
X-83211Y91804D01*
X-83724Y89890D01*
Y87909D01*
X-83211Y85996D01*
X-82221Y84280D01*
X-80820Y82879D01*
X-79104Y81889D01*
X-77190Y81376D01*
X-75209D01*
X-73296Y81889D01*
X-71580Y82879D01*
X-70179Y84280D01*
X-69189Y85996D01*
X-68676Y87909D01*
Y89890D01*
X-69189Y91804D01*
X-70179Y93520D01*
X-71580Y94921D01*
X-73296Y95911D01*
X-75209Y96424D01*
D02*
G37*
G36*
X22859Y70318D02*
X21141D01*
X19554Y69661D01*
X18339Y68446D01*
X17682Y66859D01*
Y65141D01*
X18339Y63554D01*
X19554Y62339D01*
X21141Y61682D01*
X22859D01*
X24446Y62339D01*
X25661Y63554D01*
X26318Y65141D01*
Y66859D01*
X25661Y68446D01*
X24446Y69661D01*
X22859Y70318D01*
D02*
G37*
G36*
X-2141D02*
X-3859D01*
X-5446Y69661D01*
X-6661Y68446D01*
X-7318Y66859D01*
Y65141D01*
X-6661Y63554D01*
X-5446Y62339D01*
X-3859Y61682D01*
X-2141D01*
X-554Y62339D01*
X661Y63554D01*
X1318Y65141D01*
Y66859D01*
X661Y68446D01*
X-554Y69661D01*
X-2141Y70318D01*
D02*
G37*
G36*
X77190Y71024D02*
X75209D01*
X73296Y70511D01*
X71580Y69521D01*
X70179Y68120D01*
X69189Y66404D01*
X68676Y64490D01*
Y62509D01*
X69189Y60596D01*
X70179Y58880D01*
X71580Y57479D01*
X73296Y56489D01*
X75209Y55976D01*
X77190D01*
X79104Y56489D01*
X80820Y57479D01*
X82221Y58880D01*
X83211Y60596D01*
X83724Y62509D01*
Y64490D01*
X83211Y66404D01*
X82221Y68120D01*
X80820Y69521D01*
X79104Y70511D01*
X77190Y71024D01*
D02*
G37*
G36*
X-75209D02*
X-77190D01*
X-79104Y70511D01*
X-80820Y69521D01*
X-82221Y68120D01*
X-83211Y66404D01*
X-83724Y64490D01*
Y62509D01*
X-83211Y60596D01*
X-82221Y58880D01*
X-80820Y57479D01*
X-79104Y56489D01*
X-77190Y55976D01*
X-75209D01*
X-73296Y56489D01*
X-71580Y57479D01*
X-70179Y58880D01*
X-69189Y60596D01*
X-68676Y62509D01*
Y64490D01*
X-69189Y66404D01*
X-70179Y68120D01*
X-71580Y69521D01*
X-73296Y70511D01*
X-75209Y71024D01*
D02*
G37*
G36*
X70359Y55318D02*
X68641D01*
X67054Y54661D01*
X65839Y53446D01*
X65182Y51859D01*
Y50141D01*
X65839Y48554D01*
X67054Y47339D01*
X68641Y46682D01*
X70359D01*
X71946Y47339D01*
X73161Y48554D01*
X73818Y50141D01*
Y51859D01*
X73161Y53446D01*
X71946Y54661D01*
X70359Y55318D01*
D02*
G37*
G36*
X-48141Y51318D02*
X-49859D01*
X-51446Y50661D01*
X-52661Y49446D01*
X-53318Y47859D01*
Y46141D01*
X-52661Y44554D01*
X-51446Y43339D01*
X-49859Y42682D01*
X-48141D01*
X-46554Y43339D01*
X-45339Y44554D01*
X-44682Y46141D01*
Y47859D01*
X-45339Y49446D01*
X-46554Y50661D01*
X-48141Y51318D01*
D02*
G37*
G36*
X57859Y50818D02*
X56141D01*
X54554Y50161D01*
X53339Y48946D01*
X52682Y47359D01*
Y45641D01*
X53339Y44054D01*
X54554Y42839D01*
X56141Y42182D01*
X57859D01*
X59446Y42839D01*
X60661Y44054D01*
X61318Y45641D01*
Y47359D01*
X60661Y48946D01*
X59446Y50161D01*
X57859Y50818D01*
D02*
G37*
G36*
X-22141Y60318D02*
X-23859D01*
X-25446Y59661D01*
X-26661Y58446D01*
X-27318Y56859D01*
Y55141D01*
X-26661Y53554D01*
X-25446Y52339D01*
X-25411Y52325D01*
Y50675D01*
X-25446Y50661D01*
X-26661Y49446D01*
X-27318Y47859D01*
Y46141D01*
X-26661Y44554D01*
X-25446Y43339D01*
X-23859Y42682D01*
X-22141D01*
X-21723Y42855D01*
X-20435Y43117D01*
X-19884Y42093D01*
X-19661Y41554D01*
X-18446Y40339D01*
X-16859Y39682D01*
X-15141D01*
X-13554Y40339D01*
X-12339Y41554D01*
X-11682Y43141D01*
Y44859D01*
X-12339Y46446D01*
X-13554Y47661D01*
X-15141Y48318D01*
X-16859D01*
X-17277Y48145D01*
X-18565Y47883D01*
X-19116Y48907D01*
X-19339Y49446D01*
X-20554Y50661D01*
X-20589Y50675D01*
Y52325D01*
X-20554Y52339D01*
X-19339Y53554D01*
X-18682Y55141D01*
Y56859D01*
X-19339Y58446D01*
X-20554Y59661D01*
X-22141Y60318D01*
D02*
G37*
G36*
X77190Y45624D02*
X75209D01*
X73296Y45111D01*
X71580Y44121D01*
X70179Y42720D01*
X69189Y41004D01*
X68676Y39090D01*
Y37109D01*
X69189Y35196D01*
X70179Y33480D01*
X71580Y32079D01*
X73296Y31089D01*
X75209Y30576D01*
X77190D01*
X79104Y31089D01*
X80820Y32079D01*
X82221Y33480D01*
X83211Y35196D01*
X83724Y37109D01*
Y39090D01*
X83211Y41004D01*
X82221Y42720D01*
X80820Y44121D01*
X79104Y45111D01*
X77190Y45624D01*
D02*
G37*
G36*
X-75209D02*
X-77190D01*
X-79104Y45111D01*
X-80820Y44121D01*
X-82221Y42720D01*
X-83211Y41004D01*
X-83724Y39090D01*
Y37109D01*
X-83211Y35196D01*
X-82221Y33480D01*
X-80820Y32079D01*
X-79104Y31089D01*
X-77190Y30576D01*
X-75209D01*
X-73296Y31089D01*
X-71580Y32079D01*
X-70179Y33480D01*
X-69189Y35196D01*
X-68676Y37109D01*
Y39090D01*
X-69189Y41004D01*
X-70179Y42720D01*
X-71580Y44121D01*
X-73296Y45111D01*
X-75209Y45624D01*
D02*
G37*
G36*
X26930Y28318D02*
X25213D01*
X23626Y27661D01*
X23031Y27067D01*
X22036Y26616D01*
X21040Y27067D01*
X20446Y27661D01*
X18859Y28318D01*
X17141D01*
X15554Y27661D01*
X14996Y27102D01*
X14000Y26613D01*
X13004Y27102D01*
X12446Y27661D01*
X10859Y28318D01*
X9141D01*
X7554Y27661D01*
X6339Y26446D01*
X6116Y25907D01*
X5565Y24883D01*
X4277Y25145D01*
X3859Y25318D01*
X2141D01*
X554Y24661D01*
X-661Y23446D01*
X-1318Y21859D01*
Y20141D01*
X-661Y18554D01*
X554Y17339D01*
X2141Y16682D01*
X3859D01*
X5446Y17339D01*
X6661Y18554D01*
X6884Y19093D01*
X7435Y20117D01*
X8723Y19855D01*
X9141Y19682D01*
X10859D01*
X12446Y20339D01*
X13004Y20898D01*
X14000Y21387D01*
X14996Y20898D01*
X15554Y20339D01*
X17141Y19682D01*
X18859D01*
X20446Y20339D01*
X21040Y20933D01*
X22036Y21384D01*
X23031Y20933D01*
X23626Y20339D01*
X25213Y19682D01*
X26930D01*
X28517Y20339D01*
X29732Y21554D01*
X30389Y23141D01*
Y24859D01*
X29732Y26446D01*
X28517Y27661D01*
X26930Y28318D01*
D02*
G37*
G36*
X-9141Y25318D02*
X-10859D01*
X-12446Y24661D01*
X-13661Y23446D01*
X-14318Y21859D01*
Y20141D01*
X-13661Y18554D01*
X-12446Y17339D01*
X-10859Y16682D01*
X-9141D01*
X-7554Y17339D01*
X-6339Y18554D01*
X-5682Y20141D01*
Y21859D01*
X-6339Y23446D01*
X-7554Y24661D01*
X-9141Y25318D01*
D02*
G37*
G36*
X-24141Y29318D02*
X-25859D01*
X-27446Y28661D01*
X-28661Y27446D01*
X-29318Y25859D01*
Y24141D01*
X-28661Y22554D01*
X-28102Y21996D01*
X-27613Y21000D01*
X-28102Y20004D01*
X-28661Y19446D01*
X-29318Y17859D01*
Y16141D01*
X-28661Y14554D01*
X-27446Y13339D01*
X-25859Y12682D01*
X-24141D01*
X-22554Y13339D01*
X-21339Y14554D01*
X-20682Y16141D01*
Y17859D01*
X-21339Y19446D01*
X-21898Y20004D01*
X-22387Y21000D01*
X-21898Y21996D01*
X-21339Y22554D01*
X-20682Y24141D01*
Y25859D01*
X-21339Y27446D01*
X-22554Y28661D01*
X-24141Y29318D01*
D02*
G37*
G36*
X77190Y20224D02*
X75209D01*
X73296Y19711D01*
X71580Y18721D01*
X70179Y17320D01*
X69189Y15604D01*
X68676Y13691D01*
Y11710D01*
X69189Y9796D01*
X70179Y8080D01*
X71580Y6679D01*
X73296Y5689D01*
X75209Y5176D01*
X77190D01*
X79104Y5689D01*
X80820Y6679D01*
X82221Y8080D01*
X83211Y9796D01*
X83724Y11710D01*
Y13691D01*
X83211Y15604D01*
X82221Y17320D01*
X80820Y18721D01*
X79104Y19711D01*
X77190Y20224D01*
D02*
G37*
G36*
X-75209D02*
X-77190D01*
X-79104Y19711D01*
X-80820Y18721D01*
X-82221Y17320D01*
X-83211Y15604D01*
X-83724Y13691D01*
Y11710D01*
X-83211Y9796D01*
X-82221Y8080D01*
X-80820Y6679D01*
X-79104Y5689D01*
X-77190Y5176D01*
X-75209D01*
X-73296Y5689D01*
X-71580Y6679D01*
X-70179Y8080D01*
X-69189Y9796D01*
X-68676Y11710D01*
Y13691D01*
X-69189Y15604D01*
X-70179Y17320D01*
X-71580Y18721D01*
X-73296Y19711D01*
X-75209Y20224D01*
D02*
G37*
G36*
X47609Y-5932D02*
X45891D01*
X44304Y-6589D01*
X43089Y-7804D01*
X42432Y-9391D01*
Y-11109D01*
X43089Y-12696D01*
X44304Y-13911D01*
X45891Y-14568D01*
X47609D01*
X49196Y-13911D01*
X50411Y-12696D01*
X51068Y-11109D01*
Y-9391D01*
X50411Y-7804D01*
X49196Y-6589D01*
X47609Y-5932D01*
D02*
G37*
G36*
X77190Y-5176D02*
X75209D01*
X73296Y-5689D01*
X71580Y-6679D01*
X70179Y-8080D01*
X69189Y-9796D01*
X68676Y-11710D01*
Y-13691D01*
X69189Y-15604D01*
X70179Y-17320D01*
X71580Y-18721D01*
X73296Y-19711D01*
X75209Y-20224D01*
X77190D01*
X79104Y-19711D01*
X80820Y-18721D01*
X82221Y-17320D01*
X83211Y-15604D01*
X83724Y-13691D01*
Y-11710D01*
X83211Y-9796D01*
X82221Y-8080D01*
X80820Y-6679D01*
X79104Y-5689D01*
X77190Y-5176D01*
D02*
G37*
G36*
X-75209D02*
X-77190D01*
X-79104Y-5689D01*
X-80820Y-6679D01*
X-82221Y-8080D01*
X-83211Y-9796D01*
X-83724Y-11710D01*
Y-13691D01*
X-83211Y-15604D01*
X-82221Y-17320D01*
X-80820Y-18721D01*
X-79104Y-19711D01*
X-77190Y-20224D01*
X-75209D01*
X-73296Y-19711D01*
X-71580Y-18721D01*
X-70179Y-17320D01*
X-69189Y-15604D01*
X-68676Y-13691D01*
Y-11710D01*
X-69189Y-9796D01*
X-70179Y-8080D01*
X-71580Y-6679D01*
X-73296Y-5689D01*
X-75209Y-5176D01*
D02*
G37*
G36*
X25859Y-19682D02*
X24141D01*
X22554Y-20339D01*
X21339Y-21554D01*
X21325Y-21589D01*
X19675D01*
X19661Y-21554D01*
X18446Y-20339D01*
X16859Y-19682D01*
X15141D01*
X13554Y-20339D01*
X12339Y-21554D01*
X11682Y-23141D01*
Y-24859D01*
X12339Y-26446D01*
X13554Y-27661D01*
X15141Y-28318D01*
X16859D01*
X18446Y-27661D01*
X19661Y-26446D01*
X19675Y-26411D01*
X21325D01*
X21339Y-26446D01*
X22554Y-27661D01*
X24141Y-28318D01*
X25859D01*
X27446Y-27661D01*
X28661Y-26446D01*
X29318Y-24859D01*
Y-23141D01*
X28661Y-21554D01*
X27446Y-20339D01*
X25859Y-19682D01*
D02*
G37*
G36*
X-22641Y-15432D02*
X-24359D01*
X-25946Y-16089D01*
X-27161Y-17304D01*
X-27818Y-18891D01*
Y-20609D01*
X-27161Y-22196D01*
X-25946Y-23411D01*
X-24359Y-24068D01*
X-22641D01*
X-21054Y-23411D01*
X-19839Y-22196D01*
X-19182Y-20609D01*
Y-18891D01*
X-19839Y-17304D01*
X-21054Y-16089D01*
X-22641Y-15432D01*
D02*
G37*
G36*
X77190Y-30576D02*
X75209D01*
X73296Y-31089D01*
X71580Y-32079D01*
X70179Y-33480D01*
X69189Y-35196D01*
X68676Y-37109D01*
Y-39090D01*
X69189Y-41004D01*
X70179Y-42720D01*
X71580Y-44121D01*
X73296Y-45111D01*
X75209Y-45624D01*
X77190D01*
X79104Y-45111D01*
X80820Y-44121D01*
X82221Y-42720D01*
X83211Y-41004D01*
X83724Y-39090D01*
Y-37109D01*
X83211Y-35196D01*
X82221Y-33480D01*
X80820Y-32079D01*
X79104Y-31089D01*
X77190Y-30576D01*
D02*
G37*
G36*
X-75209D02*
X-77190D01*
X-79104Y-31089D01*
X-80820Y-32079D01*
X-82221Y-33480D01*
X-83211Y-35196D01*
X-83724Y-37109D01*
Y-39090D01*
X-83211Y-41004D01*
X-82221Y-42720D01*
X-80820Y-44121D01*
X-79104Y-45111D01*
X-77190Y-45624D01*
X-75209D01*
X-73296Y-45111D01*
X-71580Y-44121D01*
X-70179Y-42720D01*
X-69189Y-41004D01*
X-68676Y-39090D01*
Y-37109D01*
X-69189Y-35196D01*
X-70179Y-33480D01*
X-71580Y-32079D01*
X-73296Y-31089D01*
X-75209Y-30576D01*
D02*
G37*
G36*
X27859Y-48682D02*
X26141D01*
X24554Y-49339D01*
X23339Y-50554D01*
X22682Y-52141D01*
Y-53859D01*
X23339Y-55446D01*
X24554Y-56661D01*
X26141Y-57318D01*
X27859D01*
X29446Y-56661D01*
X30661Y-55446D01*
X31318Y-53859D01*
Y-52141D01*
X30661Y-50554D01*
X29446Y-49339D01*
X27859Y-48682D01*
D02*
G37*
G36*
X2859D02*
X1141D01*
X-446Y-49339D01*
X-1661Y-50554D01*
X-2318Y-52141D01*
Y-53859D01*
X-1661Y-55446D01*
X-446Y-56661D01*
X1141Y-57318D01*
X2859D01*
X4446Y-56661D01*
X5661Y-55446D01*
X6318Y-53859D01*
Y-52141D01*
X5661Y-50554D01*
X4446Y-49339D01*
X2859Y-48682D01*
D02*
G37*
G36*
X77190Y-55976D02*
X75209D01*
X73296Y-56489D01*
X71580Y-57479D01*
X70179Y-58880D01*
X69189Y-60596D01*
X68676Y-62509D01*
Y-64490D01*
X69189Y-66404D01*
X70179Y-68120D01*
X71580Y-69521D01*
X73296Y-70511D01*
X75209Y-71024D01*
X77190D01*
X79104Y-70511D01*
X80820Y-69521D01*
X82221Y-68120D01*
X83211Y-66404D01*
X83724Y-64490D01*
Y-62509D01*
X83211Y-60596D01*
X82221Y-58880D01*
X80820Y-57479D01*
X79104Y-56489D01*
X77190Y-55976D01*
D02*
G37*
G36*
X-75209D02*
X-77190D01*
X-79104Y-56489D01*
X-80820Y-57479D01*
X-82221Y-58880D01*
X-83211Y-60596D01*
X-83724Y-62509D01*
Y-64490D01*
X-83211Y-66404D01*
X-82221Y-68120D01*
X-80820Y-69521D01*
X-79104Y-70511D01*
X-77190Y-71024D01*
X-75209D01*
X-73296Y-70511D01*
X-71580Y-69521D01*
X-70179Y-68120D01*
X-69189Y-66404D01*
X-68676Y-64490D01*
Y-62509D01*
X-69189Y-60596D01*
X-70179Y-58880D01*
X-71580Y-57479D01*
X-73296Y-56489D01*
X-75209Y-55976D01*
D02*
G37*
G36*
X42859Y-83932D02*
X41141D01*
X39554Y-84589D01*
X38339Y-85804D01*
X37682Y-87391D01*
Y-89109D01*
X38339Y-90696D01*
X39554Y-91911D01*
X41141Y-92568D01*
X42859D01*
X44446Y-91911D01*
X45661Y-90696D01*
X46318Y-89109D01*
Y-87391D01*
X45661Y-85804D01*
X44446Y-84589D01*
X42859Y-83932D01*
D02*
G37*
G36*
X77190Y-81376D02*
X75209D01*
X73296Y-81889D01*
X71580Y-82879D01*
X70179Y-84280D01*
X69189Y-85996D01*
X68676Y-87909D01*
Y-89890D01*
X69189Y-91804D01*
X70179Y-93520D01*
X71580Y-94921D01*
X73296Y-95911D01*
X75209Y-96424D01*
X77190D01*
X79104Y-95911D01*
X80820Y-94921D01*
X82221Y-93520D01*
X83211Y-91804D01*
X83724Y-89890D01*
Y-87909D01*
X83211Y-85996D01*
X82221Y-84280D01*
X80820Y-82879D01*
X79104Y-81889D01*
X77190Y-81376D01*
D02*
G37*
G36*
X-75209D02*
X-77190D01*
X-79104Y-81889D01*
X-80820Y-82879D01*
X-82221Y-84280D01*
X-83211Y-85996D01*
X-83724Y-87909D01*
Y-89890D01*
X-83211Y-91804D01*
X-82221Y-93520D01*
X-80820Y-94921D01*
X-79104Y-95911D01*
X-77190Y-96424D01*
X-75209D01*
X-73296Y-95911D01*
X-71580Y-94921D01*
X-70179Y-93520D01*
X-69189Y-91804D01*
X-68676Y-89890D01*
Y-87909D01*
X-69189Y-85996D01*
X-70179Y-84280D01*
X-71580Y-82879D01*
X-73296Y-81889D01*
X-75209Y-81376D01*
D02*
G37*
G36*
X77190Y-106776D02*
X75209D01*
X73296Y-107289D01*
X71580Y-108279D01*
X70179Y-109680D01*
X69189Y-111396D01*
X68676Y-113309D01*
Y-115290D01*
X69189Y-117204D01*
X70179Y-118920D01*
X71580Y-120321D01*
X73296Y-121311D01*
X75209Y-121824D01*
X77190D01*
X79104Y-121311D01*
X80820Y-120321D01*
X82221Y-118920D01*
X83211Y-117204D01*
X83724Y-115290D01*
Y-113309D01*
X83211Y-111396D01*
X82221Y-109680D01*
X80820Y-108279D01*
X79104Y-107289D01*
X77190Y-106776D01*
D02*
G37*
G36*
X-75209D02*
X-77190D01*
X-79104Y-107289D01*
X-80820Y-108279D01*
X-82221Y-109680D01*
X-83211Y-111396D01*
X-83724Y-113309D01*
Y-115290D01*
X-83211Y-117204D01*
X-82221Y-118920D01*
X-80820Y-120321D01*
X-79104Y-121311D01*
X-77190Y-121824D01*
X-75209D01*
X-73296Y-121311D01*
X-71580Y-120321D01*
X-70179Y-118920D01*
X-69189Y-117204D01*
X-68676Y-115290D01*
Y-113309D01*
X-69189Y-111396D01*
X-70179Y-109680D01*
X-71580Y-108279D01*
X-73296Y-107289D01*
X-75209Y-106776D01*
D02*
G37*
G36*
X77190Y-132176D02*
X75209D01*
X73296Y-132689D01*
X71580Y-133679D01*
X70179Y-135080D01*
X69189Y-136796D01*
X68676Y-138709D01*
Y-140690D01*
X69189Y-142604D01*
X70179Y-144320D01*
X71580Y-145721D01*
X73296Y-146711D01*
X75209Y-147224D01*
X77190D01*
X79104Y-146711D01*
X80820Y-145721D01*
X82221Y-144320D01*
X83211Y-142604D01*
X83724Y-140690D01*
Y-138709D01*
X83211Y-136796D01*
X82221Y-135080D01*
X80820Y-133679D01*
X79104Y-132689D01*
X77190Y-132176D01*
D02*
G37*
G36*
X-75209D02*
X-77190D01*
X-79104Y-132689D01*
X-80820Y-133679D01*
X-82221Y-135080D01*
X-83211Y-136796D01*
X-83724Y-138709D01*
Y-140690D01*
X-83211Y-142604D01*
X-82221Y-144320D01*
X-80820Y-145721D01*
X-79104Y-146711D01*
X-77190Y-147224D01*
X-75209D01*
X-73296Y-146711D01*
X-71580Y-145721D01*
X-70179Y-144320D01*
X-69189Y-142604D01*
X-68676Y-140690D01*
Y-138709D01*
X-69189Y-136796D01*
X-70179Y-135080D01*
X-71580Y-133679D01*
X-73296Y-132689D01*
X-75209Y-132176D01*
D02*
G37*
G36*
X77190Y-157576D02*
X75209D01*
X73296Y-158089D01*
X71580Y-159079D01*
X70179Y-160480D01*
X69189Y-162196D01*
X68676Y-164109D01*
Y-166091D01*
X69189Y-168004D01*
X70179Y-169720D01*
X71580Y-171121D01*
X73296Y-172111D01*
X75209Y-172624D01*
X77190D01*
X79104Y-172111D01*
X80820Y-171121D01*
X82221Y-169720D01*
X83211Y-168004D01*
X83724Y-166091D01*
Y-164109D01*
X83211Y-162196D01*
X82221Y-160480D01*
X80820Y-159079D01*
X79104Y-158089D01*
X77190Y-157576D01*
D02*
G37*
G36*
X-75209D02*
X-77190D01*
X-79104Y-158089D01*
X-80820Y-159079D01*
X-82221Y-160480D01*
X-83211Y-162196D01*
X-83724Y-164109D01*
Y-166091D01*
X-83211Y-168004D01*
X-82221Y-169720D01*
X-80820Y-171121D01*
X-79104Y-172111D01*
X-77190Y-172624D01*
X-75209D01*
X-73296Y-172111D01*
X-71580Y-171121D01*
X-70179Y-169720D01*
X-69189Y-168004D01*
X-68676Y-166091D01*
Y-164109D01*
X-69189Y-162196D01*
X-70179Y-160480D01*
X-71580Y-159079D01*
X-73296Y-158089D01*
X-75209Y-157576D01*
D02*
G37*
G36*
X77190Y-182976D02*
X75209D01*
X73296Y-183489D01*
X71580Y-184479D01*
X70179Y-185880D01*
X69189Y-187596D01*
X68676Y-189510D01*
Y-191490D01*
X69189Y-193404D01*
X70179Y-195120D01*
X71580Y-196521D01*
X73296Y-197511D01*
X75209Y-198024D01*
X77190D01*
X79104Y-197511D01*
X80820Y-196521D01*
X82221Y-195120D01*
X83211Y-193404D01*
X83724Y-191490D01*
Y-189510D01*
X83211Y-187596D01*
X82221Y-185880D01*
X80820Y-184479D01*
X79104Y-183489D01*
X77190Y-182976D01*
D02*
G37*
G36*
X-75209D02*
X-77190D01*
X-79104Y-183489D01*
X-80820Y-184479D01*
X-82221Y-185880D01*
X-83211Y-187596D01*
X-83724Y-189510D01*
Y-191490D01*
X-83211Y-193404D01*
X-82221Y-195120D01*
X-80820Y-196521D01*
X-79104Y-197511D01*
X-77190Y-198024D01*
X-75209D01*
X-73296Y-197511D01*
X-71580Y-196521D01*
X-70179Y-195120D01*
X-69189Y-193404D01*
X-68676Y-191490D01*
Y-189510D01*
X-69189Y-187596D01*
X-70179Y-185880D01*
X-71580Y-184479D01*
X-73296Y-183489D01*
X-75209Y-182976D01*
D02*
G37*
G36*
X-60391Y-212432D02*
X-62109D01*
X-63696Y-213089D01*
X-64911Y-214304D01*
X-65568Y-215891D01*
Y-217609D01*
X-64911Y-219196D01*
X-63696Y-220411D01*
X-62109Y-221068D01*
X-60391D01*
X-58804Y-220411D01*
X-57589Y-219196D01*
X-56932Y-217609D01*
Y-215891D01*
X-57589Y-214304D01*
X-58804Y-213089D01*
X-60391Y-212432D01*
D02*
G37*
G36*
X77190Y-208376D02*
X75209D01*
X73296Y-208889D01*
X71580Y-209879D01*
X70179Y-211280D01*
X69189Y-212996D01*
X68676Y-214909D01*
Y-216891D01*
X69189Y-218804D01*
X70179Y-220520D01*
X71580Y-221921D01*
X73296Y-222911D01*
X75209Y-223424D01*
X77190D01*
X79104Y-222911D01*
X80820Y-221921D01*
X82221Y-220520D01*
X83211Y-218804D01*
X83724Y-216891D01*
Y-214909D01*
X83211Y-212996D01*
X82221Y-211280D01*
X80820Y-209879D01*
X79104Y-208889D01*
X77190Y-208376D01*
D02*
G37*
G36*
X-75209D02*
X-77190D01*
X-79104Y-208889D01*
X-80820Y-209879D01*
X-82221Y-211280D01*
X-83211Y-212996D01*
X-83724Y-214909D01*
Y-216891D01*
X-83211Y-218804D01*
X-82221Y-220520D01*
X-80820Y-221921D01*
X-79104Y-222911D01*
X-77190Y-223424D01*
X-75209D01*
X-73296Y-222911D01*
X-71580Y-221921D01*
X-70179Y-220520D01*
X-69189Y-218804D01*
X-68676Y-216891D01*
Y-214909D01*
X-69189Y-212996D01*
X-70179Y-211280D01*
X-71580Y-209879D01*
X-73296Y-208889D01*
X-75209Y-208376D01*
D02*
G37*
G36*
Y-233776D02*
X-77190D01*
X-79104Y-234289D01*
X-80820Y-235279D01*
X-82221Y-236680D01*
X-83211Y-238396D01*
X-83724Y-240310D01*
Y-242290D01*
X-83211Y-244204D01*
X-82221Y-245920D01*
X-80820Y-247321D01*
X-79104Y-248311D01*
X-77190Y-248824D01*
X-75209D01*
X-73296Y-248311D01*
X-71580Y-247321D01*
X-70179Y-245920D01*
X-69189Y-244204D01*
X-68676Y-242290D01*
Y-240310D01*
X-69189Y-238396D01*
X-70179Y-236680D01*
X-71580Y-235279D01*
X-73296Y-234289D01*
X-75209Y-233776D01*
D02*
G37*
%LPD*%
D36*
X43250Y243380D02*
D03*
X-43250D02*
D03*
D37*
X43250Y209580D02*
D03*
X-43250D02*
D03*
D38*
X29750Y199780D02*
D03*
X21250D02*
D03*
X12750D02*
D03*
X4250D02*
D03*
X-4250D02*
D03*
X-12750D02*
D03*
X-21250D02*
D03*
X-29750D02*
D03*
Y213280D02*
D03*
X-21250D02*
D03*
X-12750D02*
D03*
X-4250D02*
D03*
X4250D02*
D03*
X12750D02*
D03*
X21250D02*
D03*
X29750D02*
D03*
D43*
X-76200Y241300D02*
D03*
Y215900D02*
D03*
Y190500D02*
D03*
Y165100D02*
D03*
Y139700D02*
D03*
Y114300D02*
D03*
Y88900D02*
D03*
Y63500D02*
D03*
Y38100D02*
D03*
Y12700D02*
D03*
Y-12700D02*
D03*
Y-38100D02*
D03*
Y-63500D02*
D03*
Y-88900D02*
D03*
Y-114300D02*
D03*
Y-139700D02*
D03*
Y-165100D02*
D03*
Y-190500D02*
D03*
Y-215900D02*
D03*
Y-241300D02*
D03*
X76200D02*
D03*
Y-215900D02*
D03*
Y-190500D02*
D03*
Y-165100D02*
D03*
Y-139700D02*
D03*
Y-114300D02*
D03*
Y-88900D02*
D03*
Y-63500D02*
D03*
Y-38100D02*
D03*
Y-12700D02*
D03*
Y12700D02*
D03*
Y38100D02*
D03*
Y63500D02*
D03*
Y88900D02*
D03*
Y114300D02*
D03*
Y139700D02*
D03*
Y165100D02*
D03*
Y190500D02*
D03*
Y215900D02*
D03*
Y241300D02*
D03*
D44*
X69500Y51000D02*
D03*
X46750Y-10250D02*
D03*
X-61250Y-216750D02*
D03*
X0Y-231250D02*
D03*
X4000Y105080D02*
D03*
Y97968D02*
D03*
X12750Y-2000D02*
D03*
X25750D02*
D03*
X-23500Y-19750D02*
D03*
X-10000Y-21000D02*
D03*
X-33250Y-62000D02*
D03*
X62957Y19773D02*
D03*
X49750Y11000D02*
D03*
X45500Y39000D02*
D03*
X57000Y46500D02*
D03*
X27000Y-61250D02*
D03*
X42000Y-88250D02*
D03*
Y-112250D02*
D03*
X52000Y151000D02*
D03*
X-53750Y141000D02*
D03*
X33000Y230250D02*
D03*
X-3000Y101532D02*
D03*
X-45000Y126000D02*
D03*
X-21000Y-213000D02*
D03*
X-33000Y-153000D02*
D03*
X-35000Y-213000D02*
D03*
Y-174000D02*
D03*
X17000Y-142000D02*
D03*
X-37000Y-129500D02*
D03*
X9000Y-157500D02*
D03*
X60000Y132000D02*
D03*
X-3500Y151000D02*
D03*
X10000Y176000D02*
D03*
X-49000Y47000D02*
D03*
X-23000Y56000D02*
D03*
X-15000Y-121000D02*
D03*
X-55000Y247000D02*
D03*
X55000D02*
D03*
X-53000Y69000D02*
D03*
X48000Y85000D02*
D03*
X-30000Y241000D02*
D03*
X-16000Y44000D02*
D03*
X-25000Y17000D02*
D03*
X-23000Y47000D02*
D03*
X-25000Y25000D02*
D03*
X-10112Y66000D02*
D03*
X4112D02*
D03*
X-3000D02*
D03*
X-10000Y21000D02*
D03*
X3000D02*
D03*
X10000Y24000D02*
D03*
X24000Y47000D02*
D03*
X22000Y66000D02*
D03*
X26071Y24000D02*
D03*
X18000D02*
D03*
X-63000Y-22000D02*
D03*
X-54000D02*
D03*
X27000Y-53000D02*
D03*
Y-72000D02*
D03*
X2000Y-62000D02*
D03*
Y-53000D02*
D03*
X25000Y-24000D02*
D03*
X16000D02*
D03*
X55000Y-27000D02*
D03*
D45*
X54818Y79693D02*
Y111540D01*
X38682Y31710D02*
Y63557D01*
X53182Y142540D02*
X58818Y148176D01*
X53182Y113176D02*
X54818Y111540D01*
X58818Y223918D02*
X76200Y241300D01*
X58818Y148176D02*
Y223918D01*
X38682Y63557D02*
X54818Y79693D01*
X61818Y-130182D02*
Y8574D01*
X53182Y113176D02*
Y142540D01*
X38682Y31710D02*
X61818Y8574D01*
X-21000Y-213000D02*
X61818Y-130182D01*
D46*
X-46682Y-119818D02*
Y-18969D01*
X-76200Y215900D02*
X-61068Y200768D01*
Y-4583D02*
Y200768D01*
Y-4583D02*
X-46682Y-18969D01*
Y-119818D02*
X-37000Y-129500D01*
D47*
X-76200Y241300D02*
X-63130Y228230D01*
X-32679D01*
X-21250Y216801D01*
X21250Y213280D02*
Y216801D01*
Y199780D02*
Y213280D01*
X21043Y217008D02*
X21250Y216801D01*
X21043Y217008D02*
Y219163D01*
X15416Y224790D02*
X21043Y219163D01*
X-13261Y224790D02*
X15416D01*
X-21250Y216801D02*
X-13261Y224790D01*
X-21250Y199780D02*
Y213280D01*
M02*
