G04*
G04 #@! TF.GenerationSoftware,Altium Limited,Altium Designer,25.5.2 (35)*
G04*
G04 Layer_Color=8388736*
%FSLAX44Y44*%
%MOMM*%
G71*
G04*
G04 #@! TF.SameCoordinates,031FDC87-80B5-42A0-ABBE-4A2DC663B68C*
G04*
G04*
G04 #@! TF.FilePolarity,Negative*
G04*
G01*
G75*
%ADD25O,1.1000X1.6000*%
G04:AMPARAMS|DCode=26|XSize=0.7mm|YSize=0.75mm|CornerRadius=0.1438mm|HoleSize=0mm|Usage=FLASHONLY|Rotation=90.000|XOffset=0mm|YOffset=0mm|HoleType=Round|Shape=RoundedRectangle|*
%AMROUNDEDRECTD26*
21,1,0.7000,0.4625,0,0,90.0*
21,1,0.4125,0.7500,0,0,90.0*
1,1,0.2875,0.2313,0.2063*
1,1,0.2875,0.2313,-0.2063*
1,1,0.2875,-0.2313,-0.2063*
1,1,0.2875,-0.2313,0.2063*
%
%ADD26ROUNDEDRECTD26*%
G04:AMPARAMS|DCode=27|XSize=0.7mm|YSize=0.75mm|CornerRadius=0.1438mm|HoleSize=0mm|Usage=FLASHONLY|Rotation=0.000|XOffset=0mm|YOffset=0mm|HoleType=Round|Shape=RoundedRectangle|*
%AMROUNDEDRECTD27*
21,1,0.7000,0.4625,0,0,0.0*
21,1,0.4125,0.7500,0,0,0.0*
1,1,0.2875,0.2063,-0.2313*
1,1,0.2875,-0.2063,-0.2313*
1,1,0.2875,-0.2063,0.2313*
1,1,0.2875,0.2063,0.2313*
%
%ADD27ROUNDEDRECTD27*%
G04:AMPARAMS|DCode=28|XSize=0.3mm|YSize=0.94mm|CornerRadius=0.1mm|HoleSize=0mm|Usage=FLASHONLY|Rotation=0.000|XOffset=0mm|YOffset=0mm|HoleType=Round|Shape=RoundedRectangle|*
%AMROUNDEDRECTD28*
21,1,0.3000,0.7400,0,0,0.0*
21,1,0.1000,0.9400,0,0,0.0*
1,1,0.2000,0.0500,-0.3700*
1,1,0.2000,-0.0500,-0.3700*
1,1,0.2000,-0.0500,0.3700*
1,1,0.2000,0.0500,0.3700*
%
%ADD28ROUNDEDRECTD28*%
G04:AMPARAMS|DCode=29|XSize=0.94mm|YSize=0.3mm|CornerRadius=0.1mm|HoleSize=0mm|Usage=FLASHONLY|Rotation=0.000|XOffset=0mm|YOffset=0mm|HoleType=Round|Shape=RoundedRectangle|*
%AMROUNDEDRECTD29*
21,1,0.9400,0.1000,0,0,0.0*
21,1,0.7400,0.3000,0,0,0.0*
1,1,0.2000,0.3700,-0.0500*
1,1,0.2000,-0.3700,-0.0500*
1,1,0.2000,-0.3700,0.0500*
1,1,0.2000,0.3700,0.0500*
%
%ADD29ROUNDEDRECTD29*%
G04:AMPARAMS|DCode=30|XSize=3.2mm|YSize=3.2mm|CornerRadius=0.1mm|HoleSize=0mm|Usage=FLASHONLY|Rotation=0.000|XOffset=0mm|YOffset=0mm|HoleType=Round|Shape=RoundedRectangle|*
%AMROUNDEDRECTD30*
21,1,3.2000,3.0000,0,0,0.0*
21,1,3.0000,3.2000,0,0,0.0*
1,1,0.2000,1.5000,-1.5000*
1,1,0.2000,-1.5000,-1.5000*
1,1,0.2000,-1.5000,1.5000*
1,1,0.2000,1.5000,1.5000*
%
%ADD30ROUNDEDRECTD30*%
G04:AMPARAMS|DCode=31|XSize=0.9mm|YSize=0.9mm|CornerRadius=0.1mm|HoleSize=0mm|Usage=FLASHONLY|Rotation=90.000|XOffset=0mm|YOffset=0mm|HoleType=Round|Shape=RoundedRectangle|*
%AMROUNDEDRECTD31*
21,1,0.9000,0.7000,0,0,90.0*
21,1,0.7000,0.9000,0,0,90.0*
1,1,0.2000,0.3500,0.3500*
1,1,0.2000,0.3500,-0.3500*
1,1,0.2000,-0.3500,-0.3500*
1,1,0.2000,-0.3500,0.3500*
%
%ADD31ROUNDEDRECTD31*%
G04:AMPARAMS|DCode=32|XSize=1.15mm|YSize=1.4mm|CornerRadius=0.1mm|HoleSize=0mm|Usage=FLASHONLY|Rotation=90.000|XOffset=0mm|YOffset=0mm|HoleType=Round|Shape=RoundedRectangle|*
%AMROUNDEDRECTD32*
21,1,1.1500,1.2000,0,0,90.0*
21,1,0.9500,1.4000,0,0,90.0*
1,1,0.2000,0.6000,0.4750*
1,1,0.2000,0.6000,-0.4750*
1,1,0.2000,-0.6000,-0.4750*
1,1,0.2000,-0.6000,0.4750*
%
%ADD32ROUNDEDRECTD32*%
G04:AMPARAMS|DCode=33|XSize=1.3mm|YSize=1.2mm|CornerRadius=0.2063mm|HoleSize=0mm|Usage=FLASHONLY|Rotation=270.000|XOffset=0mm|YOffset=0mm|HoleType=Round|Shape=RoundedRectangle|*
%AMROUNDEDRECTD33*
21,1,1.3000,0.7875,0,0,270.0*
21,1,0.8875,1.2000,0,0,270.0*
1,1,0.4125,-0.3938,-0.4438*
1,1,0.4125,-0.3938,0.4438*
1,1,0.4125,0.3938,0.4438*
1,1,0.4125,0.3938,-0.4438*
%
%ADD33ROUNDEDRECTD33*%
%ADD34R,1.2000X1.3000*%
%ADD35C,1.1000*%
G04:AMPARAMS|DCode=36|XSize=0.9mm|YSize=1.7mm|CornerRadius=0.45mm|HoleSize=0mm|Usage=FLASHONLY|Rotation=180.000|XOffset=0mm|YOffset=0mm|HoleType=Round|Shape=RoundedRectangle|*
%AMROUNDEDRECTD36*
21,1,0.9000,0.8000,0,0,180.0*
21,1,0.0000,1.7000,0,0,180.0*
1,1,0.9000,0.0000,0.4000*
1,1,0.9000,0.0000,0.4000*
1,1,0.9000,0.0000,-0.4000*
1,1,0.9000,0.0000,-0.4000*
%
%ADD36ROUNDEDRECTD36*%
G04:AMPARAMS|DCode=37|XSize=0.9mm|YSize=2.4mm|CornerRadius=0.45mm|HoleSize=0mm|Usage=FLASHONLY|Rotation=180.000|XOffset=0mm|YOffset=0mm|HoleType=Round|Shape=RoundedRectangle|*
%AMROUNDEDRECTD37*
21,1,0.9000,1.5000,0,0,180.0*
21,1,0.0000,2.4000,0,0,180.0*
1,1,0.9000,0.0000,0.7500*
1,1,0.9000,0.0000,0.7500*
1,1,0.9000,0.0000,-0.7500*
1,1,0.9000,0.0000,-0.7500*
%
%ADD37ROUNDEDRECTD37*%
%ADD38C,0.6500*%
D25*
X20000Y-242750D02*
D03*
X0Y-242750D02*
D03*
X-20000Y-242750D02*
D03*
D26*
X-41000Y56500D02*
D03*
Y47500D02*
D03*
X3000Y56500D02*
D03*
Y47500D02*
D03*
X9000Y-61500D02*
D03*
Y-52500D02*
D03*
X-6000D02*
D03*
Y-61500D02*
D03*
X-31000Y47500D02*
D03*
Y56500D02*
D03*
X-8000D02*
D03*
Y47500D02*
D03*
X19000Y-61500D02*
D03*
Y-52500D02*
D03*
X6000Y74500D02*
D03*
Y83500D02*
D03*
X18000Y74500D02*
D03*
Y83500D02*
D03*
D27*
X31500Y57000D02*
D03*
X22500D02*
D03*
X31500Y47000D02*
D03*
X40500D02*
D03*
X18500Y-72000D02*
D03*
X9500D02*
D03*
X-24500Y-61000D02*
D03*
X-15500D02*
D03*
D28*
X-26000Y-34350D02*
D03*
X-22000D02*
D03*
X-18000D02*
D03*
X-14000D02*
D03*
X-10000D02*
D03*
X-6000D02*
D03*
X-2000D02*
D03*
X2000D02*
D03*
X6000D02*
D03*
X10000D02*
D03*
X14000D02*
D03*
X18000D02*
D03*
X22000D02*
D03*
X26000D02*
D03*
Y34350D02*
D03*
X22000D02*
D03*
X18000D02*
D03*
X14000D02*
D03*
X10000D02*
D03*
X6000D02*
D03*
X2000D02*
D03*
X-2000D02*
D03*
X-6000D02*
D03*
X-10000D02*
D03*
X-14000D02*
D03*
X-18000D02*
D03*
X-22000D02*
D03*
X-26000D02*
D03*
D29*
X-34350Y26000D02*
D03*
Y22000D02*
D03*
Y18000D02*
D03*
Y14000D02*
D03*
Y10000D02*
D03*
Y6000D02*
D03*
Y2000D02*
D03*
Y-2000D02*
D03*
Y-6000D02*
D03*
Y-10000D02*
D03*
Y-14000D02*
D03*
Y-18000D02*
D03*
Y-22000D02*
D03*
Y-26000D02*
D03*
X34350D02*
D03*
Y-22000D02*
D03*
Y-18000D02*
D03*
Y-14000D02*
D03*
Y-10000D02*
D03*
Y-6000D02*
D03*
Y-2000D02*
D03*
Y2000D02*
D03*
Y6000D02*
D03*
Y10000D02*
D03*
Y14000D02*
D03*
Y18000D02*
D03*
Y22000D02*
D03*
Y26000D02*
D03*
D30*
X0Y0D02*
D03*
D31*
X-1Y163501D02*
D03*
X-1Y178501D02*
D03*
D32*
X-5500Y-74250D02*
D03*
X-28500D02*
D03*
X-28500Y-91750D02*
D03*
X-5500D02*
D03*
D33*
X38230Y140730D02*
D03*
X22730D02*
D03*
X38230Y174230D02*
D03*
X-22730Y140730D02*
D03*
X-38230D02*
D03*
X-22730Y174230D02*
D03*
D34*
X22730D02*
D03*
X-38230D02*
D03*
D35*
X-76200Y241300D02*
D03*
Y215900D02*
D03*
Y190500D02*
D03*
Y165100D02*
D03*
Y139700D02*
D03*
Y114300D02*
D03*
Y88900D02*
D03*
Y63500D02*
D03*
Y38100D02*
D03*
Y12700D02*
D03*
Y-12700D02*
D03*
Y-38100D02*
D03*
Y-63500D02*
D03*
Y-88900D02*
D03*
Y-114300D02*
D03*
Y-139700D02*
D03*
Y-165100D02*
D03*
Y-190500D02*
D03*
Y-215900D02*
D03*
Y-241300D02*
D03*
X76200D02*
D03*
Y-215900D02*
D03*
Y-190500D02*
D03*
Y-165100D02*
D03*
Y-139700D02*
D03*
Y-114300D02*
D03*
Y-88900D02*
D03*
Y-63500D02*
D03*
Y-38100D02*
D03*
Y-12700D02*
D03*
Y12700D02*
D03*
Y38100D02*
D03*
Y63500D02*
D03*
Y88900D02*
D03*
Y114300D02*
D03*
Y139700D02*
D03*
Y165100D02*
D03*
Y190500D02*
D03*
Y215900D02*
D03*
Y241300D02*
D03*
D36*
X43250Y243380D02*
D03*
X-43250D02*
D03*
D37*
X43250Y209580D02*
D03*
X-43250D02*
D03*
D38*
X29750Y199780D02*
D03*
X21250D02*
D03*
X12750D02*
D03*
X4250D02*
D03*
X-4250D02*
D03*
X-12750D02*
D03*
X-21250D02*
D03*
X-29750D02*
D03*
Y213280D02*
D03*
X-21250D02*
D03*
X-12750D02*
D03*
X-4250D02*
D03*
X4250D02*
D03*
X12750D02*
D03*
X21250D02*
D03*
X29750D02*
D03*
M02*
