M48
;Layer_Color=9474304
;FILE_FORMAT=4:4
METRIC,LZ
;TYPE=PLATED
T01F00S00C0.2540
T02F00S00C0.4000
T04F00S00C0.8000
%
T01
X00009Y-001575
X00017Y-00142
X-00033Y-00153
X-00035Y-00174
Y-00213
X-00021
X0Y-0023125
X-0006125Y-0021675
X-00037Y-001295
X-00015Y-00121
X00002Y-00062
Y-00053
X-0001Y-00021
X-000235Y-0001975
X-00054Y-00022
X-00063
X-0003325Y-00062
X-00025Y00017
Y00025
X-0001Y00021
X00003
X-00016Y00044
X-00023Y00047
Y00056
X-00010112Y00066
X-00003
X00004112
X00004Y00097968
Y0010508
X-00003Y00101532
X-000035Y00151
X-0005375Y00141
X-00045Y00126
X-00053Y00069
X-00049Y00047
X-00055Y00247
X-0003Y00241
X00033Y0023025
X00055Y00247
X00052Y00151
X0006Y00132
X00048Y00085
X00022Y00066
X00024Y00047
X00026071Y00024
X00018
X0001
X0001275Y-00002
X0002575
X00025Y-00024
X00016
X00027Y-00053
Y-0006125
Y-00072
X00042Y-0008825
Y-0011225
X00055Y-00027
X0004675Y-0001025
X0004975Y00011
X00062957Y00019773
X00057Y000465
X000695Y00051
X000455Y00039
X0001Y00176
T02
X-0002975Y0019978
X-0002125
X-0001275
X-0000425
X0000425
Y0021328
X-0000425
X-0001275
X-0002125
X-0002975
X0001275
X0002125
X0002975
Y0019978
X0002125
X0001275
T04
X000762Y-002413
Y-002159
Y-001905
Y-001651
Y-001397
X-000762
Y-001651
Y-001905
Y-002159
Y-002413
Y-001143
Y-000889
Y-000635
Y-000381
Y-000127
Y000127
Y000381
Y000635
Y000889
Y001143
Y001397
Y001651
Y001905
Y002159
Y002413
X000762
Y002159
Y001905
Y001651
Y001397
Y001143
Y000889
Y000635
Y000381
Y000127
Y-000127
Y-000381
Y-000635
Y-000889
Y-001143
M30
