G04*
G04 #@! TF.GenerationSoftware,Altium Limited,Altium Designer,25.5.2 (35)*
G04*
G04 Layer_Color=16711935*
%FSLAX44Y44*%
%MOMM*%
G71*
G04*
G04 #@! TF.SameCoordinates,031FDC87-80B5-42A0-ABBE-4A2DC663B68C*
G04*
G04*
G04 #@! TF.FilePolarity,Positive*
G04*
G01*
G75*
%ADD13C,0.1000*%
%ADD66C,0.0500*%
%ADD67C,0.1270*%
G36*
X4000Y174499D02*
X-4000D01*
Y179000D01*
X4000D01*
Y174499D01*
D02*
G37*
G36*
X-32980Y168480D02*
X-43480D01*
Y179980D01*
X-32980D01*
Y168480D01*
D02*
G37*
G36*
X27980D02*
X17480D01*
Y179980D01*
X27980D01*
Y168480D01*
D02*
G37*
%LPC*%
G36*
X1594Y178187D02*
D01*
X-354Y176919D01*
X-1594Y178125D01*
Y177258D01*
X-178Y175955D01*
X-1594D01*
Y175313D01*
X1594D01*
Y178187D01*
D02*
G37*
%LPD*%
G36*
Y175955D02*
X634D01*
X99Y176474D01*
X1594Y177354D01*
Y175955D01*
D02*
G37*
%LPC*%
G36*
X-35626Y175735D02*
D01*
Y174216D01*
X-35633Y174244D01*
Y174313D01*
X-35640Y174327D01*
Y174334D01*
X-35654Y174376D01*
X-35661Y174389D01*
Y174396D01*
X-35668Y174424D01*
X-35675Y174431D01*
X-36437Y175624D01*
X-36472Y175665D01*
X-36486Y175672D01*
X-36493Y175679D01*
X-36528Y175707D01*
X-36542Y175714D01*
X-36548D01*
X-36569Y175721D01*
X-36597Y175728D01*
X-36618Y175735D01*
X-35626D01*
X-40834D01*
X-36805D01*
X-36853Y175728D01*
X-36881D01*
X-36895D01*
X-36930Y175721D01*
X-36957Y175707D01*
X-36971Y175700D01*
X-36978Y175693D01*
X-36992Y175672D01*
X-36999Y175644D01*
Y175617D01*
X-36985Y175575D01*
X-36964Y175534D01*
X-36951Y175506D01*
X-36944Y175492D01*
X-36347Y174494D01*
X-40279D01*
Y175596D01*
X-40286Y175610D01*
X-40293Y175624D01*
X-40300Y175631D01*
X-40335Y175665D01*
X-40348Y175672D01*
X-40355Y175679D01*
X-40383Y175686D01*
X-40411Y175700D01*
X-40438Y175707D01*
X-40445D01*
X-40487Y175714D01*
X-40522D01*
X-40549D01*
X-40563D01*
X-40619D01*
X-40660Y175707D01*
X-40688D01*
X-40695D01*
X-40730Y175693D01*
X-40757Y175686D01*
X-40771Y175672D01*
X-40778D01*
X-40806Y175644D01*
X-40820Y175631D01*
X-40834Y175589D01*
Y172871D01*
X-40827Y172836D01*
X-40820Y172822D01*
X-40792Y172788D01*
X-40785Y172774D01*
X-40778D01*
X-40723Y172746D01*
X-40702Y172739D01*
X-40695D01*
X-40654Y172732D01*
X-40605Y172725D01*
X-40515D01*
X-40480Y172732D01*
X-40452Y172739D01*
X-40445D01*
X-40411Y172746D01*
X-40376Y172753D01*
X-40362Y172760D01*
X-40355Y172767D01*
X-40314Y172801D01*
X-40307Y172808D01*
X-40300Y172815D01*
X-40286Y172836D01*
X-40279Y172850D01*
Y173807D01*
X-35744D01*
X-35709Y173814D01*
X-35696Y173821D01*
X-35682Y173835D01*
X-35668Y173849D01*
X-35661Y173862D01*
Y173869D01*
X-35654Y173897D01*
X-35647Y173932D01*
X-35640Y173960D01*
Y173973D01*
X-35633Y174022D01*
X-35626Y174077D01*
Y172725D01*
D01*
Y175735D01*
D02*
G37*
G36*
X25334D02*
D01*
Y174216D01*
X25327Y174244D01*
Y174313D01*
X25320Y174327D01*
Y174334D01*
X25306Y174376D01*
X25299Y174389D01*
Y174396D01*
X25292Y174424D01*
X25285Y174431D01*
X24523Y175624D01*
X24488Y175665D01*
X24474Y175672D01*
X24467Y175679D01*
X24432Y175707D01*
X24418Y175714D01*
X24412D01*
X24391Y175721D01*
X24363Y175728D01*
X24342Y175735D01*
X25334D01*
X20126D01*
X24155D01*
X24107Y175728D01*
X24079D01*
X24065D01*
X24030Y175721D01*
X24002Y175707D01*
X23989Y175700D01*
X23982Y175693D01*
X23968Y175672D01*
X23961Y175644D01*
Y175617D01*
X23975Y175575D01*
X23995Y175534D01*
X24009Y175506D01*
X24016Y175492D01*
X24613Y174494D01*
X20681D01*
Y175596D01*
X20674Y175610D01*
X20667Y175624D01*
X20660Y175631D01*
X20626Y175665D01*
X20612Y175672D01*
X20605Y175679D01*
X20577Y175686D01*
X20549Y175700D01*
X20522Y175707D01*
X20515D01*
X20473Y175714D01*
X20438D01*
X20411D01*
X20397D01*
X20341D01*
X20300Y175707D01*
X20272D01*
X20265D01*
X20230Y175693D01*
X20203Y175686D01*
X20189Y175672D01*
X20182D01*
X20154Y175644D01*
X20140Y175631D01*
X20126Y175589D01*
Y172871D01*
X20133Y172836D01*
X20140Y172822D01*
X20168Y172788D01*
X20175Y172774D01*
X20182D01*
X20237Y172746D01*
X20258Y172739D01*
X20265D01*
X20306Y172732D01*
X20355Y172725D01*
X20445D01*
X20480Y172732D01*
X20508Y172739D01*
X20515D01*
X20549Y172746D01*
X20584Y172753D01*
X20598Y172760D01*
X20605Y172767D01*
X20646Y172801D01*
X20653Y172808D01*
X20660Y172815D01*
X20674Y172836D01*
X20681Y172850D01*
Y173807D01*
X25216D01*
X25251Y173814D01*
X25264Y173821D01*
X25278Y173835D01*
X25292Y173849D01*
X25299Y173862D01*
Y173869D01*
X25306Y173897D01*
X25313Y173932D01*
X25320Y173960D01*
Y173973D01*
X25327Y174022D01*
X25334Y174077D01*
Y172725D01*
D01*
Y175735D01*
D02*
G37*
%LPD*%
D13*
X-4001Y163001D02*
X3999Y163001D01*
X3999Y179001D01*
X-4001Y179001D02*
X3999Y179001D01*
X-4001Y163001D02*
Y179001D01*
D66*
X-43510Y47001D02*
X-38491D01*
X-43510Y57001D02*
X-38491D01*
Y47001D02*
Y57001D01*
X-43510Y47001D02*
Y57001D01*
X-44000Y53750D02*
X-38000D01*
X-44000Y59250D02*
X-38000D01*
X-44000Y53750D02*
Y59250D01*
X-38000Y53750D02*
Y59250D01*
X-44000Y44750D02*
X-38000D01*
X-44000Y50250D02*
X-38000D01*
X-44000Y44750D02*
Y50250D01*
X-38000Y44750D02*
Y50250D01*
X489Y47001D02*
X5509D01*
X489Y57001D02*
X5509Y57001D01*
Y47001D02*
Y57001D01*
X489Y47001D02*
X489Y57001D01*
X0Y53750D02*
X6000D01*
X0Y59250D02*
X6000Y59250D01*
X0Y53750D02*
X0Y59250D01*
X6000Y53750D02*
X6000Y59250D01*
X-0Y44750D02*
X6000Y44750D01*
X0Y50250D02*
X6000D01*
X-0Y44750D02*
X0Y50250D01*
X6000Y44750D02*
X6000Y50250D01*
X22001Y59511D02*
X22001Y54490D01*
X32001Y54490D02*
Y59510D01*
X22001Y54490D02*
X32001Y54490D01*
X22001Y59511D02*
X32001Y59510D01*
X28750Y54000D02*
Y60000D01*
X34250Y54000D02*
Y60000D01*
X28750Y60000D02*
X34250Y60000D01*
X28750Y54000D02*
X34250Y54000D01*
X19750Y54000D02*
Y60000D01*
X25250Y54000D02*
Y60000D01*
X19750Y60000D02*
X25250Y60000D01*
X19750Y54000D02*
X25250Y54000D01*
X40999Y44489D02*
Y49510D01*
X30999D02*
X30999Y44489D01*
X30999Y49510D02*
X40999D01*
X30999Y44489D02*
X40999D01*
X34250Y44000D02*
Y50000D01*
X28750Y44000D02*
X28750Y50000D01*
X28750Y44000D02*
X34250Y44000D01*
X28750Y50000D02*
X34250D01*
X43250Y44000D02*
X43250Y50000D01*
X37750Y44000D02*
Y50000D01*
Y44000D02*
X43250D01*
X37750Y50000D02*
X43250Y50000D01*
X6490Y-52001D02*
X11510D01*
X6490Y-62001D02*
X11510Y-62001D01*
X6490Y-62001D02*
Y-52001D01*
X11510Y-62001D02*
X11510Y-52001D01*
X6000Y-58750D02*
X12000Y-58750D01*
X6000Y-64250D02*
X12000D01*
X12000Y-58750D01*
X6000Y-64250D02*
Y-58750D01*
X6000Y-49750D02*
X12000Y-49750D01*
X6000Y-55250D02*
X12000Y-55250D01*
X12000Y-49750D01*
X6000Y-55250D02*
X6000Y-49750D01*
X-9000Y-55250D02*
X-9000Y-49750D01*
X-9000Y-58750D02*
X-3000Y-58750D01*
X-9000Y-49750D02*
X-3000D01*
X-9000Y-58750D02*
X-9000Y-64250D01*
X-3491Y-51999D02*
X-3490Y-61999D01*
X-9000Y-64250D02*
X-3000Y-64250D01*
X-8511Y-61999D02*
X-3490Y-61999D01*
X-8511Y-51999D02*
X-3491Y-51999D01*
X-3000Y-49750D02*
X-3000Y-55250D01*
X-8511Y-61999D02*
X-8511Y-51999D01*
X-3000Y-64250D02*
X-3000Y-58750D01*
X-9000Y-55250D02*
X-3000D01*
X9001Y-74510D02*
Y-69489D01*
X19001D02*
X19001Y-74510D01*
X9001D02*
X19001D01*
X9001Y-69489D02*
X19001D01*
X15750Y-75000D02*
Y-69000D01*
X21250Y-75000D02*
X21250Y-69000D01*
X15750Y-69000D02*
X21250Y-69000D01*
X15750Y-75000D02*
X21250Y-75000D01*
X6750Y-75000D02*
X6750Y-69000D01*
X12250Y-75000D02*
Y-69000D01*
X6750Y-69000D02*
X12250Y-69000D01*
X6750Y-75000D02*
X12250Y-75000D01*
X-15001Y-63511D02*
Y-58491D01*
X-25001D02*
X-25001Y-63511D01*
X-25001Y-58491D02*
X-15001D01*
X-25001Y-63511D02*
X-15001D01*
X-21750Y-64000D02*
Y-58000D01*
X-27250Y-64000D02*
X-27250Y-58000D01*
X-27250Y-64000D02*
X-21750Y-64000D01*
X-27250Y-58000D02*
X-21750D01*
X-12750Y-64000D02*
X-12750Y-58000D01*
X-18250Y-64000D02*
Y-58000D01*
Y-64000D02*
X-12750D01*
X-18250Y-58000D02*
X-12750Y-58000D01*
X-28000Y44750D02*
X-28000Y50250D01*
X-34000Y53750D02*
X-28000Y53750D01*
X-34000Y44750D02*
X-28000Y44750D01*
X-28000Y59250D02*
X-28000Y53750D01*
X-33510Y56999D02*
X-33510Y46999D01*
X-34000Y59250D02*
X-28000Y59250D01*
X-33510Y56999D02*
X-28489Y56999D01*
X-33510Y46999D02*
X-28489Y46999D01*
X-34000Y44750D02*
X-34000Y50250D01*
X-28489Y46999D02*
X-28489Y56999D01*
X-34000Y59250D02*
X-34000Y53750D01*
X-34000Y50250D02*
X-28000D01*
X-35000Y-35000D02*
X35000D01*
X-35000D02*
Y35000D01*
X35000Y-35000D02*
Y35000D01*
X-35000D02*
X35000D01*
X-10510Y47001D02*
X-5490D01*
X-10510Y57001D02*
X-5490D01*
Y47001D02*
Y57001D01*
X-10510Y47001D02*
Y57001D01*
X-11000Y53750D02*
X-5000D01*
X-11000Y59250D02*
X-5000D01*
X-11000Y53750D02*
Y59250D01*
X-5000Y53750D02*
Y59250D01*
X-11000Y44750D02*
X-5000D01*
X-11000Y50250D02*
X-5000D01*
X-11000Y44750D02*
Y50250D01*
X-5000Y44750D02*
Y50250D01*
X16490Y-52001D02*
X21511D01*
X16490Y-62001D02*
X21511Y-62001D01*
X16490Y-62001D02*
Y-52001D01*
X21511Y-62001D02*
X21511Y-52001D01*
X16000Y-58750D02*
X22000D01*
X16000Y-64250D02*
X22000Y-64250D01*
X22000Y-58750D01*
X16000Y-64250D02*
X16000Y-58750D01*
X16000Y-49750D02*
X22000Y-49750D01*
X16000Y-55250D02*
X22000D01*
X22000Y-49750D01*
X16000Y-55250D02*
X16000Y-49750D01*
X9000Y71750D02*
X9000Y77250D01*
X3000Y80750D02*
X9000D01*
X3000Y71750D02*
X9000Y71750D01*
Y86250D02*
X9000Y80750D01*
X3490Y83999D02*
X3490Y73999D01*
X3000Y86250D02*
X9000Y86250D01*
X3490Y83999D02*
X8511Y83999D01*
X3490Y73999D02*
X8511Y73999D01*
X3000Y77250D02*
X3000Y71750D01*
X8511Y83999D02*
X8511Y73999D01*
X3000Y80750D02*
X3000Y86250D01*
X3000Y77250D02*
X9000D01*
X21000Y71750D02*
X21000Y77250D01*
X15000Y80750D02*
X21000D01*
X15000Y71750D02*
X21000Y71750D01*
Y86250D02*
X21000Y80750D01*
X15490Y83999D02*
X15490Y73999D01*
X15000Y86250D02*
X21000Y86250D01*
X15490Y83999D02*
X20510Y83999D01*
X15490Y73999D02*
X20511Y73999D01*
X15000Y77250D02*
X15000Y71750D01*
X20510Y83999D02*
X20511Y73999D01*
X15000Y80750D02*
X15000Y86250D01*
X15000Y77250D02*
X21000D01*
X14934Y178980D02*
X46026D01*
X14934Y135980D02*
Y178980D01*
Y135980D02*
X46026D01*
Y178980D01*
X27980Y179980D02*
X27980Y174230D01*
X17480Y179980D02*
X27980D01*
X17480Y168480D02*
X17480Y179980D01*
X17480Y168480D02*
X27980Y168480D01*
Y174230D01*
X43480Y179980D02*
X43480Y174230D01*
X32980Y179980D02*
X43480Y179980D01*
X32980Y179980D02*
X32980Y168480D01*
X43480D01*
Y174230D01*
X43480Y140730D02*
Y146480D01*
X32980Y146480D02*
X43480Y146480D01*
X32980Y146480D02*
X32980Y134980D01*
X43480D01*
X43480Y140730D01*
X27980Y146480D02*
X27980Y140730D01*
X17480Y146480D02*
X27980D01*
X17480D02*
X17480Y134980D01*
X27980Y134980D01*
X27980Y140730D01*
X-46026Y178980D02*
X-14934D01*
X-46026Y135980D02*
Y178980D01*
Y135980D02*
X-14934D01*
Y178980D01*
X-32980Y179980D02*
X-32980Y174230D01*
X-43480Y179980D02*
X-32980D01*
X-43480Y168480D02*
X-43480Y179980D01*
X-43480Y168480D02*
X-32980Y168480D01*
Y174230D01*
X-17480Y179980D02*
X-17480Y174230D01*
X-27980Y179980D02*
X-17480Y179980D01*
X-27980Y179980D02*
X-27980Y168480D01*
X-17480D01*
Y174230D01*
X-17480Y140730D02*
Y146480D01*
X-27980Y146480D02*
X-17480Y146480D01*
X-27980Y146480D02*
X-27980Y134980D01*
X-17480D01*
X-17480Y140730D01*
X-32980Y146480D02*
X-32980Y140730D01*
X-43480Y146480D02*
X-32980D01*
X-43480D02*
X-43480Y134980D01*
X-32980Y134980D01*
X-32980Y140730D01*
X-45750Y192680D02*
Y287380D01*
X45750D01*
Y192680D02*
Y287380D01*
X-48750Y260780D02*
X48750D01*
X-45750Y192680D02*
X45750D01*
D67*
X-33000Y-95500D02*
X-1000Y-95500D01*
Y-70500D01*
X-33000Y-70500D02*
X-1000Y-70500D01*
X-33000Y-95500D02*
Y-70500D01*
M02*
