G04*
G04 #@! TF.GenerationSoftware,Altium Limited,Altium Designer,25.5.2 (35)*
G04*
G04 Layer_Physical_Order=4*
G04 Layer_Color=16711680*
%FSLAX44Y44*%
%MOMM*%
G71*
G04*
G04 #@! TF.SameCoordinates,031FDC87-80B5-42A0-ABBE-4A2DC663B68C*
G04*
G04*
G04 #@! TF.FilePolarity,Positive*
G04*
G01*
G75*
G04:AMPARAMS|DCode=16|XSize=0.55mm|YSize=0.6mm|CornerRadius=0.0688mm|HoleSize=0mm|Usage=FLASHONLY|Rotation=90.000|XOffset=0mm|YOffset=0mm|HoleType=Round|Shape=RoundedRectangle|*
%AMROUNDEDRECTD16*
21,1,0.5500,0.4625,0,0,90.0*
21,1,0.4125,0.6000,0,0,90.0*
1,1,0.1375,0.2313,0.2063*
1,1,0.1375,0.2313,-0.2063*
1,1,0.1375,-0.2313,-0.2063*
1,1,0.1375,-0.2313,0.2063*
%
%ADD16ROUNDEDRECTD16*%
G04:AMPARAMS|DCode=17|XSize=0.55mm|YSize=0.6mm|CornerRadius=0.0688mm|HoleSize=0mm|Usage=FLASHONLY|Rotation=0.000|XOffset=0mm|YOffset=0mm|HoleType=Round|Shape=RoundedRectangle|*
%AMROUNDEDRECTD17*
21,1,0.5500,0.4625,0,0,0.0*
21,1,0.4125,0.6000,0,0,0.0*
1,1,0.1375,0.2063,-0.2313*
1,1,0.1375,-0.2063,-0.2313*
1,1,0.1375,-0.2063,0.2313*
1,1,0.1375,0.2063,0.2313*
%
%ADD17ROUNDEDRECTD17*%
G04:AMPARAMS|DCode=36|XSize=0.9mm|YSize=1.7mm|CornerRadius=0.45mm|HoleSize=0mm|Usage=FLASHONLY|Rotation=180.000|XOffset=0mm|YOffset=0mm|HoleType=Round|Shape=RoundedRectangle|*
%AMROUNDEDRECTD36*
21,1,0.9000,0.8000,0,0,180.0*
21,1,0.0000,1.7000,0,0,180.0*
1,1,0.9000,0.0000,0.4000*
1,1,0.9000,0.0000,0.4000*
1,1,0.9000,0.0000,-0.4000*
1,1,0.9000,0.0000,-0.4000*
%
%ADD36ROUNDEDRECTD36*%
G04:AMPARAMS|DCode=37|XSize=0.9mm|YSize=2.4mm|CornerRadius=0.45mm|HoleSize=0mm|Usage=FLASHONLY|Rotation=180.000|XOffset=0mm|YOffset=0mm|HoleType=Round|Shape=RoundedRectangle|*
%AMROUNDEDRECTD37*
21,1,0.9000,1.5000,0,0,180.0*
21,1,0.0000,2.4000,0,0,180.0*
1,1,0.9000,0.0000,0.7500*
1,1,0.9000,0.0000,0.7500*
1,1,0.9000,0.0000,-0.7500*
1,1,0.9000,0.0000,-0.7500*
%
%ADD37ROUNDEDRECTD37*%
%ADD38C,0.6500*%
%ADD41C,0.1524*%
%ADD43C,1.2000*%
%ADD44C,0.5588*%
%ADD45C,0.5000*%
%ADD46C,0.6000*%
G04:AMPARAMS|DCode=48|XSize=1mm|YSize=0.6mm|CornerRadius=0.075mm|HoleSize=0mm|Usage=FLASHONLY|Rotation=180.000|XOffset=0mm|YOffset=0mm|HoleType=Round|Shape=RoundedRectangle|*
%AMROUNDEDRECTD48*
21,1,1.0000,0.4500,0,0,180.0*
21,1,0.8500,0.6000,0,0,180.0*
1,1,0.1500,-0.4250,0.2250*
1,1,0.1500,0.4250,0.2250*
1,1,0.1500,0.4250,-0.2250*
1,1,0.1500,-0.4250,-0.2250*
%
%ADD48ROUNDEDRECTD48*%
G04:AMPARAMS|DCode=49|XSize=0.85mm|YSize=0.7mm|CornerRadius=0.05mm|HoleSize=0mm|Usage=FLASHONLY|Rotation=90.000|XOffset=0mm|YOffset=0mm|HoleType=Round|Shape=RoundedRectangle|*
%AMROUNDEDRECTD49*
21,1,0.8500,0.6000,0,0,90.0*
21,1,0.7500,0.7000,0,0,90.0*
1,1,0.1000,0.3000,0.3750*
1,1,0.1000,0.3000,-0.3750*
1,1,0.1000,-0.3000,-0.3750*
1,1,0.1000,-0.3000,0.3750*
%
%ADD49ROUNDEDRECTD49*%
G04:AMPARAMS|DCode=50|XSize=0.72mm|YSize=0.99mm|CornerRadius=0.09mm|HoleSize=0mm|Usage=FLASHONLY|Rotation=180.000|XOffset=0mm|YOffset=0mm|HoleType=Round|Shape=RoundedRectangle|*
%AMROUNDEDRECTD50*
21,1,0.7200,0.8100,0,0,180.0*
21,1,0.5400,0.9900,0,0,180.0*
1,1,0.1800,-0.2700,0.4050*
1,1,0.1800,0.2700,0.4050*
1,1,0.1800,0.2700,-0.4050*
1,1,0.1800,-0.2700,-0.4050*
%
%ADD50ROUNDEDRECTD50*%
G04:AMPARAMS|DCode=51|XSize=1.05mm|YSize=0.55mm|CornerRadius=0.0688mm|HoleSize=0mm|Usage=FLASHONLY|Rotation=0.000|XOffset=0mm|YOffset=0mm|HoleType=Round|Shape=RoundedRectangle|*
%AMROUNDEDRECTD51*
21,1,1.0500,0.4125,0,0,0.0*
21,1,0.9125,0.5500,0,0,0.0*
1,1,0.1375,0.4563,-0.2063*
1,1,0.1375,-0.4563,-0.2063*
1,1,0.1375,-0.4563,0.2063*
1,1,0.1375,0.4563,0.2063*
%
%ADD51ROUNDEDRECTD51*%
G04:AMPARAMS|DCode=52|XSize=1.2mm|YSize=2.7mm|CornerRadius=0.05mm|HoleSize=0mm|Usage=FLASHONLY|Rotation=180.000|XOffset=0mm|YOffset=0mm|HoleType=Round|Shape=RoundedRectangle|*
%AMROUNDEDRECTD52*
21,1,1.2000,2.6000,0,0,180.0*
21,1,1.1000,2.7000,0,0,180.0*
1,1,0.1000,-0.5500,1.3000*
1,1,0.1000,0.5500,1.3000*
1,1,0.1000,0.5500,-1.3000*
1,1,0.1000,-0.5500,-1.3000*
%
%ADD52ROUNDEDRECTD52*%
G04:AMPARAMS|DCode=53|XSize=0.6mm|YSize=1.45mm|CornerRadius=0.075mm|HoleSize=0mm|Usage=FLASHONLY|Rotation=270.000|XOffset=0mm|YOffset=0mm|HoleType=Round|Shape=RoundedRectangle|*
%AMROUNDEDRECTD53*
21,1,0.6000,1.3000,0,0,270.0*
21,1,0.4500,1.4500,0,0,270.0*
1,1,0.1500,-0.6500,-0.2250*
1,1,0.1500,-0.6500,0.2250*
1,1,0.1500,0.6500,0.2250*
1,1,0.1500,0.6500,-0.2250*
%
%ADD53ROUNDEDRECTD53*%
G04:AMPARAMS|DCode=54|XSize=1.05mm|YSize=1.4mm|CornerRadius=0.05mm|HoleSize=0mm|Usage=FLASHONLY|Rotation=90.000|XOffset=0mm|YOffset=0mm|HoleType=Round|Shape=RoundedRectangle|*
%AMROUNDEDRECTD54*
21,1,1.0500,1.3000,0,0,90.0*
21,1,0.9500,1.4000,0,0,90.0*
1,1,0.1000,0.6500,0.4750*
1,1,0.1000,0.6500,-0.4750*
1,1,0.1000,-0.6500,-0.4750*
1,1,0.1000,-0.6500,0.4750*
%
%ADD54ROUNDEDRECTD54*%
%ADD55C,0.3000*%
G36*
X82550Y252441D02*
X84383Y252077D01*
X85938Y251038D01*
X86977Y249484D01*
X87341Y247650D01*
X87341D01*
Y-247650D01*
X87341D01*
X86977Y-249484D01*
X85938Y-251038D01*
X84383Y-252077D01*
X82550Y-252441D01*
Y-252442D01*
X-82550D01*
Y-252441D01*
X-84383Y-252077D01*
X-85938Y-251038D01*
X-86977Y-249484D01*
X-87341Y-247650D01*
X-87341D01*
Y247650D01*
X-87341D01*
X-86977Y249484D01*
X-85938Y251038D01*
X-84383Y252077D01*
X-82550Y252441D01*
Y252442D01*
X82550D01*
Y252441D01*
D02*
G37*
%LPC*%
G36*
X-11500Y248780D02*
X-16730D01*
Y242200D01*
X-8400D01*
Y245680D01*
X-8636Y246866D01*
X-9308Y247872D01*
X-10314Y248544D01*
X-11500Y248780D01*
D02*
G37*
G36*
X-19270D02*
X-24500D01*
X-25686Y248544D01*
X-26692Y247872D01*
X-27364Y246866D01*
X-27599Y245680D01*
Y242200D01*
X-19270D01*
Y248780D01*
D02*
G37*
G36*
X57312Y242853D02*
X56270D01*
Y238770D01*
X60603D01*
Y239562D01*
X60353Y240822D01*
X59639Y241889D01*
X58572Y242603D01*
X57312Y242853D01*
D02*
G37*
G36*
X-52688D02*
X-53730D01*
Y238770D01*
X-49397D01*
Y239562D01*
X-49647Y240822D01*
X-50361Y241889D01*
X-51428Y242603D01*
X-52688Y242853D01*
D02*
G37*
G36*
X53730D02*
X52688D01*
X51428Y242603D01*
X50361Y241889D01*
X49647Y240822D01*
X49397Y239562D01*
Y238770D01*
X53730D01*
Y242853D01*
D02*
G37*
G36*
X-56270D02*
X-57312D01*
X-58572Y242603D01*
X-59639Y241889D01*
X-60353Y240822D01*
X-60603Y239562D01*
Y238770D01*
X-56270D01*
Y242853D01*
D02*
G37*
G36*
X-75209Y248824D02*
X-77190D01*
X-79104Y248311D01*
X-80820Y247321D01*
X-82221Y245920D01*
X-83211Y244204D01*
X-83724Y242290D01*
Y240310D01*
X-83211Y238396D01*
X-82221Y236680D01*
X-80820Y235279D01*
X-79104Y234289D01*
X-77190Y233776D01*
X-75209D01*
X-73296Y234289D01*
X-71580Y235279D01*
X-70179Y236680D01*
X-69189Y238396D01*
X-68676Y240310D01*
Y242290D01*
X-69189Y244204D01*
X-70179Y245920D01*
X-71580Y247321D01*
X-73296Y248311D01*
X-75209Y248824D01*
D02*
G37*
G36*
X77190D02*
X75209D01*
X73296Y248311D01*
X71580Y247321D01*
X70179Y245920D01*
X69189Y244204D01*
X68676Y242290D01*
Y240310D01*
X68830Y239733D01*
X61529Y232431D01*
X60138Y232271D01*
X59592Y232781D01*
X59639Y233111D01*
X60353Y234178D01*
X60603Y235438D01*
Y236230D01*
X55000D01*
X49397D01*
Y235438D01*
X49647Y234178D01*
X50361Y233111D01*
X50470Y232355D01*
X49320Y230831D01*
X44240D01*
X43348Y230653D01*
X42592Y230148D01*
X34227Y221783D01*
X33722Y221027D01*
X33544Y220135D01*
Y211708D01*
X31007Y209171D01*
X26826D01*
X25934Y208993D01*
X25644Y209081D01*
X25106Y210385D01*
X25297Y210576D01*
X26024Y212330D01*
Y214230D01*
X25297Y215984D01*
X23954Y217327D01*
X22200Y218054D01*
X20300D01*
X18546Y217327D01*
X17996Y216777D01*
X17000Y216118D01*
X16004Y216777D01*
X15454Y217327D01*
X13700Y218054D01*
X11800D01*
X10046Y217327D01*
X9496Y216777D01*
X8500Y216118D01*
X7504Y216777D01*
X6954Y217327D01*
X5200Y218054D01*
X3300D01*
X1546Y217327D01*
X996Y216777D01*
X0Y216118D01*
X-996Y216777D01*
X-1546Y217327D01*
X-3300Y218054D01*
X-5200D01*
X-6954Y217327D01*
X-7504Y216777D01*
X-8500Y216118D01*
X-9496Y216777D01*
X-10046Y217327D01*
X-11800Y218054D01*
X-12796D01*
X-12824Y218092D01*
X-12037Y219616D01*
X-11500D01*
X-10710Y219773D01*
X-10041Y220221D01*
X-9593Y220890D01*
X-9436Y221680D01*
Y231180D01*
X-9593Y231970D01*
X-9656Y232063D01*
X-9999Y232717D01*
X-9312Y233986D01*
X-9308Y233988D01*
X-8636Y234994D01*
X-8400Y236180D01*
Y239660D01*
X-18000D01*
X-27599D01*
Y236180D01*
X-27364Y234994D01*
X-26692Y233988D01*
X-26688Y233986D01*
X-26001Y232717D01*
X-26344Y232063D01*
X-26407Y231970D01*
X-26564Y231180D01*
Y225091D01*
X-27972Y224508D01*
X-33612Y230148D01*
X-34368Y230653D01*
X-35260Y230831D01*
X-49320D01*
X-50470Y232355D01*
X-50361Y233111D01*
X-49647Y234178D01*
X-49397Y235438D01*
Y236230D01*
X-55000D01*
X-60603D01*
Y235438D01*
X-60353Y234178D01*
X-59639Y233111D01*
X-59396Y231425D01*
X-59567Y230562D01*
Y226437D01*
X-59396Y225575D01*
X-58907Y224843D01*
X-58175Y224354D01*
X-57312Y224183D01*
X-52688D01*
X-51825Y224354D01*
X-51093Y224843D01*
X-50604Y225575D01*
X-50486Y226169D01*
X-36225D01*
X-27302Y217246D01*
X-26546Y216741D01*
X-26534Y216738D01*
X-25681Y215181D01*
X-25684Y215051D01*
X-26024Y214230D01*
Y212330D01*
X-25297Y210576D01*
X-23954Y209233D01*
X-22200Y208506D01*
X-20300D01*
X-18546Y209233D01*
X-17996Y209783D01*
X-17000Y210442D01*
X-16004Y209783D01*
X-15454Y209233D01*
X-13700Y208506D01*
X-11800D01*
X-10046Y209233D01*
X-9496Y209783D01*
X-8500Y210441D01*
X-7504Y209783D01*
X-6954Y209233D01*
X-5601Y208672D01*
X-5451Y207920D01*
X-4946Y207164D01*
X-3860Y206078D01*
X-4491Y204554D01*
X-5200D01*
X-6954Y203827D01*
X-7504Y203277D01*
X-8500Y202618D01*
X-9496Y203277D01*
X-10046Y203827D01*
X-11800Y204554D01*
X-13700D01*
X-15454Y203827D01*
X-16004Y203277D01*
X-17000Y202618D01*
X-17996Y203277D01*
X-18546Y203827D01*
X-20300Y204554D01*
X-22200D01*
X-23954Y203827D01*
X-25297Y202484D01*
X-26024Y200730D01*
Y198830D01*
X-25863Y198441D01*
Y187699D01*
X-27387Y186535D01*
X-28111Y186639D01*
X-29178Y187353D01*
X-30438Y187603D01*
X-31230D01*
Y182000D01*
Y176397D01*
X-30438D01*
X-29178Y176647D01*
X-28111Y177361D01*
X-27387Y177465D01*
X-25863Y176301D01*
Y174984D01*
X-25512Y173219D01*
X-24512Y171723D01*
X-19825Y167036D01*
X-19227Y166637D01*
X-19689Y165113D01*
X-36589D01*
X-51887Y180411D01*
Y196200D01*
X-52238Y197965D01*
X-53238Y199462D01*
X-68678Y214901D01*
X-68676Y214909D01*
Y216891D01*
X-69189Y218804D01*
X-70179Y220520D01*
X-71580Y221921D01*
X-73296Y222911D01*
X-75209Y223424D01*
X-77190D01*
X-79104Y222911D01*
X-80820Y221921D01*
X-82221Y220520D01*
X-83211Y218804D01*
X-83724Y216891D01*
Y214909D01*
X-83211Y212996D01*
X-82221Y211280D01*
X-80820Y209879D01*
X-79104Y208889D01*
X-77190Y208376D01*
X-75209D01*
X-75201Y208378D01*
X-61113Y194289D01*
Y178500D01*
X-60761Y176735D01*
X-59762Y175238D01*
X-41613Y157089D01*
Y132000D01*
X-41333Y130595D01*
X-42442Y129747D01*
X-42531Y129697D01*
X-42586Y129674D01*
X-44141Y130318D01*
X-45859D01*
X-47446Y129661D01*
X-48661Y128446D01*
X-49318Y126859D01*
Y125141D01*
X-48661Y123554D01*
X-48326Y123219D01*
X-48361Y122662D01*
X-48714Y121453D01*
X-49157Y121157D01*
X-49646Y120425D01*
X-49817Y119563D01*
Y115437D01*
X-49646Y114575D01*
X-49211Y113924D01*
X-49160Y113841D01*
X-49158Y113000D01*
X-49160Y112159D01*
X-49211Y112076D01*
X-49646Y111425D01*
X-49817Y110562D01*
Y109532D01*
X-51341Y108717D01*
X-51419Y108769D01*
Y137292D01*
X-51304Y137339D01*
X-50089Y138554D01*
X-49432Y140141D01*
Y141859D01*
X-50089Y143446D01*
X-51304Y144661D01*
X-52891Y145318D01*
X-54609D01*
X-56196Y144661D01*
X-57411Y143446D01*
X-58068Y141859D01*
Y140141D01*
X-57411Y138554D01*
X-56196Y137339D01*
X-56081Y137292D01*
Y106265D01*
X-55903Y105373D01*
X-55398Y104617D01*
X-50634Y99852D01*
X-49877Y99347D01*
X-48985Y99169D01*
X-28465D01*
X-12600Y83304D01*
X-11844Y82799D01*
X-10952Y82621D01*
X20453D01*
X21345Y82799D01*
X22101Y83304D01*
X25408Y86610D01*
X26932Y85979D01*
Y82800D01*
X27108Y81913D01*
X27611Y81160D01*
X28363Y80658D01*
X29250Y80481D01*
X42250D01*
X43137Y80658D01*
X43889Y81160D01*
X45554Y81339D01*
X47141Y80682D01*
X48859D01*
X49225Y80834D01*
X50749Y79815D01*
Y57755D01*
X50272Y57278D01*
X49767Y56522D01*
X49589Y55630D01*
Y37366D01*
X48065Y36453D01*
X47312Y36603D01*
X46520D01*
Y31000D01*
X43980D01*
Y36603D01*
X43187D01*
X41928Y36353D01*
X40861Y35639D01*
X40355Y35566D01*
X38831Y36829D01*
Y42381D01*
X42250D01*
X43137Y42558D01*
X43889Y43060D01*
X44392Y43813D01*
X44569Y44700D01*
Y49200D01*
X44392Y50087D01*
X43889Y50839D01*
X43137Y51342D01*
X42250Y51519D01*
X29250D01*
X28363Y51342D01*
X27611Y50839D01*
X27108Y50087D01*
X26932Y49200D01*
Y44700D01*
X27108Y43813D01*
X27611Y43060D01*
X28363Y42558D01*
X29250Y42381D01*
X34169D01*
Y35564D01*
X33325Y35396D01*
X32593Y34907D01*
X32104Y34175D01*
X31933Y33312D01*
Y28688D01*
X32104Y27825D01*
X32593Y27093D01*
X33087Y26763D01*
X33128Y26647D01*
X33207Y25740D01*
X33119Y25091D01*
X32843Y24907D01*
X32354Y24175D01*
X32183Y23312D01*
Y19991D01*
X31590Y19603D01*
X30659Y19323D01*
X30175Y19646D01*
X30011Y19678D01*
X29460Y21282D01*
X29732Y21554D01*
X30389Y23141D01*
Y24859D01*
X29732Y26446D01*
X28517Y27661D01*
X26930Y28318D01*
X25213D01*
X23626Y27661D01*
X23031Y27067D01*
X22036Y26616D01*
X21040Y27067D01*
X20446Y27661D01*
X18859Y28318D01*
X17141D01*
X15554Y27661D01*
X14996Y27102D01*
X14000Y26613D01*
X13004Y27102D01*
X12446Y27661D01*
X12331Y27708D01*
Y51035D01*
X18615Y57319D01*
X26948D01*
X27108Y56513D01*
X27611Y55760D01*
X28363Y55258D01*
X29250Y55081D01*
X42250D01*
X43137Y55258D01*
X43889Y55760D01*
X44392Y56513D01*
X44569Y57400D01*
Y61900D01*
X44392Y62787D01*
X43889Y63539D01*
X43137Y64042D01*
X42250Y64219D01*
X29250D01*
X28363Y64042D01*
X27611Y63539D01*
X27386Y63203D01*
X27163Y63199D01*
X26137Y64704D01*
X26318Y65141D01*
Y66859D01*
X26137Y67296D01*
X27163Y68801D01*
X27386Y68797D01*
X27611Y68460D01*
X28363Y67958D01*
X29250Y67781D01*
X42250D01*
X43137Y67958D01*
X43889Y68460D01*
X44392Y69213D01*
X44569Y70100D01*
Y74600D01*
X44392Y75487D01*
X43889Y76239D01*
X43137Y76742D01*
X42250Y76919D01*
X29250D01*
X28363Y76742D01*
X27611Y76239D01*
X27108Y75487D01*
X26948Y74681D01*
X21166D01*
X20274Y74503D01*
X19518Y73998D01*
X1352Y55832D01*
X847Y55076D01*
X669Y54184D01*
Y49650D01*
X-17000D01*
X-18166Y49166D01*
X-19691Y49797D01*
X-20554Y50661D01*
X-20589Y50675D01*
Y52325D01*
X-20554Y52339D01*
X-19339Y53554D01*
X-18682Y55141D01*
Y56859D01*
X-19339Y58446D01*
X-20554Y59661D01*
X-22141Y60318D01*
X-23859D01*
X-25446Y59661D01*
X-26931Y60330D01*
Y61900D01*
X-27108Y62787D01*
X-27610Y63539D01*
X-28363Y64042D01*
X-29250Y64219D01*
X-42250D01*
X-43137Y64042D01*
X-43889Y63539D01*
X-43982Y63401D01*
X-44233Y63399D01*
X-44761Y63785D01*
X-45589Y64914D01*
Y67132D01*
X-44151Y68469D01*
X-43889Y68460D01*
X-43137Y67958D01*
X-42250Y67781D01*
X-29250D01*
X-28363Y67958D01*
X-27610Y68460D01*
X-27108Y69213D01*
X-26931Y70100D01*
Y74600D01*
X-27108Y75487D01*
X-27610Y76239D01*
X-28363Y76742D01*
X-29250Y76919D01*
X-42250D01*
X-43137Y76742D01*
X-43889Y76239D01*
X-44392Y75487D01*
X-44552Y74681D01*
X-45050D01*
X-45942Y74503D01*
X-46698Y73998D01*
X-49568Y71128D01*
X-50073Y70371D01*
X-50251Y69480D01*
Y65356D01*
X-58776Y56831D01*
X-59281Y56074D01*
X-59459Y55182D01*
Y43633D01*
X-59281Y42741D01*
X-58776Y41985D01*
X-32143Y15352D01*
X-31387Y14847D01*
X-30495Y14669D01*
X-28708D01*
X-28661Y14554D01*
X-27446Y13339D01*
X-25859Y12682D01*
X-24141D01*
X-22554Y13339D01*
X-22174Y13720D01*
X-20650Y13089D01*
Y-14607D01*
X-22174Y-15626D01*
X-22641Y-15432D01*
X-24359D01*
X-25946Y-16089D01*
X-27161Y-17304D01*
X-27818Y-18891D01*
Y-20609D01*
X-27770Y-20724D01*
X-31148Y-24102D01*
X-31653Y-24858D01*
X-31831Y-25750D01*
Y-26686D01*
X-32500D01*
X-33290Y-26843D01*
X-33959Y-27291D01*
X-34407Y-27960D01*
X-34564Y-28750D01*
Y-36250D01*
X-34407Y-37040D01*
X-33959Y-37709D01*
X-33290Y-38157D01*
X-32500Y-38314D01*
X-27733D01*
X-24639Y-41407D01*
X-25270Y-42931D01*
X-26000D01*
X-26887Y-43108D01*
X-27639Y-43611D01*
X-28142Y-44363D01*
X-28319Y-45250D01*
Y-49750D01*
X-28142Y-50637D01*
X-27639Y-51389D01*
X-26887Y-51892D01*
X-26000Y-52069D01*
X-17500D01*
X-16613Y-51892D01*
X-15861Y-51389D01*
X-15358Y-50637D01*
X-15181Y-49750D01*
Y-45250D01*
X-15358Y-44363D01*
X-15861Y-43611D01*
X-16613Y-43108D01*
X-17500Y-42931D01*
X-19419D01*
Y-41000D01*
X-19597Y-40108D01*
X-20102Y-39352D01*
X-24436Y-35017D01*
Y-28750D01*
X-24593Y-27960D01*
X-25041Y-27291D01*
X-25370Y-27071D01*
X-25729Y-25771D01*
X-25738Y-25284D01*
X-24474Y-24020D01*
X-24359Y-24068D01*
X-22641D01*
X-22174Y-23874D01*
X-20738Y-23993D01*
X-20378Y-24655D01*
X-20166Y-25167D01*
X1825Y-47158D01*
X1193Y-48682D01*
X1141D01*
X-446Y-49339D01*
X-1281Y-50174D01*
X-2116Y-50121D01*
X-2785Y-49984D01*
X-2982Y-49884D01*
X-3343Y-49343D01*
X-4075Y-48854D01*
X-4938Y-48683D01*
X-9563D01*
X-10425Y-48854D01*
X-11157Y-49343D01*
X-11646Y-50075D01*
X-11817Y-50938D01*
Y-55062D01*
X-11646Y-55925D01*
X-11889Y-57611D01*
X-12603Y-58678D01*
X-12853Y-59938D01*
Y-62935D01*
X-14377Y-63085D01*
X-14401Y-62966D01*
X-15128Y-61878D01*
X-16216Y-61151D01*
X-17500Y-60896D01*
X-20480D01*
Y-66500D01*
Y-72105D01*
X-17500D01*
X-16216Y-71849D01*
X-15128Y-71122D01*
X-14401Y-70034D01*
X-14145Y-68750D01*
Y-65377D01*
X-12622Y-65227D01*
X-12603Y-65322D01*
X-11889Y-66389D01*
X-10822Y-67103D01*
X-9563Y-67353D01*
X-8520D01*
Y-62000D01*
X-7250D01*
Y-60730D01*
X-1647D01*
Y-59938D01*
X-1897Y-58678D01*
X-2611Y-57611D01*
X-2673Y-57176D01*
X-2371Y-56873D01*
X-446Y-56661D01*
X1141Y-57318D01*
X2859D01*
X4446Y-56661D01*
X5661Y-55446D01*
X6318Y-53859D01*
Y-53807D01*
X7842Y-53175D01*
X12833Y-58166D01*
X14000Y-58650D01*
X25977D01*
X26141Y-58582D01*
X27859D01*
X27859Y-58582D01*
X28007Y-58643D01*
X28310Y-58517D01*
X29557Y-59381D01*
X29731Y-59545D01*
X29749Y-59571D01*
Y-62389D01*
X27549Y-64589D01*
X24896D01*
X24004Y-64767D01*
X23248Y-65272D01*
X14710Y-73809D01*
X-35639D01*
X-36531Y-73987D01*
X-37287Y-74492D01*
X-62898Y-100103D01*
X-63403Y-100859D01*
X-63581Y-101751D01*
Y-213042D01*
X-63696Y-213089D01*
X-64911Y-214304D01*
X-65568Y-215891D01*
Y-217609D01*
X-64911Y-219196D01*
X-63696Y-220411D01*
X-62109Y-221068D01*
X-61420D01*
X-60788Y-222592D01*
X-72782Y-234586D01*
X-73296Y-234289D01*
X-75209Y-233776D01*
X-77190D01*
X-79104Y-234289D01*
X-80820Y-235279D01*
X-82221Y-236680D01*
X-83211Y-238396D01*
X-83724Y-240310D01*
Y-242290D01*
X-83211Y-244204D01*
X-82221Y-245920D01*
X-80820Y-247321D01*
X-79104Y-248311D01*
X-77190Y-248824D01*
X-75209D01*
X-73296Y-248311D01*
X-71580Y-247321D01*
X-70179Y-245920D01*
X-69189Y-244204D01*
X-68676Y-242290D01*
Y-240310D01*
X-69189Y-238396D01*
X-69486Y-237882D01*
X-53352Y-221748D01*
X-52847Y-220992D01*
X-52669Y-220100D01*
Y-116215D01*
X-49960Y-113506D01*
X-48087Y-113618D01*
X-47530Y-114355D01*
X-47639Y-115111D01*
X-48353Y-116178D01*
X-48603Y-117437D01*
Y-118230D01*
X-43000D01*
Y-119500D01*
X-41730D01*
Y-124853D01*
X-40932D01*
X-40536Y-125476D01*
X-40326Y-126335D01*
X-41262Y-127735D01*
X-41613Y-129500D01*
X-41262Y-131265D01*
X-40262Y-132762D01*
X-38863Y-134160D01*
X-38080Y-135470D01*
X-38840Y-136608D01*
X-39107Y-137950D01*
Y-140730D01*
X-32900D01*
X-26693D01*
Y-137950D01*
X-26801Y-137403D01*
X-25870Y-136077D01*
X-25778Y-136069D01*
X-24313Y-137423D01*
Y-141400D01*
X-24272Y-141607D01*
Y-146050D01*
X-24083Y-146996D01*
X-23548Y-147798D01*
X-22746Y-148333D01*
X-21800Y-148522D01*
X-21431D01*
Y-163900D01*
X-21253Y-164792D01*
X-20748Y-165548D01*
X-17148Y-169148D01*
X-16392Y-169653D01*
X-15500Y-169831D01*
X-11264D01*
X-11146Y-170425D01*
X-10657Y-171157D01*
X-10288Y-171403D01*
X-10187Y-171807D01*
X-10187Y-172693D01*
X-10288Y-173097D01*
X-10657Y-173343D01*
X-11146Y-174075D01*
X-11264Y-174669D01*
X-13950D01*
X-14842Y-174847D01*
X-15598Y-175352D01*
X-19224Y-178979D01*
X-23800D01*
X-24746Y-179167D01*
X-25548Y-179702D01*
X-26083Y-180504D01*
X-26272Y-181450D01*
Y-189550D01*
X-26083Y-190496D01*
X-25548Y-191298D01*
X-24746Y-191833D01*
X-23800Y-192022D01*
X-20707D01*
X-20500Y-192063D01*
X-15461D01*
X-12160Y-195363D01*
X-12791Y-196887D01*
X-16195D01*
X-16652Y-196202D01*
X-17454Y-195667D01*
X-18400Y-195478D01*
X-23800D01*
X-24746Y-195667D01*
X-25548Y-196202D01*
X-26083Y-197004D01*
X-26272Y-197950D01*
Y-206050D01*
X-26083Y-206996D01*
X-25548Y-207798D01*
X-25153Y-208061D01*
Y-211742D01*
X-25318Y-212141D01*
Y-213859D01*
X-24661Y-215446D01*
X-23446Y-216661D01*
X-21859Y-217318D01*
X-20141D01*
X-18554Y-216661D01*
X-17339Y-215446D01*
X-16682Y-213859D01*
Y-212141D01*
X-16947Y-211501D01*
Y-207995D01*
X-16652Y-207798D01*
X-16117Y-206996D01*
X-15941Y-206113D01*
X-11564D01*
Y-217500D01*
X-11407Y-218290D01*
X-10959Y-218959D01*
X-10290Y-219407D01*
X-9500Y-219564D01*
X1500D01*
X2290Y-219407D01*
X2959Y-218959D01*
X3407Y-218290D01*
X3564Y-217500D01*
Y-191500D01*
X3488Y-191120D01*
X4320Y-190549D01*
X4904Y-190427D01*
X10436Y-195960D01*
Y-217500D01*
X10593Y-218290D01*
X11041Y-218959D01*
X11710Y-219407D01*
X12500Y-219564D01*
X23500D01*
X24290Y-219407D01*
X24959Y-218959D01*
X25407Y-218290D01*
X25564Y-217500D01*
Y-191500D01*
X25407Y-190710D01*
X24959Y-190041D01*
X24290Y-189593D01*
X23500Y-189436D01*
X16960D01*
X12613Y-185090D01*
Y-180811D01*
X14137Y-180349D01*
X14343Y-180657D01*
X15075Y-181146D01*
X15938Y-181317D01*
X25062D01*
X25925Y-181146D01*
X26657Y-180657D01*
X27146Y-179925D01*
X27264Y-179331D01*
X29585D01*
X29604Y-179425D01*
X30093Y-180157D01*
X30825Y-180646D01*
X31688Y-180817D01*
X36312D01*
X37175Y-180646D01*
X37907Y-180157D01*
X38396Y-179425D01*
X38567Y-178563D01*
Y-174438D01*
X38396Y-173575D01*
X37961Y-172924D01*
X37910Y-172841D01*
X37908Y-172000D01*
X37910Y-171159D01*
X37961Y-171076D01*
X38396Y-170425D01*
X38567Y-169562D01*
Y-165438D01*
X38396Y-164575D01*
X37907Y-163843D01*
X37175Y-163354D01*
X36312Y-163183D01*
X31688D01*
X30825Y-163354D01*
X30093Y-163843D01*
X29604Y-164575D01*
X29565Y-164774D01*
X27994Y-164886D01*
X27229Y-163896D01*
X27390Y-162389D01*
X28103Y-161322D01*
X28353Y-160063D01*
Y-159270D01*
X12647D01*
Y-160063D01*
X12897Y-161322D01*
X12941Y-161388D01*
X12947Y-161521D01*
X12215Y-163044D01*
X11235Y-163239D01*
X9738Y-164238D01*
X4739Y-169238D01*
X3739Y-170734D01*
X3452Y-172176D01*
X2574Y-172782D01*
X1896Y-173016D01*
X1864Y-173018D01*
X1604Y-172776D01*
X1657Y-171157D01*
X2146Y-170425D01*
X2317Y-169562D01*
Y-165438D01*
X2146Y-164575D01*
X1657Y-163843D01*
X1288Y-163597D01*
X1187Y-163192D01*
X1187Y-162307D01*
X1288Y-161903D01*
X1657Y-161657D01*
X2146Y-160925D01*
X2317Y-160062D01*
Y-155938D01*
X2146Y-155075D01*
X1657Y-154343D01*
X925Y-153854D01*
X63Y-153683D01*
X-1287D01*
Y-147551D01*
X-917Y-146996D01*
X-728Y-146050D01*
Y-137950D01*
X-917Y-137004D01*
X-1452Y-136202D01*
X-2254Y-135667D01*
X-3200Y-135478D01*
X-8600D01*
X-9546Y-135667D01*
X-10347Y-136202D01*
X-10883Y-137004D01*
X-10959Y-137387D01*
X-14041D01*
X-14117Y-137004D01*
X-14653Y-136202D01*
X-15088Y-135912D01*
Y-134300D01*
X-15439Y-132535D01*
X-16439Y-131038D01*
X-19514Y-127963D01*
X-19484Y-126990D01*
X-19233Y-126243D01*
X-18378Y-125672D01*
X-17651Y-124584D01*
X-17395Y-123300D01*
Y-122320D01*
X-27250D01*
Y-121050D01*
X-28520D01*
Y-115445D01*
X-33750D01*
X-35034Y-115701D01*
X-36122Y-116428D01*
X-36706Y-116332D01*
X-37718Y-116073D01*
X-38361Y-115111D01*
X-38604Y-113425D01*
X-38433Y-112563D01*
Y-110681D01*
X-36052D01*
X-35892Y-111487D01*
X-35389Y-112240D01*
X-34637Y-112742D01*
X-33750Y-112919D01*
X-20750D01*
X-19863Y-112742D01*
X-19110Y-112240D01*
X-18608Y-111487D01*
X-18431Y-110600D01*
Y-106100D01*
X-18608Y-105213D01*
X-19110Y-104460D01*
X-19863Y-103958D01*
X-20750Y-103781D01*
X-33750D01*
X-34637Y-103958D01*
X-35389Y-104460D01*
X-35892Y-105213D01*
X-36052Y-106019D01*
X-40600D01*
X-41422Y-106183D01*
X-45312D01*
X-46175Y-106354D01*
X-46907Y-106843D01*
X-47396Y-107575D01*
X-47514Y-108169D01*
X-50250D01*
X-51142Y-108347D01*
X-51898Y-108852D01*
X-56648Y-113602D01*
X-57153Y-114358D01*
X-57331Y-115250D01*
Y-210670D01*
X-58855Y-211504D01*
X-58919Y-211463D01*
Y-102717D01*
X-37592Y-81390D01*
X-36068Y-82021D01*
Y-85200D01*
X-35892Y-86087D01*
X-35389Y-86840D01*
X-34637Y-87342D01*
X-33750Y-87519D01*
X-20750D01*
X-19863Y-87342D01*
X-19110Y-86840D01*
X-18608Y-86087D01*
X-18448Y-85281D01*
X235D01*
X6467Y-91513D01*
Y-99430D01*
X5059Y-100013D01*
X-952Y-94002D01*
X-1708Y-93497D01*
X-2600Y-93319D01*
X-18448D01*
X-18608Y-92513D01*
X-19110Y-91761D01*
X-19863Y-91258D01*
X-20750Y-91081D01*
X-33750D01*
X-34637Y-91258D01*
X-35389Y-91761D01*
X-35892Y-92513D01*
X-36068Y-93400D01*
Y-97900D01*
X-35892Y-98787D01*
X-35389Y-99539D01*
X-34637Y-100042D01*
X-33750Y-100218D01*
X-20750D01*
X-19863Y-100042D01*
X-19110Y-99539D01*
X-18608Y-98787D01*
X-18448Y-97981D01*
X-3565D01*
X3419Y-104965D01*
Y-119750D01*
X3597Y-120642D01*
X4102Y-121398D01*
X15260Y-132556D01*
X16016Y-133061D01*
X16908Y-133239D01*
X36901D01*
X37793Y-133061D01*
X38549Y-132556D01*
X64994Y-106111D01*
X65499Y-105355D01*
X65677Y-104463D01*
Y16386D01*
X66618Y17327D01*
X66769Y17693D01*
X68567Y18051D01*
X69857Y16761D01*
X69189Y15604D01*
X68676Y13691D01*
Y11710D01*
X69189Y9796D01*
X70179Y8080D01*
X71580Y6679D01*
X73296Y5689D01*
X75209Y5176D01*
X77190D01*
X79104Y5689D01*
X80820Y6679D01*
X82221Y8080D01*
X83211Y9796D01*
X83724Y11710D01*
Y13691D01*
X83211Y15604D01*
X82221Y17320D01*
X80820Y18721D01*
X79104Y19711D01*
X77190Y20224D01*
X75209D01*
X73456Y19754D01*
X68721Y24490D01*
Y32958D01*
X69946Y33396D01*
X70245Y33415D01*
X71580Y32079D01*
X73296Y31089D01*
X75209Y30576D01*
X77190D01*
X79104Y31089D01*
X80820Y32079D01*
X82221Y33480D01*
X83211Y35196D01*
X83724Y37109D01*
Y39090D01*
X83211Y41004D01*
X82221Y42720D01*
X80820Y44121D01*
X79104Y45111D01*
X77190Y45624D01*
X75209D01*
X73296Y45111D01*
X71580Y44121D01*
X70245Y42785D01*
X69946Y42804D01*
X68721Y43242D01*
Y44610D01*
X68609Y45171D01*
X69213Y46259D01*
X69588Y46682D01*
X70359D01*
X71946Y47339D01*
X73161Y48554D01*
X73818Y50141D01*
Y51859D01*
X73161Y53446D01*
X71946Y54661D01*
X70359Y55318D01*
X68641D01*
X68526Y55270D01*
X66081Y57715D01*
Y94035D01*
X69132Y97086D01*
X69637Y97842D01*
X69815Y98734D01*
Y107889D01*
X71339Y108521D01*
X71580Y108279D01*
X73296Y107289D01*
X75209Y106776D01*
X77190D01*
X79104Y107289D01*
X80820Y108279D01*
X82221Y109680D01*
X83211Y111396D01*
X83724Y113309D01*
Y115290D01*
X83211Y117204D01*
X82221Y118920D01*
X80820Y120321D01*
X79104Y121311D01*
X77190Y121824D01*
X75209D01*
X75207Y121823D01*
X74418Y123190D01*
X77848Y126620D01*
X78353Y127376D01*
X78531Y128268D01*
Y132535D01*
X79104Y132689D01*
X80820Y133679D01*
X82221Y135080D01*
X83211Y136796D01*
X83724Y138709D01*
Y140690D01*
X83211Y142604D01*
X82221Y144320D01*
X80820Y145721D01*
X79104Y146711D01*
X77190Y147224D01*
X75209D01*
X73296Y146711D01*
X71580Y145721D01*
X70179Y144320D01*
X69189Y142604D01*
X68676Y140690D01*
Y138709D01*
X69189Y136796D01*
X70179Y135080D01*
X71580Y133679D01*
X73296Y132689D01*
X73869Y132535D01*
Y129233D01*
X64742Y120106D01*
X64237Y119349D01*
X64059Y118458D01*
Y111216D01*
X63758Y110954D01*
X63756Y110953D01*
X62535Y110659D01*
X62025Y111170D01*
X61919Y111214D01*
X61862Y111312D01*
X60999Y111975D01*
X60889Y112004D01*
X60820Y112094D01*
X59878Y112639D01*
X59765Y112653D01*
X59684Y112734D01*
X58679Y113150D01*
X58565D01*
X58474Y113220D01*
X57424Y113501D01*
X57311Y113486D01*
X57212Y113543D01*
X56133Y113685D01*
X56023Y113656D01*
X55918Y113700D01*
X55252D01*
X55240Y113695D01*
X54906Y113574D01*
X54621D01*
X54396Y113481D01*
X53604Y113481D01*
X53379Y113574D01*
X53094D01*
X52760Y113695D01*
X52748Y113700D01*
X52082D01*
X51977Y113656D01*
X51867Y113686D01*
X50788Y113544D01*
X50689Y113486D01*
X50577Y113501D01*
X49525Y113220D01*
X49435Y113150D01*
X49321D01*
X48316Y112734D01*
X48235Y112654D01*
X48122Y112639D01*
X47180Y112095D01*
X47111Y112004D01*
X47001Y111975D01*
X46138Y111312D01*
X46081Y111214D01*
X45975Y111170D01*
X45206Y110401D01*
X45162Y110295D01*
X45064Y110239D01*
X44401Y109375D01*
X44372Y109265D01*
X44282Y109196D01*
X43738Y108254D01*
X43723Y108141D01*
X43642Y108060D01*
X43226Y107055D01*
Y106941D01*
X43156Y106851D01*
X42950Y106081D01*
X41750D01*
X40858Y105903D01*
X40102Y105398D01*
X31943Y97239D01*
X29451D01*
X28870Y98763D01*
X39696Y109589D01*
X40201Y110346D01*
X40379Y111237D01*
Y119535D01*
X41013Y120169D01*
X42736D01*
X42854Y119575D01*
X43343Y118843D01*
X44075Y118354D01*
X44938Y118183D01*
X54062D01*
X54925Y118354D01*
X55657Y118843D01*
X56146Y119575D01*
X56317Y120437D01*
Y124562D01*
X56146Y125425D01*
X56028Y125602D01*
X56185Y127292D01*
X56307Y127556D01*
X56389Y127611D01*
X57103Y128678D01*
X57353Y129937D01*
Y130730D01*
X49500D01*
Y133270D01*
X57353D01*
Y134062D01*
X57103Y135322D01*
X56389Y136389D01*
X56307Y136445D01*
X56185Y136708D01*
X56028Y138398D01*
X56146Y138575D01*
X56317Y139438D01*
Y143562D01*
X56146Y144425D01*
X55657Y145157D01*
X54925Y145646D01*
X54530Y145724D01*
X54373Y147309D01*
X54446Y147339D01*
X55661Y148554D01*
X56318Y150141D01*
Y151859D01*
X55661Y153446D01*
X55225Y153881D01*
X55178Y155869D01*
X55197Y155901D01*
X67789Y168493D01*
X69091Y167640D01*
X68676Y166091D01*
Y164109D01*
X69189Y162196D01*
X70179Y160480D01*
X71580Y159079D01*
X73296Y158089D01*
X75209Y157576D01*
X77190D01*
X79104Y158089D01*
X80820Y159079D01*
X82221Y160480D01*
X83211Y162196D01*
X83724Y164109D01*
Y166091D01*
X83211Y168004D01*
X82221Y169720D01*
X80820Y171121D01*
X79104Y172111D01*
X77190Y172624D01*
X75209D01*
X73660Y172209D01*
X72807Y173511D01*
X77848Y178552D01*
X78353Y179308D01*
X78531Y180200D01*
Y183335D01*
X79104Y183489D01*
X80820Y184479D01*
X82221Y185880D01*
X83211Y187596D01*
X83724Y189510D01*
Y191490D01*
X83211Y193404D01*
X82221Y195120D01*
X80820Y196521D01*
X79104Y197511D01*
X77190Y198024D01*
X75209D01*
X73296Y197511D01*
X71580Y196521D01*
X70179Y195120D01*
X69189Y193404D01*
X68676Y191490D01*
Y189510D01*
X69189Y187596D01*
X70179Y185880D01*
X71580Y184479D01*
X73296Y183489D01*
X73869Y183335D01*
Y181165D01*
X50352Y157648D01*
X49847Y156892D01*
X49669Y156000D01*
Y154708D01*
X49554Y154661D01*
X48339Y153446D01*
X47682Y151859D01*
Y150141D01*
X48339Y148554D01*
X49552Y147341D01*
X49552Y147330D01*
X49246Y145817D01*
X44938D01*
X44075Y145646D01*
X43343Y145157D01*
X42854Y144425D01*
X42683Y143562D01*
Y139438D01*
X42854Y138575D01*
X42972Y138398D01*
X42816Y136708D01*
X42693Y136445D01*
X42611Y136389D01*
X41897Y135322D01*
X40379Y135499D01*
Y181262D01*
X40201Y182154D01*
X39696Y182911D01*
X31411Y191196D01*
X30654Y191701D01*
X29762Y191879D01*
X5917D01*
X4314Y193482D01*
X4945Y195006D01*
X5200D01*
X6954Y195733D01*
X7504Y196283D01*
X8500Y196942D01*
X9496Y196283D01*
X10046Y195733D01*
X11800Y195006D01*
X13700D01*
X15454Y195733D01*
X16004Y196283D01*
X17000Y196942D01*
X17996Y196283D01*
X18546Y195733D01*
X20300Y195006D01*
X22200D01*
X23954Y195733D01*
X25297Y197076D01*
X26024Y198830D01*
Y200730D01*
X25297Y202484D01*
X25106Y202675D01*
X25738Y204199D01*
X26516D01*
X27408Y204377D01*
X27606Y204509D01*
X31972D01*
X32864Y204687D01*
X33620Y205192D01*
X37523Y209095D01*
X38028Y209851D01*
X38206Y210743D01*
Y219169D01*
X45206Y226169D01*
X50486D01*
X50604Y225575D01*
X51093Y224843D01*
X51825Y224354D01*
X52688Y224183D01*
X57312D01*
X58175Y224354D01*
X58804Y224774D01*
X59342Y224654D01*
X60328Y224226D01*
Y221130D01*
X50397Y211199D01*
X49507Y209868D01*
X49195Y208298D01*
Y199118D01*
X48917Y197719D01*
X45749Y194551D01*
X44859Y193220D01*
X44547Y191650D01*
Y186081D01*
X44226Y185305D01*
Y185191D01*
X44156Y185100D01*
X43875Y184050D01*
X43890Y183937D01*
X43833Y183838D01*
X43691Y182759D01*
X43720Y182649D01*
X43677Y182544D01*
Y181456D01*
X43720Y181351D01*
X43691Y181241D01*
X43833Y180162D01*
X43890Y180063D01*
X43875Y179950D01*
X44156Y178899D01*
X44226Y178809D01*
Y178695D01*
X44642Y177690D01*
X44723Y177609D01*
X44738Y177496D01*
X45282Y176554D01*
X45372Y176485D01*
X45401Y176375D01*
X46064Y175511D01*
X46162Y175455D01*
X46206Y175349D01*
X46975Y174580D01*
X47081Y174536D01*
X47138Y174438D01*
X48001Y173775D01*
X48111Y173746D01*
X48180Y173655D01*
X49123Y173111D01*
X49235Y173097D01*
X49316Y173016D01*
X50321Y172600D01*
X50435D01*
X50525Y172530D01*
X51576Y172249D01*
X51689Y172264D01*
X51788Y172206D01*
X52867Y172064D01*
X52977Y172094D01*
X53082Y172050D01*
X53748D01*
X53760Y172055D01*
X54094Y172176D01*
X54379D01*
X54604Y172269D01*
X55396Y172269D01*
X55621Y172176D01*
X55906D01*
X56240Y172055D01*
X56252Y172050D01*
X56918D01*
X57023Y172094D01*
X57133Y172065D01*
X58212Y172207D01*
X58311Y172264D01*
X58424Y172249D01*
X59475Y172530D01*
X59565Y172600D01*
X59679D01*
X60684Y173016D01*
X60765Y173097D01*
X60877Y173111D01*
X61820Y173655D01*
X61889Y173746D01*
X61999Y173775D01*
X62862Y174438D01*
X62919Y174536D01*
X63025Y174580D01*
X63794Y175349D01*
X63837Y175455D01*
X63936Y175511D01*
X64598Y176375D01*
X64628Y176485D01*
X64718Y176554D01*
X65262Y177496D01*
X65277Y177609D01*
X65358Y177690D01*
X65774Y178695D01*
Y178809D01*
X65844Y178899D01*
X66125Y179950D01*
X66110Y180063D01*
X66167Y180162D01*
X66309Y181241D01*
X66280Y181351D01*
X66323Y181456D01*
Y182544D01*
X66280Y182649D01*
X66309Y182759D01*
X66167Y183838D01*
X66110Y183937D01*
X66125Y184050D01*
X65844Y185101D01*
X65774Y185191D01*
Y185305D01*
X65453Y186081D01*
Y199350D01*
X74633Y208531D01*
X75209Y208376D01*
X77190D01*
X79104Y208889D01*
X80820Y209879D01*
X82221Y211280D01*
X83211Y212996D01*
X83724Y214909D01*
Y216891D01*
X83211Y218804D01*
X82221Y220520D01*
X80820Y221921D01*
X79104Y222911D01*
X77190Y223424D01*
X75209D01*
X73296Y222911D01*
X71580Y221921D01*
X70179Y220520D01*
X70057Y220308D01*
X68533Y220717D01*
Y227831D01*
X74633Y233930D01*
X75209Y233776D01*
X77190D01*
X79104Y234289D01*
X80820Y235279D01*
X82221Y236680D01*
X83211Y238396D01*
X83724Y240310D01*
Y242290D01*
X83211Y244204D01*
X82221Y245920D01*
X80820Y247321D01*
X79104Y248311D01*
X77190Y248824D01*
D02*
G37*
G36*
X24500Y247744D02*
X11500D01*
X10710Y247587D01*
X10041Y247139D01*
X9593Y246470D01*
X9436Y245680D01*
Y236180D01*
X9593Y235390D01*
X10041Y234721D01*
X10331Y234527D01*
X10423Y234177D01*
Y233183D01*
X10331Y232833D01*
X10041Y232639D01*
X9593Y231970D01*
X9436Y231180D01*
Y221680D01*
X9593Y220890D01*
X10041Y220221D01*
X10710Y219773D01*
X11500Y219616D01*
X24500D01*
X25290Y219773D01*
X25959Y220221D01*
X26407Y220890D01*
X26564Y221680D01*
Y224099D01*
X29180D01*
X30072Y224277D01*
X30828Y224782D01*
X32026Y225980D01*
X32141Y225932D01*
X33859D01*
X35446Y226589D01*
X36661Y227804D01*
X37318Y229391D01*
Y231109D01*
X36661Y232696D01*
X35446Y233911D01*
X33859Y234568D01*
X32141D01*
X30554Y233911D01*
X29339Y232696D01*
X28682Y231109D01*
Y230543D01*
X27158Y229683D01*
X26564Y230042D01*
Y231180D01*
X26407Y231970D01*
X25959Y232639D01*
X25669Y232833D01*
X25577Y233183D01*
Y234177D01*
X25669Y234527D01*
X25959Y234721D01*
X26407Y235390D01*
X26564Y236180D01*
Y245680D01*
X26407Y246470D01*
X25959Y247139D01*
X25290Y247587D01*
X24500Y247744D01*
D02*
G37*
G36*
X-33770Y187603D02*
X-34562D01*
X-35822Y187353D01*
X-36889Y186639D01*
X-37603Y185572D01*
X-37853Y184312D01*
Y183270D01*
X-33770D01*
Y187603D01*
D02*
G37*
G36*
Y180730D02*
X-37853D01*
Y179688D01*
X-37603Y178428D01*
X-36889Y177361D01*
X-35822Y176647D01*
X-34562Y176397D01*
X-33770D01*
Y180730D01*
D02*
G37*
G36*
X-75209Y172624D02*
X-77190D01*
X-79104Y172111D01*
X-80820Y171121D01*
X-82221Y169720D01*
X-83211Y168004D01*
X-83724Y166091D01*
Y164109D01*
X-83211Y162196D01*
X-82221Y160480D01*
X-80820Y159079D01*
X-79104Y158089D01*
X-77190Y157576D01*
X-75209D01*
X-73296Y158089D01*
X-71580Y159079D01*
X-70179Y160480D01*
X-69189Y162196D01*
X-68676Y164109D01*
Y166091D01*
X-69189Y168004D01*
X-70179Y169720D01*
X-71580Y171121D01*
X-73296Y172111D01*
X-75209Y172624D01*
D02*
G37*
G36*
Y147224D02*
X-77190D01*
X-79104Y146711D01*
X-80820Y145721D01*
X-82221Y144320D01*
X-83211Y142604D01*
X-83724Y140690D01*
Y138709D01*
X-83211Y136796D01*
X-82221Y135080D01*
X-80820Y133679D01*
X-79104Y132689D01*
X-77190Y132176D01*
X-75209D01*
X-73296Y132689D01*
X-71580Y133679D01*
X-70179Y135080D01*
X-69189Y136796D01*
X-68676Y138709D01*
Y140690D01*
X-69189Y142604D01*
X-70179Y144320D01*
X-71580Y145721D01*
X-73296Y146711D01*
X-75209Y147224D01*
D02*
G37*
G36*
Y121824D02*
X-77190D01*
X-79104Y121311D01*
X-80820Y120321D01*
X-82221Y118920D01*
X-83211Y117204D01*
X-83724Y115290D01*
Y113309D01*
X-83211Y111396D01*
X-82221Y109680D01*
X-80820Y108279D01*
X-79104Y107289D01*
X-77190Y106776D01*
X-75209D01*
X-73296Y107289D01*
X-71580Y108279D01*
X-70179Y109680D01*
X-69189Y111396D01*
X-68676Y113309D01*
Y115290D01*
X-69189Y117204D01*
X-70179Y118920D01*
X-71580Y120321D01*
X-73296Y121311D01*
X-75209Y121824D01*
D02*
G37*
G36*
X-29250Y90654D02*
X-34480D01*
Y86320D01*
X-25896D01*
Y87300D01*
X-26151Y88584D01*
X-26878Y89672D01*
X-27966Y90399D01*
X-29250Y90654D01*
D02*
G37*
G36*
X-37020D02*
X-42250D01*
X-43534Y90399D01*
X-44622Y89672D01*
X-45349Y88584D01*
X-45605Y87300D01*
Y86320D01*
X-37020D01*
Y90654D01*
D02*
G37*
G36*
X77190Y96424D02*
X75209D01*
X73296Y95911D01*
X71580Y94921D01*
X70179Y93520D01*
X69189Y91804D01*
X68676Y89890D01*
Y87909D01*
X69189Y85996D01*
X70179Y84280D01*
X71580Y82879D01*
X73296Y81889D01*
X75209Y81376D01*
X77190D01*
X79104Y81889D01*
X80820Y82879D01*
X82221Y84280D01*
X83211Y85996D01*
X83724Y87909D01*
Y89890D01*
X83211Y91804D01*
X82221Y93520D01*
X80820Y94921D01*
X79104Y95911D01*
X77190Y96424D01*
D02*
G37*
G36*
X-75209D02*
X-77190D01*
X-79104Y95911D01*
X-80820Y94921D01*
X-82221Y93520D01*
X-83211Y91804D01*
X-83724Y89890D01*
Y87909D01*
X-83211Y85996D01*
X-82221Y84280D01*
X-80820Y82879D01*
X-79104Y81889D01*
X-77190Y81376D01*
X-75209D01*
X-73296Y81889D01*
X-71580Y82879D01*
X-70179Y84280D01*
X-69189Y85996D01*
X-68676Y87909D01*
Y89890D01*
X-69189Y91804D01*
X-70179Y93520D01*
X-71580Y94921D01*
X-73296Y95911D01*
X-75209Y96424D01*
D02*
G37*
G36*
X-25896Y83780D02*
X-34480D01*
Y79446D01*
X-29250D01*
X-27966Y79701D01*
X-26878Y80428D01*
X-26151Y81516D01*
X-25896Y82800D01*
Y83780D01*
D02*
G37*
G36*
X-37020D02*
X-45605D01*
Y82800D01*
X-45349Y81516D01*
X-44622Y80428D01*
X-43534Y79701D01*
X-42250Y79446D01*
X-37020D01*
Y83780D01*
D02*
G37*
G36*
X-2141Y70318D02*
X-3859D01*
X-5446Y69661D01*
X-6661Y68446D01*
X-7318Y66859D01*
Y65141D01*
X-6661Y63554D01*
X-5446Y62339D01*
X-3859Y61682D01*
X-2141D01*
X-554Y62339D01*
X661Y63554D01*
X1318Y65141D01*
Y66859D01*
X661Y68446D01*
X-554Y69661D01*
X-2141Y70318D01*
D02*
G37*
G36*
X77190Y71024D02*
X75209D01*
X73296Y70511D01*
X71580Y69521D01*
X70179Y68120D01*
X69189Y66404D01*
X68676Y64490D01*
Y62509D01*
X69189Y60596D01*
X70179Y58880D01*
X71580Y57479D01*
X73296Y56489D01*
X75209Y55976D01*
X77190D01*
X79104Y56489D01*
X80820Y57479D01*
X82221Y58880D01*
X83211Y60596D01*
X83724Y62509D01*
Y64490D01*
X83211Y66404D01*
X82221Y68120D01*
X80820Y69521D01*
X79104Y70511D01*
X77190Y71024D01*
D02*
G37*
G36*
X-75209D02*
X-77190D01*
X-79104Y70511D01*
X-80820Y69521D01*
X-82221Y68120D01*
X-83211Y66404D01*
X-83724Y64490D01*
Y62509D01*
X-83211Y60596D01*
X-82221Y58880D01*
X-80820Y57479D01*
X-79104Y56489D01*
X-77190Y55976D01*
X-75209D01*
X-73296Y56489D01*
X-71580Y57479D01*
X-70179Y58880D01*
X-69189Y60596D01*
X-68676Y62509D01*
Y64490D01*
X-69189Y66404D01*
X-70179Y68120D01*
X-71580Y69521D01*
X-73296Y70511D01*
X-75209Y71024D01*
D02*
G37*
G36*
Y45624D02*
X-77190D01*
X-79104Y45111D01*
X-80820Y44121D01*
X-82221Y42720D01*
X-83211Y41004D01*
X-83724Y39090D01*
Y37109D01*
X-83211Y35196D01*
X-82221Y33480D01*
X-80820Y32079D01*
X-79104Y31089D01*
X-77190Y30576D01*
X-75209D01*
X-73296Y31089D01*
X-71580Y32079D01*
X-70179Y33480D01*
X-69189Y35196D01*
X-68676Y37109D01*
Y39090D01*
X-69189Y41004D01*
X-70179Y42720D01*
X-71580Y44121D01*
X-73296Y45111D01*
X-75209Y45624D01*
D02*
G37*
G36*
Y20224D02*
X-77190D01*
X-79104Y19711D01*
X-80820Y18721D01*
X-82221Y17320D01*
X-83211Y15604D01*
X-83724Y13691D01*
Y11710D01*
X-83211Y9796D01*
X-82221Y8080D01*
X-80820Y6679D01*
X-79104Y5689D01*
X-77190Y5176D01*
X-75209D01*
X-73296Y5689D01*
X-71580Y6679D01*
X-70179Y8080D01*
X-69189Y9796D01*
X-68676Y11710D01*
Y13691D01*
X-69189Y15604D01*
X-70179Y17320D01*
X-71580Y18721D01*
X-73296Y19711D01*
X-75209Y20224D01*
D02*
G37*
G36*
X-62520Y2603D02*
X-63313D01*
X-64572Y2353D01*
X-65639Y1639D01*
X-66353Y572D01*
X-66603Y-688D01*
Y-1730D01*
X-62520D01*
Y2603D01*
D02*
G37*
G36*
Y-14270D02*
X-66603D01*
Y-15312D01*
X-66353Y-16572D01*
X-65639Y-17639D01*
X-64572Y-18353D01*
X-63313Y-18603D01*
X-62520D01*
Y-14270D01*
D02*
G37*
G36*
X77190Y-5176D02*
X75209D01*
X73296Y-5689D01*
X71580Y-6679D01*
X70179Y-8080D01*
X69189Y-9796D01*
X68676Y-11710D01*
Y-13691D01*
X69189Y-15604D01*
X70179Y-17320D01*
X71580Y-18721D01*
X73296Y-19711D01*
X75209Y-20224D01*
X77190D01*
X79104Y-19711D01*
X80820Y-18721D01*
X82221Y-17320D01*
X83211Y-15604D01*
X83724Y-13691D01*
Y-11710D01*
X83211Y-9796D01*
X82221Y-8080D01*
X80820Y-6679D01*
X79104Y-5689D01*
X77190Y-5176D01*
D02*
G37*
G36*
X-75209D02*
X-77190D01*
X-79104Y-5689D01*
X-80820Y-6679D01*
X-82221Y-8080D01*
X-83211Y-9796D01*
X-83724Y-11710D01*
Y-13691D01*
X-83211Y-15604D01*
X-82221Y-17320D01*
X-80820Y-18721D01*
X-79104Y-19711D01*
X-77190Y-20224D01*
X-75209D01*
X-73296Y-19711D01*
X-71580Y-18721D01*
X-70179Y-17320D01*
X-69189Y-15604D01*
X-68676Y-13691D01*
Y-11710D01*
X-69189Y-9796D01*
X-70179Y-8080D01*
X-71580Y-6679D01*
X-73296Y-5689D01*
X-75209Y-5176D01*
D02*
G37*
G36*
X-59187Y2603D02*
X-59980D01*
Y-3000D01*
X-61250D01*
Y-4270D01*
X-66603D01*
Y-5312D01*
X-66353Y-6572D01*
X-66153Y-6871D01*
X-65764Y-8000D01*
X-66153Y-9129D01*
X-66353Y-9428D01*
X-66603Y-10688D01*
Y-11730D01*
X-61250D01*
Y-13000D01*
X-59980D01*
Y-18603D01*
X-59187D01*
X-58755Y-18517D01*
X-58340Y-18911D01*
X-57796Y-19880D01*
X-58318Y-21141D01*
Y-22859D01*
X-57661Y-24446D01*
X-56446Y-25661D01*
X-54859Y-26318D01*
X-53141D01*
X-51554Y-25661D01*
X-50339Y-24446D01*
X-49855Y-23276D01*
X-48331Y-23579D01*
Y-26686D01*
X-49000D01*
X-49790Y-26843D01*
X-50459Y-27291D01*
X-50907Y-27960D01*
X-51064Y-28750D01*
Y-36250D01*
X-50907Y-37040D01*
X-50459Y-37709D01*
X-49790Y-38157D01*
X-49000Y-38314D01*
X-43000D01*
X-42210Y-38157D01*
X-41541Y-37709D01*
X-41093Y-37040D01*
X-40936Y-36250D01*
Y-28750D01*
X-41093Y-27960D01*
X-41541Y-27291D01*
X-42210Y-26843D01*
X-43000Y-26686D01*
X-43669D01*
Y-14100D01*
X-43847Y-13208D01*
X-44352Y-12452D01*
X-45452Y-11352D01*
X-46208Y-10847D01*
X-47100Y-10669D01*
X-47936D01*
X-48104Y-9825D01*
X-48593Y-9093D01*
X-48962Y-8847D01*
X-49063Y-8443D01*
Y-7557D01*
X-48962Y-7153D01*
X-48593Y-6907D01*
X-48104Y-6175D01*
X-47933Y-5312D01*
Y-688D01*
X-48104Y175D01*
X-48593Y907D01*
X-49325Y1396D01*
X-50188Y1567D01*
X-54313D01*
X-55175Y1396D01*
X-56861Y1639D01*
X-57928Y2353D01*
X-59187Y2603D01*
D02*
G37*
G36*
X77190Y-30576D02*
X75209D01*
X73296Y-31089D01*
X71580Y-32079D01*
X70179Y-33480D01*
X69189Y-35196D01*
X68676Y-37109D01*
Y-39090D01*
X69189Y-41004D01*
X70179Y-42720D01*
X71580Y-44121D01*
X73296Y-45111D01*
X75209Y-45624D01*
X77190D01*
X79104Y-45111D01*
X80820Y-44121D01*
X82221Y-42720D01*
X83211Y-41004D01*
X83724Y-39090D01*
Y-37109D01*
X83211Y-35196D01*
X82221Y-33480D01*
X80820Y-32079D01*
X79104Y-31089D01*
X77190Y-30576D01*
D02*
G37*
G36*
X-75209D02*
X-77190D01*
X-79104Y-31089D01*
X-80820Y-32079D01*
X-82221Y-33480D01*
X-83211Y-35196D01*
X-83724Y-37109D01*
Y-39090D01*
X-83211Y-41004D01*
X-82221Y-42720D01*
X-80820Y-44121D01*
X-79104Y-45111D01*
X-77190Y-45624D01*
X-75209D01*
X-73296Y-45111D01*
X-71580Y-44121D01*
X-70179Y-42720D01*
X-69189Y-41004D01*
X-68676Y-39090D01*
Y-37109D01*
X-69189Y-35196D01*
X-70179Y-33480D01*
X-71580Y-32079D01*
X-73296Y-31089D01*
X-75209Y-30576D01*
D02*
G37*
G36*
X-40500Y-51396D02*
X-43480D01*
Y-55730D01*
X-37146D01*
Y-54750D01*
X-37401Y-53466D01*
X-38128Y-52378D01*
X-39216Y-51651D01*
X-40500Y-51396D01*
D02*
G37*
G36*
X-46020D02*
X-49000D01*
X-50284Y-51651D01*
X-51372Y-52378D01*
X-52099Y-53466D01*
X-52354Y-54750D01*
Y-55730D01*
X-46020D01*
Y-51396D01*
D02*
G37*
G36*
X-37146Y-58270D02*
X-43480D01*
Y-62604D01*
X-40500D01*
X-39216Y-62349D01*
X-38128Y-61622D01*
X-37401Y-60534D01*
X-37146Y-59250D01*
Y-58270D01*
D02*
G37*
G36*
X-46020D02*
X-52354D01*
Y-59250D01*
X-52099Y-60534D01*
X-51372Y-61622D01*
X-50284Y-62349D01*
X-49000Y-62604D01*
X-46020D01*
Y-58270D01*
D02*
G37*
G36*
X-23020Y-60896D02*
X-26000D01*
X-27284Y-61151D01*
X-28372Y-61878D01*
X-29099Y-62966D01*
X-29354Y-64250D01*
Y-65230D01*
X-23020D01*
Y-60896D01*
D02*
G37*
G36*
X-1647Y-63270D02*
X-5980D01*
Y-67353D01*
X-4938D01*
X-3678Y-67103D01*
X-2611Y-66389D01*
X-1897Y-65322D01*
X-1647Y-64062D01*
Y-63270D01*
D02*
G37*
G36*
X77190Y-55976D02*
X75209D01*
X73296Y-56489D01*
X71580Y-57479D01*
X70179Y-58880D01*
X69189Y-60596D01*
X68676Y-62509D01*
Y-64490D01*
X69189Y-66404D01*
X70179Y-68120D01*
X71580Y-69521D01*
X73296Y-70511D01*
X75209Y-71024D01*
X77190D01*
X79104Y-70511D01*
X80820Y-69521D01*
X82221Y-68120D01*
X83211Y-66404D01*
X83724Y-64490D01*
Y-62509D01*
X83211Y-60596D01*
X82221Y-58880D01*
X80820Y-57479D01*
X79104Y-56489D01*
X77190Y-55976D01*
D02*
G37*
G36*
X-75209D02*
X-77190D01*
X-79104Y-56489D01*
X-80820Y-57479D01*
X-82221Y-58880D01*
X-83211Y-60596D01*
X-83724Y-62509D01*
Y-64490D01*
X-83211Y-66404D01*
X-82221Y-68120D01*
X-80820Y-69521D01*
X-79104Y-70511D01*
X-77190Y-71024D01*
X-75209D01*
X-73296Y-70511D01*
X-71580Y-69521D01*
X-70179Y-68120D01*
X-69189Y-66404D01*
X-68676Y-64490D01*
Y-62509D01*
X-69189Y-60596D01*
X-70179Y-58880D01*
X-71580Y-57479D01*
X-73296Y-56489D01*
X-75209Y-55976D01*
D02*
G37*
G36*
X-23020Y-67770D02*
X-29354D01*
Y-68750D01*
X-29099Y-70034D01*
X-28372Y-71122D01*
X-27284Y-71849D01*
X-26000Y-72105D01*
X-23020D01*
Y-67770D01*
D02*
G37*
G36*
X77190Y-81376D02*
X75209D01*
X73296Y-81889D01*
X71580Y-82879D01*
X70179Y-84280D01*
X69189Y-85996D01*
X68676Y-87909D01*
Y-89890D01*
X69189Y-91804D01*
X70179Y-93520D01*
X71580Y-94921D01*
X73296Y-95911D01*
X75209Y-96424D01*
X77190D01*
X79104Y-95911D01*
X80820Y-94921D01*
X82221Y-93520D01*
X83211Y-91804D01*
X83724Y-89890D01*
Y-87909D01*
X83211Y-85996D01*
X82221Y-84280D01*
X80820Y-82879D01*
X79104Y-81889D01*
X77190Y-81376D01*
D02*
G37*
G36*
X-75209D02*
X-77190D01*
X-79104Y-81889D01*
X-80820Y-82879D01*
X-82221Y-84280D01*
X-83211Y-85996D01*
X-83724Y-87909D01*
Y-89890D01*
X-83211Y-91804D01*
X-82221Y-93520D01*
X-80820Y-94921D01*
X-79104Y-95911D01*
X-77190Y-96424D01*
X-75209D01*
X-73296Y-95911D01*
X-71580Y-94921D01*
X-70179Y-93520D01*
X-69189Y-91804D01*
X-68676Y-89890D01*
Y-87909D01*
X-69189Y-85996D01*
X-70179Y-84280D01*
X-71580Y-82879D01*
X-73296Y-81889D01*
X-75209Y-81376D01*
D02*
G37*
G36*
X-20750Y-115445D02*
X-25980D01*
Y-119780D01*
X-17395D01*
Y-118800D01*
X-17651Y-117516D01*
X-18378Y-116428D01*
X-19466Y-115701D01*
X-20750Y-115445D01*
D02*
G37*
G36*
X77190Y-106776D02*
X75209D01*
X73296Y-107289D01*
X71580Y-108279D01*
X70179Y-109680D01*
X69189Y-111396D01*
X68676Y-113309D01*
Y-115290D01*
X69189Y-117204D01*
X70179Y-118920D01*
X71580Y-120321D01*
X73296Y-121311D01*
X75209Y-121824D01*
X77190D01*
X79104Y-121311D01*
X80820Y-120321D01*
X82221Y-118920D01*
X83211Y-117204D01*
X83724Y-115290D01*
Y-113309D01*
X83211Y-111396D01*
X82221Y-109680D01*
X80820Y-108279D01*
X79104Y-107289D01*
X77190Y-106776D01*
D02*
G37*
G36*
X-75209D02*
X-77190D01*
X-79104Y-107289D01*
X-80820Y-108279D01*
X-82221Y-109680D01*
X-83211Y-111396D01*
X-83724Y-113309D01*
Y-115290D01*
X-83211Y-117204D01*
X-82221Y-118920D01*
X-80820Y-120321D01*
X-79104Y-121311D01*
X-77190Y-121824D01*
X-75209D01*
X-73296Y-121311D01*
X-71580Y-120321D01*
X-70179Y-118920D01*
X-69189Y-117204D01*
X-68676Y-115290D01*
Y-113309D01*
X-69189Y-111396D01*
X-70179Y-109680D01*
X-71580Y-108279D01*
X-73296Y-107289D01*
X-75209Y-106776D01*
D02*
G37*
G36*
X-44270Y-120770D02*
X-48603D01*
Y-121562D01*
X-48353Y-122822D01*
X-47639Y-123889D01*
X-46572Y-124603D01*
X-45312Y-124853D01*
X-44270D01*
Y-120770D01*
D02*
G37*
G36*
X10600Y-134443D02*
X9170D01*
Y-140730D01*
X14107D01*
Y-137950D01*
X13840Y-136608D01*
X13080Y-135470D01*
X11942Y-134710D01*
X10600Y-134443D01*
D02*
G37*
G36*
X6630D02*
X5200D01*
X3858Y-134710D01*
X2720Y-135470D01*
X1959Y-136608D01*
X1692Y-137950D01*
Y-140730D01*
X6630D01*
Y-134443D01*
D02*
G37*
G36*
X77190Y-132176D02*
X75209D01*
X73296Y-132689D01*
X71580Y-133679D01*
X70179Y-135080D01*
X69189Y-136796D01*
X68676Y-138709D01*
Y-140690D01*
X69189Y-142604D01*
X70179Y-144320D01*
X71580Y-145721D01*
X73296Y-146711D01*
X75209Y-147224D01*
X77190D01*
X79104Y-146711D01*
X80820Y-145721D01*
X82221Y-144320D01*
X83211Y-142604D01*
X83724Y-140690D01*
Y-138709D01*
X83211Y-136796D01*
X82221Y-135080D01*
X80820Y-133679D01*
X79104Y-132689D01*
X77190Y-132176D01*
D02*
G37*
G36*
X-75209D02*
X-77190D01*
X-79104Y-132689D01*
X-80820Y-133679D01*
X-82221Y-135080D01*
X-83211Y-136796D01*
X-83724Y-138709D01*
Y-140690D01*
X-83211Y-142604D01*
X-82221Y-144320D01*
X-80820Y-145721D01*
X-79104Y-146711D01*
X-77190Y-147224D01*
X-75209D01*
X-73296Y-146711D01*
X-71580Y-145721D01*
X-70179Y-144320D01*
X-69189Y-142604D01*
X-68676Y-140690D01*
Y-138709D01*
X-69189Y-136796D01*
X-70179Y-135080D01*
X-71580Y-133679D01*
X-73296Y-132689D01*
X-75209Y-132176D01*
D02*
G37*
G36*
X-26693Y-143270D02*
X-31630D01*
Y-149557D01*
X-30200D01*
X-28858Y-149290D01*
X-27720Y-148530D01*
X-26959Y-147392D01*
X-26693Y-146050D01*
Y-143270D01*
D02*
G37*
G36*
X-34170D02*
X-39107D01*
Y-146050D01*
X-38840Y-147392D01*
X-38080Y-148530D01*
X-36942Y-149290D01*
X-35600Y-149557D01*
X-34170D01*
Y-143270D01*
D02*
G37*
G36*
X14107Y-143270D02*
X9170D01*
Y-149558D01*
X10600D01*
X11942Y-149291D01*
X13080Y-148530D01*
X13840Y-147392D01*
X14107Y-146050D01*
Y-143270D01*
D02*
G37*
G36*
X6630D02*
X1692D01*
Y-146050D01*
X1959Y-147392D01*
X2720Y-148530D01*
X3858Y-149291D01*
X5200Y-149558D01*
X6630D01*
Y-143270D01*
D02*
G37*
G36*
X25063Y-152647D02*
X21770D01*
Y-156730D01*
X28353D01*
Y-155938D01*
X28103Y-154678D01*
X27390Y-153611D01*
X26322Y-152897D01*
X25063Y-152647D01*
D02*
G37*
G36*
X19230D02*
X15938D01*
X14678Y-152897D01*
X13611Y-153611D01*
X12897Y-154678D01*
X12647Y-155938D01*
Y-156730D01*
X19230D01*
Y-152647D01*
D02*
G37*
G36*
X77190Y-157576D02*
X75209D01*
X73296Y-158089D01*
X71580Y-159079D01*
X70179Y-160480D01*
X69189Y-162196D01*
X68676Y-164109D01*
Y-166091D01*
X69189Y-168004D01*
X70179Y-169720D01*
X71580Y-171121D01*
X73296Y-172111D01*
X75209Y-172624D01*
X77190D01*
X79104Y-172111D01*
X80820Y-171121D01*
X82221Y-169720D01*
X83211Y-168004D01*
X83724Y-166091D01*
Y-164109D01*
X83211Y-162196D01*
X82221Y-160480D01*
X80820Y-159079D01*
X79104Y-158089D01*
X77190Y-157576D01*
D02*
G37*
G36*
X-75209D02*
X-77190D01*
X-79104Y-158089D01*
X-80820Y-159079D01*
X-82221Y-160480D01*
X-83211Y-162196D01*
X-83724Y-164109D01*
Y-166091D01*
X-83211Y-168004D01*
X-82221Y-169720D01*
X-80820Y-171121D01*
X-79104Y-172111D01*
X-77190Y-172624D01*
X-75209D01*
X-73296Y-172111D01*
X-71580Y-171121D01*
X-70179Y-169720D01*
X-69189Y-168004D01*
X-68676Y-166091D01*
Y-164109D01*
X-69189Y-162196D01*
X-70179Y-160480D01*
X-71580Y-159079D01*
X-73296Y-158089D01*
X-75209Y-157576D01*
D02*
G37*
G36*
X-32200Y-177943D02*
X-33630D01*
Y-184230D01*
X-28693D01*
Y-181450D01*
X-28960Y-180108D01*
X-29720Y-178970D01*
X-30858Y-178210D01*
X-32200Y-177943D01*
D02*
G37*
G36*
X-36170D02*
X-37600D01*
X-38942Y-178210D01*
X-40080Y-178970D01*
X-40840Y-180108D01*
X-41107Y-181450D01*
Y-184230D01*
X-36170D01*
Y-177943D01*
D02*
G37*
G36*
X77190Y-182976D02*
X75209D01*
X73296Y-183489D01*
X71580Y-184479D01*
X70179Y-185880D01*
X69189Y-187596D01*
X68676Y-189510D01*
Y-191490D01*
X69189Y-193404D01*
X70179Y-195120D01*
X71580Y-196521D01*
X73296Y-197511D01*
X75209Y-198024D01*
X77190D01*
X79104Y-197511D01*
X80820Y-196521D01*
X82221Y-195120D01*
X83211Y-193404D01*
X83724Y-191490D01*
Y-189510D01*
X83211Y-187596D01*
X82221Y-185880D01*
X80820Y-184479D01*
X79104Y-183489D01*
X77190Y-182976D01*
D02*
G37*
G36*
X-75209D02*
X-77190D01*
X-79104Y-183489D01*
X-80820Y-184479D01*
X-82221Y-185880D01*
X-83211Y-187596D01*
X-83724Y-189510D01*
Y-191490D01*
X-83211Y-193404D01*
X-82221Y-195120D01*
X-80820Y-196521D01*
X-79104Y-197511D01*
X-77190Y-198024D01*
X-75209D01*
X-73296Y-197511D01*
X-71580Y-196521D01*
X-70179Y-195120D01*
X-69189Y-193404D01*
X-68676Y-191490D01*
Y-189510D01*
X-69189Y-187596D01*
X-70179Y-185880D01*
X-71580Y-184479D01*
X-73296Y-183489D01*
X-75209Y-182976D01*
D02*
G37*
G36*
X-28693Y-186770D02*
X-34900D01*
X-41107D01*
Y-189550D01*
X-40840Y-190892D01*
X-40080Y-192030D01*
X-38942Y-192790D01*
X-38024Y-192973D01*
Y-194527D01*
X-38942Y-194709D01*
X-40080Y-195470D01*
X-40840Y-196608D01*
X-41107Y-197950D01*
Y-200730D01*
X-34900D01*
X-28693D01*
Y-197950D01*
X-28960Y-196608D01*
X-29720Y-195470D01*
X-30858Y-194709D01*
X-31776Y-194527D01*
Y-192973D01*
X-30858Y-192790D01*
X-29720Y-192030D01*
X-28960Y-190892D01*
X-28693Y-189550D01*
Y-186770D01*
D02*
G37*
G36*
Y-203270D02*
X-33630D01*
Y-209557D01*
X-32200D01*
X-30858Y-209290D01*
X-29720Y-208530D01*
X-28960Y-207392D01*
X-28693Y-206050D01*
Y-203270D01*
D02*
G37*
G36*
X-36170D02*
X-41107D01*
Y-206050D01*
X-40840Y-207392D01*
X-40080Y-208530D01*
X-38942Y-209290D01*
X-37600Y-209557D01*
X-36170D01*
Y-203270D01*
D02*
G37*
G36*
X77190Y-208376D02*
X75209D01*
X73296Y-208889D01*
X71580Y-209879D01*
X70179Y-211280D01*
X69189Y-212996D01*
X68676Y-214909D01*
Y-216891D01*
X69189Y-218804D01*
X70179Y-220520D01*
X71580Y-221921D01*
X73296Y-222911D01*
X75209Y-223424D01*
X77190D01*
X79104Y-222911D01*
X80820Y-221921D01*
X82221Y-220520D01*
X83211Y-218804D01*
X83724Y-216891D01*
Y-214909D01*
X83211Y-212996D01*
X82221Y-211280D01*
X80820Y-209879D01*
X79104Y-208889D01*
X77190Y-208376D01*
D02*
G37*
G36*
X-75209D02*
X-77190D01*
X-79104Y-208889D01*
X-80820Y-209879D01*
X-82221Y-211280D01*
X-83211Y-212996D01*
X-83724Y-214909D01*
Y-216891D01*
X-83211Y-218804D01*
X-82221Y-220520D01*
X-80820Y-221921D01*
X-79104Y-222911D01*
X-77190Y-223424D01*
X-75209D01*
X-73296Y-222911D01*
X-71580Y-221921D01*
X-70179Y-220520D01*
X-69189Y-218804D01*
X-68676Y-216891D01*
Y-214909D01*
X-69189Y-212996D01*
X-70179Y-211280D01*
X-71580Y-209879D01*
X-73296Y-208889D01*
X-75209Y-208376D01*
D02*
G37*
%LPD*%
G36*
X-7504Y196283D02*
X-6954Y195733D01*
X-5200Y195006D01*
X-3879D01*
Y191737D01*
X-3701Y190846D01*
X-3196Y190089D01*
X2041Y184852D01*
X2797Y184347D01*
X3690Y184169D01*
X27535D01*
X32669Y179035D01*
Y144578D01*
X31146Y144425D01*
X30657Y145157D01*
X29925Y145646D01*
X29113Y145807D01*
Y155500D01*
X28761Y157265D01*
X27762Y158762D01*
X27016Y159507D01*
X27396Y160075D01*
X27567Y160938D01*
Y165063D01*
X27396Y165925D01*
X27639Y167611D01*
X28353Y168678D01*
X28603Y169937D01*
Y170730D01*
X23000D01*
X17397D01*
Y169937D01*
X17647Y168678D01*
X18361Y167611D01*
X18505Y166611D01*
X17449Y165113D01*
X11010D01*
X10761Y166361D01*
X9762Y167858D01*
X5075Y172544D01*
X3579Y173544D01*
X1814Y173895D01*
X-7974D01*
X-8968Y174559D01*
X-10733Y174911D01*
X-14653D01*
X-16637Y176895D01*
Y194925D01*
X-15113Y195592D01*
X-13700Y195006D01*
X-11800D01*
X-10046Y195733D01*
X-9496Y196283D01*
X-8500Y196942D01*
X-7504Y196283D01*
D02*
G37*
G36*
X-11331Y155824D02*
Y146176D01*
X-12854Y145498D01*
X-13075Y145646D01*
X-13937Y145817D01*
X-23063D01*
X-23925Y145646D01*
X-24657Y145157D01*
X-25146Y144425D01*
X-25317Y143562D01*
Y139438D01*
X-25146Y138575D01*
X-24657Y137843D01*
X-23925Y137354D01*
X-23063Y137183D01*
X-13937D01*
X-13075Y137354D01*
X-12343Y137843D01*
X-11854Y138575D01*
X-11683Y139438D01*
Y142731D01*
X-10159Y143362D01*
X-6648Y139852D01*
X-5892Y139347D01*
X-5000Y139169D01*
X-264D01*
X-146Y138575D01*
X343Y137843D01*
X1075Y137354D01*
X1937Y137183D01*
X11063D01*
X11925Y137354D01*
X12657Y137843D01*
X13146Y138575D01*
X13317Y139438D01*
Y143562D01*
X13146Y144425D01*
X13028Y144602D01*
X13184Y146292D01*
X13307Y146556D01*
X13389Y146611D01*
X14103Y147678D01*
X14353Y148938D01*
Y149730D01*
X6500D01*
Y152270D01*
X14353D01*
Y153062D01*
X14103Y154322D01*
X14075Y154363D01*
X14890Y155887D01*
X17589D01*
X19887Y153589D01*
Y145807D01*
X19075Y145646D01*
X18343Y145157D01*
X17854Y144425D01*
X17683Y143562D01*
Y139438D01*
X17854Y138575D01*
X18169Y138104D01*
X17823Y137108D01*
X17472Y136613D01*
X17000D01*
X15235Y136262D01*
X13738Y135262D01*
X3089Y124613D01*
X-5800D01*
X-6282Y125446D01*
X-6372Y125515D01*
X-6401Y125625D01*
X-7064Y126488D01*
X-7162Y126545D01*
X-7206Y126651D01*
X-7975Y127420D01*
X-8081Y127464D01*
X-8138Y127562D01*
X-9001Y128225D01*
X-9111Y128254D01*
X-9180Y128344D01*
X-10122Y128889D01*
X-10235Y128903D01*
X-10316Y128984D01*
X-11321Y129400D01*
X-11435D01*
X-11525Y129470D01*
X-12577Y129751D01*
X-12689Y129736D01*
X-12788Y129793D01*
X-13867Y129935D01*
X-13977Y129906D01*
X-14082Y129950D01*
X-14748D01*
X-14760Y129945D01*
X-15094Y129824D01*
X-15379D01*
X-15604Y129731D01*
X-16396Y129731D01*
X-16621Y129824D01*
X-16906D01*
X-17240Y129945D01*
X-17252Y129950D01*
X-17918D01*
X-18023Y129906D01*
X-18133Y129936D01*
X-19212Y129793D01*
X-19311Y129736D01*
X-19424Y129751D01*
X-20475Y129470D01*
X-20565Y129400D01*
X-20679D01*
X-21684Y128984D01*
X-21765Y128904D01*
X-21878Y128889D01*
X-22820Y128345D01*
X-22889Y128254D01*
X-22999Y128225D01*
X-23862Y127562D01*
X-25391Y127076D01*
X-25956Y127480D01*
X-32387Y133911D01*
Y155887D01*
X-18500D01*
X-17015Y156183D01*
X-13937D01*
X-13075Y156354D01*
X-12855Y156501D01*
X-11331Y155824D01*
D02*
G37*
G36*
X-28262Y116738D02*
X-26765Y115738D01*
X-26317Y115649D01*
X-26277Y115609D01*
X-26262Y115496D01*
X-25718Y114554D01*
X-25628Y114485D01*
X-25599Y114375D01*
X-24936Y113511D01*
X-24838Y113455D01*
X-24794Y113349D01*
X-24025Y112580D01*
X-23919Y112536D01*
X-23862Y112438D01*
X-22999Y111775D01*
X-22889Y111746D01*
X-22820Y111656D01*
X-21878Y111111D01*
X-21765Y111097D01*
X-21684Y111016D01*
X-20679Y110600D01*
X-20565D01*
X-20474Y110530D01*
X-19424Y110249D01*
X-19311Y110264D01*
X-19212Y110207D01*
X-18133Y110064D01*
X-18023Y110094D01*
X-17918Y110050D01*
X-17252D01*
X-16949Y110176D01*
X-16621D01*
X-16396Y110269D01*
X-15604Y110269D01*
X-15379Y110176D01*
X-15051D01*
X-14748Y110050D01*
X-14082D01*
X-13977Y110094D01*
X-13867Y110064D01*
X-12788Y110206D01*
X-12689Y110264D01*
X-12577Y110249D01*
X-11526Y110530D01*
X-11435Y110600D01*
X-11321D01*
X-10316Y111016D01*
X-10235Y111096D01*
X-10122Y111111D01*
X-9180Y111655D01*
X-9111Y111746D01*
X-9001Y111775D01*
X-8138Y112438D01*
X-8081Y112536D01*
X-7975Y112580D01*
X-7206Y113349D01*
X-7163Y113455D01*
X-7064Y113511D01*
X-6401Y114375D01*
X-6372Y114485D01*
X-6282Y114554D01*
X-5800Y115387D01*
X5000D01*
X6765Y115738D01*
X8262Y116738D01*
X16210Y124687D01*
X17683Y124004D01*
Y120437D01*
X17854Y119575D01*
X18343Y118843D01*
X19075Y118354D01*
X19937Y118183D01*
X29062D01*
X29925Y118354D01*
X30657Y118843D01*
X32190Y118454D01*
X32669Y118079D01*
Y113465D01*
X24583Y105379D01*
X8318D01*
Y105939D01*
X7661Y107526D01*
X6446Y108741D01*
X4859Y109398D01*
X3141D01*
X1554Y108741D01*
X339Y107526D01*
X-318Y105939D01*
Y104221D01*
X339Y102634D01*
X1449Y101524D01*
X339Y100414D01*
X-318Y98827D01*
Y97109D01*
X339Y95522D01*
X1554Y94307D01*
X3141Y93650D01*
X4859D01*
X6446Y94307D01*
X7661Y95522D01*
X8318Y97109D01*
Y97669D01*
X23459D01*
X24040Y96145D01*
X18225Y90331D01*
X-8724D01*
X-28541Y110148D01*
X-29298Y110653D01*
X-30189Y110831D01*
X-40427D01*
X-41289Y112076D01*
X-41340Y112159D01*
X-41342Y113000D01*
X-41340Y113841D01*
X-41289Y113924D01*
X-40854Y114575D01*
X-40683Y115437D01*
Y119563D01*
X-40854Y120425D01*
X-41343Y121157D01*
X-41491Y121256D01*
X-41819Y122861D01*
X-41763Y123131D01*
X-41339Y123554D01*
X-40682Y125141D01*
Y126859D01*
X-40784Y127106D01*
X-39492Y127969D01*
X-28262Y116738D01*
D02*
G37*
G36*
X34169Y15990D02*
Y14500D01*
X34347Y13608D01*
X34852Y12852D01*
X38512Y9192D01*
X39268Y8687D01*
X40160Y8509D01*
X46134D01*
X47304Y7339D01*
X48891Y6682D01*
X50609D01*
X52196Y7339D01*
X53395Y8539D01*
X53485Y8537D01*
X54919Y8214D01*
Y-14035D01*
X45595Y-23359D01*
X39075D01*
X38183Y-23537D01*
X37427Y-24042D01*
X34792Y-26676D01*
X34287Y-27433D01*
X34187Y-27933D01*
X32229D01*
X29270Y-24974D01*
X29318Y-24859D01*
Y-23141D01*
X28661Y-21554D01*
X27446Y-20339D01*
X25859Y-19682D01*
X24141D01*
X22554Y-20339D01*
X21339Y-21554D01*
X21325Y-21589D01*
X19675D01*
X19661Y-21554D01*
X18446Y-20339D01*
X16859Y-19682D01*
X15141D01*
X13554Y-20339D01*
X13174Y-20720D01*
X11650Y-20089D01*
Y-18526D01*
X13174Y-17501D01*
X13687Y-17603D01*
X14480D01*
Y-12000D01*
Y-6397D01*
X13687D01*
X13174Y-6499D01*
X11650Y-5474D01*
Y-5357D01*
X11166Y-4190D01*
X10488Y-3512D01*
X10082Y-2531D01*
Y-1469D01*
X10488Y-488D01*
X11238Y262D01*
X12303Y703D01*
X12634Y1035D01*
X13028Y1288D01*
X13206Y1546D01*
X13428Y1397D01*
X14688Y1147D01*
X15730D01*
Y6500D01*
X18270D01*
Y1147D01*
X19312D01*
X20572Y1397D01*
X20871Y1597D01*
X22000Y1986D01*
X23129Y1597D01*
X23428Y1397D01*
X24688Y1147D01*
X25730D01*
Y6500D01*
X27000D01*
Y7770D01*
X32603D01*
Y8562D01*
X32353Y9822D01*
X31639Y10889D01*
X31396Y12575D01*
X31567Y13438D01*
Y16125D01*
X32873Y16786D01*
X34169Y15990D01*
D02*
G37*
G36*
X57967Y-32094D02*
Y-102235D01*
X37593Y-122610D01*
X36069Y-121979D01*
Y-118800D01*
X35892Y-117913D01*
X35389Y-117161D01*
X34637Y-116658D01*
X33750Y-116482D01*
X21728D01*
X19317Y-114071D01*
X20213Y-112812D01*
X20750Y-112919D01*
X33750D01*
X34637Y-112742D01*
X35389Y-112240D01*
X35892Y-111487D01*
X36069Y-110600D01*
Y-109949D01*
X36694Y-109557D01*
X37593Y-109294D01*
X38428Y-109853D01*
X39688Y-110103D01*
X40730D01*
Y-104750D01*
X42000D01*
Y-103480D01*
X47603D01*
Y-102688D01*
X47353Y-101428D01*
X46639Y-100361D01*
X46396Y-98675D01*
X46567Y-97812D01*
Y-93687D01*
X46396Y-92825D01*
X45907Y-92093D01*
X45661Y-90696D01*
X46318Y-89109D01*
Y-87391D01*
X45661Y-85804D01*
X44446Y-84589D01*
X42859Y-83932D01*
X41141D01*
X39554Y-84589D01*
X38339Y-85804D01*
X37682Y-87391D01*
Y-89109D01*
X38339Y-90696D01*
X38093Y-92093D01*
X37604Y-92825D01*
X37556Y-93067D01*
X36002D01*
X35892Y-92513D01*
X35389Y-91761D01*
X34637Y-91258D01*
X33750Y-91081D01*
X20750D01*
X19863Y-91258D01*
X19111Y-91761D01*
X18608Y-92513D01*
X18432Y-93400D01*
Y-97900D01*
X18608Y-98787D01*
X19111Y-99539D01*
X19863Y-100042D01*
X20750Y-100218D01*
X33750D01*
X34637Y-100042D01*
X35389Y-99539D01*
X37176Y-99547D01*
X37433Y-99857D01*
X37361Y-100361D01*
X36647Y-101428D01*
X36397Y-102688D01*
Y-103434D01*
X34873Y-104115D01*
X34637Y-103958D01*
X33750Y-103781D01*
X20750D01*
X19863Y-103958D01*
X19111Y-104460D01*
X18608Y-105213D01*
X18432Y-106100D01*
Y-109960D01*
X17184Y-110823D01*
X16943Y-110866D01*
X16581Y-110659D01*
Y-84070D01*
X16908Y-83851D01*
X18432Y-84666D01*
Y-85200D01*
X18608Y-86087D01*
X19111Y-86840D01*
X19863Y-87342D01*
X20750Y-87519D01*
X33750D01*
X34637Y-87342D01*
X35389Y-86840D01*
X35892Y-86087D01*
X36069Y-85200D01*
Y-80700D01*
X35892Y-79813D01*
X35389Y-79061D01*
X34637Y-78558D01*
X33750Y-78382D01*
X33090D01*
X32507Y-76974D01*
X37201Y-72279D01*
X38554Y-71718D01*
X39496Y-72263D01*
X39609Y-72277D01*
X39690Y-72358D01*
X40695Y-72774D01*
X40809D01*
X40899Y-72844D01*
X41950Y-73125D01*
X42063Y-73110D01*
X42162Y-73167D01*
X43241Y-73309D01*
X43351Y-73280D01*
X43456Y-73323D01*
X44544D01*
X44649Y-73280D01*
X44759Y-73309D01*
X45838Y-73167D01*
X45937Y-73110D01*
X46050Y-73125D01*
X47101Y-72844D01*
X47191Y-72774D01*
X47305D01*
X48310Y-72358D01*
X48391Y-72277D01*
X48504Y-72263D01*
X49446Y-71718D01*
X49515Y-71628D01*
X49625Y-71599D01*
X50488Y-70936D01*
X50545Y-70838D01*
X50651Y-70794D01*
X51420Y-70025D01*
X51464Y-69919D01*
X51562Y-69862D01*
X52225Y-68999D01*
X52254Y-68889D01*
X52344Y-68820D01*
X52888Y-67878D01*
X52903Y-67765D01*
X52984Y-67684D01*
X53400Y-66679D01*
Y-66565D01*
X53470Y-66474D01*
X53751Y-65423D01*
X53736Y-65311D01*
X53793Y-65212D01*
X53935Y-64133D01*
X53906Y-64023D01*
X53949Y-63918D01*
Y-63252D01*
X53945Y-63240D01*
X53824Y-62906D01*
Y-62621D01*
X53731Y-62396D01*
X53731Y-61604D01*
X53824Y-61379D01*
Y-61094D01*
X53945Y-60760D01*
X53950Y-60748D01*
Y-60082D01*
X53906Y-59977D01*
X53935Y-59867D01*
X53794Y-58788D01*
X53737Y-58689D01*
X53751Y-58576D01*
X53470Y-57526D01*
X53400Y-57435D01*
Y-57321D01*
X52984Y-56316D01*
X52903Y-56235D01*
X52889Y-56122D01*
X52345Y-55180D01*
X52254Y-55111D01*
X52225Y-55001D01*
X51562Y-54138D01*
X51464Y-54081D01*
X51420Y-53975D01*
X50651Y-53206D01*
X50546Y-53162D01*
X50489Y-53064D01*
X49625Y-52401D01*
X49515Y-52372D01*
X49446Y-52282D01*
X48504Y-51737D01*
X48391Y-51723D01*
X48310Y-51642D01*
X47305Y-51226D01*
X47191D01*
X47101Y-51156D01*
X46050Y-50875D01*
X45937Y-50890D01*
X45838Y-50833D01*
X44759Y-50691D01*
X44649Y-50720D01*
X44544Y-50676D01*
X43456D01*
X43351Y-50720D01*
X43241Y-50691D01*
X42442Y-50796D01*
X36331Y-44685D01*
Y-37014D01*
X36925Y-36896D01*
X37652Y-36410D01*
X37657Y-36407D01*
X39343D01*
X39348Y-36410D01*
X40075Y-36896D01*
X40938Y-37067D01*
X45062D01*
X45925Y-36896D01*
X46657Y-36407D01*
X47146Y-35675D01*
X47314Y-34831D01*
X49500D01*
X50392Y-34653D01*
X51148Y-34148D01*
X54026Y-31270D01*
X54141Y-31318D01*
X55859D01*
X56443Y-31076D01*
X57967Y-32094D01*
D02*
G37*
G36*
X669Y24708D02*
X554Y24661D01*
X-661Y23446D01*
X-1318Y21859D01*
Y20141D01*
X-661Y18554D01*
X554Y17339D01*
X2141Y16682D01*
X3859D01*
X5446Y17339D01*
X6661Y18554D01*
X6884Y19093D01*
X7435Y20117D01*
X8723Y19855D01*
X9141Y19682D01*
X10389D01*
X10723Y19454D01*
X11338Y18731D01*
X11547Y18317D01*
X11397Y17563D01*
Y16770D01*
X17000D01*
Y14230D01*
X11397D01*
Y13438D01*
X11647Y12178D01*
X12361Y11111D01*
X12604Y9425D01*
X12433Y8562D01*
Y4437D01*
X12551Y3842D01*
X12153Y2922D01*
X11672Y2227D01*
X10304Y1661D01*
X9089Y446D01*
X8432Y-1141D01*
Y-2859D01*
X9089Y-4446D01*
X10000Y-5357D01*
X10000Y-31000D01*
X13669Y-34669D01*
Y-34816D01*
X13847Y-35708D01*
X14352Y-36464D01*
X29749Y-51861D01*
Y-55251D01*
X28007Y-56993D01*
X27859Y-56932D01*
X26141D01*
X25977Y-57000D01*
X14000D01*
X-19000Y-24000D01*
Y45373D01*
X-18682Y46141D01*
Y46318D01*
X-17000Y48000D01*
X669D01*
Y24708D01*
D02*
G37*
%LPC*%
G36*
X25312Y177353D02*
X24270D01*
Y173270D01*
X28603D01*
Y174062D01*
X28353Y175322D01*
X27639Y176389D01*
X26572Y177103D01*
X25312Y177353D01*
D02*
G37*
G36*
X21730D02*
X20687D01*
X19428Y177103D01*
X18361Y176389D01*
X17647Y175322D01*
X17397Y174062D01*
Y173270D01*
X21730D01*
Y177353D01*
D02*
G37*
G36*
X32603Y5230D02*
X28270D01*
Y1147D01*
X29313D01*
X30572Y1397D01*
X31639Y2111D01*
X32353Y3178D01*
X32603Y4437D01*
Y5230D01*
D02*
G37*
G36*
X47609Y-5932D02*
X45891D01*
X44304Y-6589D01*
X43089Y-7804D01*
X42432Y-9391D01*
Y-9669D01*
X29064D01*
X28896Y-8825D01*
X28407Y-8093D01*
X27675Y-7604D01*
X26813Y-7433D01*
X22687D01*
X21825Y-7604D01*
X20139Y-7361D01*
X19072Y-6647D01*
X17812Y-6397D01*
X17020D01*
Y-12000D01*
Y-17603D01*
X17812D01*
X19072Y-17353D01*
X20139Y-16639D01*
X21825Y-16396D01*
X22687Y-16567D01*
X26813D01*
X27675Y-16396D01*
X28407Y-15907D01*
X28896Y-15175D01*
X29064Y-14331D01*
X43900D01*
X44792Y-14153D01*
X44830Y-14128D01*
X45891Y-14568D01*
X47609D01*
X49196Y-13911D01*
X50411Y-12696D01*
X51068Y-11109D01*
Y-9391D01*
X50411Y-7804D01*
X49196Y-6589D01*
X47609Y-5932D01*
D02*
G37*
G36*
X47603Y-106020D02*
X43270D01*
Y-110103D01*
X44313D01*
X45572Y-109853D01*
X46639Y-109139D01*
X47353Y-108072D01*
X47603Y-106812D01*
Y-106020D01*
D02*
G37*
G36*
X-9141Y25318D02*
X-10859D01*
X-12446Y24661D01*
X-13661Y23446D01*
X-14318Y21859D01*
Y20141D01*
X-13661Y18554D01*
X-12446Y17339D01*
X-10859Y16682D01*
X-9141D01*
X-7554Y17339D01*
X-6339Y18554D01*
X-5682Y20141D01*
Y21859D01*
X-6339Y23446D01*
X-7554Y24661D01*
X-9141Y25318D01*
D02*
G37*
G36*
Y-16682D02*
X-10859D01*
X-12446Y-17339D01*
X-13661Y-18554D01*
X-14318Y-20141D01*
Y-21859D01*
X-13661Y-23446D01*
X-12446Y-24661D01*
X-10859Y-25318D01*
X-9141D01*
X-7554Y-24661D01*
X-6339Y-23446D01*
X-5682Y-21859D01*
Y-20141D01*
X-6339Y-18554D01*
X-7554Y-17339D01*
X-9141Y-16682D01*
D02*
G37*
%LPD*%
G36*
G01X45326Y182000D02*
G03X53626Y173700I8300J0D01*
G03X54238Y174312I0J612D01*
G01Y189688D01*
G03X53626Y190300I-612J0D01*
G03X45326Y182000I0J-8300D01*
D02*
G37*
G36*
G01X64674Y182000D02*
G02X56374Y173700I-8300J0D01*
G02X55762Y174312I0J612D01*
G01Y189688D01*
G02X56374Y190300I612J0D01*
G02X64674Y182000I0J-8300D01*
D02*
G37*
G36*
G01X-6326Y120000D02*
G03X-14626Y128300I-8300J0D01*
G03X-15238Y127688I0J-612D01*
G01Y112312D01*
G03X-14626Y111700I612J0D01*
G03X-6326Y120000I0J8300D01*
D02*
G37*
G36*
G01X-25674Y120000D02*
G02X-17374Y128300I8300J0D01*
G02X-16762Y127688I0J-612D01*
G01Y112312D01*
G02X-17374Y111700I-612J0D01*
G02X-25674Y120000I0J8300D01*
D02*
G37*
G36*
G01X63674Y103750D02*
G03X55374Y112050I-8300J0D01*
G03X54762Y111438I0J-612D01*
G01Y96062D01*
G03X55374Y95450I612J0D01*
G03X63674Y103750I0J8300D01*
D02*
G37*
G36*
G01X44326Y103750D02*
G02X52626Y112050I8300J0D01*
G02X53238Y111438I0J-612D01*
G01Y96062D01*
G02X52626Y95450I-612J0D01*
G02X44326Y103750I0J8300D01*
D02*
G37*
G36*
G01X44000Y-71674D02*
G03X52300Y-63374I0J8300D01*
G03X51688Y-62762I-612J0D01*
G01X36312D01*
G03X35700Y-63374I0J-612D01*
G03X44000Y-71674I8300J0D01*
D02*
G37*
G36*
G01X44000Y-52326D02*
G02X52300Y-60626I0J-8300D01*
G02X51688Y-61238I-612J0D01*
G01X36312D01*
G02X35700Y-60626I0J612D01*
G02X44000Y-52326I8300J0D01*
D02*
G37*
D16*
X42000Y-104750D02*
D03*
Y-95750D02*
D03*
X34000Y-176500D02*
D03*
Y-167500D02*
D03*
X-43000Y-119500D02*
D03*
Y-110500D02*
D03*
X55000Y237500D02*
D03*
Y228500D02*
D03*
X-45250Y117500D02*
D03*
Y108500D02*
D03*
X17000Y6500D02*
D03*
Y15500D02*
D03*
X27000Y6500D02*
D03*
Y15500D02*
D03*
X-55000Y237500D02*
D03*
Y228500D02*
D03*
X-7250Y-62000D02*
D03*
Y-53000D02*
D03*
X23000Y172000D02*
D03*
Y163000D02*
D03*
D17*
X15750Y-12000D02*
D03*
X24750D02*
D03*
X-61250Y-3000D02*
D03*
X-52250D02*
D03*
X-61250Y-13000D02*
D03*
X-52250D02*
D03*
X43000Y-32500D02*
D03*
X34000D02*
D03*
X45250Y31000D02*
D03*
X36250D02*
D03*
X45500Y21000D02*
D03*
X36500D02*
D03*
X-32500Y182000D02*
D03*
X-23500D02*
D03*
D36*
X43250Y243380D02*
D03*
X-43250D02*
D03*
D37*
X43250Y209580D02*
D03*
X-43250D02*
D03*
D38*
X29750Y199780D02*
D03*
X21250D02*
D03*
X12750D02*
D03*
X4250D02*
D03*
X-4250D02*
D03*
X-12750D02*
D03*
X-21250D02*
D03*
X-29750D02*
D03*
Y213280D02*
D03*
X-21250D02*
D03*
X-12750D02*
D03*
X-4250D02*
D03*
X4250D02*
D03*
X12750D02*
D03*
X21250D02*
D03*
X29750D02*
D03*
D41*
X33000Y-31250D02*
X34000Y-32250D01*
X36440Y-29810D02*
Y-28325D01*
X39075Y-25690D02*
X46560D01*
X33000Y-31250D02*
X35000D01*
X36440Y-28325D02*
X39075Y-25690D01*
X32250Y-31250D02*
X33000D01*
X35000D02*
X36440Y-29810D01*
X25000Y-24000D02*
X32250Y-31250D01*
X46560Y-25690D02*
X57250Y-15000D01*
Y13985D01*
X35639Y-127860D02*
X60298Y-103201D01*
X57000Y18546D02*
X60298Y15248D01*
X52060Y19175D02*
X57250Y13985D01*
X62957Y19773D02*
X63346Y19384D01*
Y-104463D02*
Y19384D01*
X60298Y-103201D02*
Y15248D01*
X36901Y-130908D02*
X63346Y-104463D01*
X-61250Y-101751D02*
X-35639Y-76140D01*
X15676D01*
X8798Y-117797D02*
Y-90548D01*
X1200Y-82950D02*
X8798Y-90548D01*
X-27250Y-82950D02*
X1200D01*
X-27250Y-95650D02*
X-2600D01*
X5750Y-104000D01*
Y-119750D02*
Y-104000D01*
Y-119750D02*
X16908Y-130908D01*
X8798Y-117797D02*
X18861Y-127860D01*
X16908Y-130908D02*
X36901D01*
X18861Y-127860D02*
X35639D01*
X76200Y12700D02*
Y13714D01*
X66390Y23524D02*
Y44610D01*
X57000Y18546D02*
Y46500D01*
X14250Y-112300D02*
Y-82081D01*
Y-112300D02*
X23000Y-121050D01*
X66390Y23524D02*
X76200Y13714D01*
X63750Y56750D02*
X69500Y51000D01*
X63750Y56750D02*
Y95000D01*
X67484Y98734D01*
Y108766D01*
X66390Y109860D02*
X67484Y108766D01*
X66390Y109860D02*
Y118458D01*
X76200Y128268D01*
Y139700D01*
X57000Y54000D02*
X66390Y44610D01*
X57000Y54000D02*
Y77200D01*
X57048Y100448D02*
X60350Y103750D01*
X57048Y77248D02*
Y100448D01*
X57000Y77200D02*
X57048Y77248D01*
X-53750Y106265D02*
X-48985Y101500D01*
X-27500D02*
X-10952Y84952D01*
X-48985Y101500D02*
X-27500D01*
X-10952Y84952D02*
X20453D01*
X-30189Y108500D02*
X-9689Y88000D01*
X19191D02*
X26099Y94908D01*
X-9689Y88000D02*
X19191D01*
X20453Y84952D02*
X27361Y91860D01*
X43900Y-12000D02*
X45650Y-10250D01*
X41750Y103750D02*
X47650D01*
X32908Y94908D02*
X41750Y103750D01*
X26099Y94908D02*
X32908D01*
X27361Y91860D02*
X48324D01*
X24750Y-12000D02*
X43900D01*
X45650Y-10250D02*
X46750D01*
X12750Y-3100D02*
Y-2000D01*
Y-3100D02*
X15750Y-6100D01*
Y-12000D02*
Y-6100D01*
X-61250Y-13000D02*
Y-3000D01*
X-52250Y-13000D02*
Y-3000D01*
X-61250Y-216750D02*
Y-101751D01*
X28514Y-66920D02*
X32080Y-63354D01*
X16000Y-34816D02*
Y-24000D01*
X15676Y-76140D02*
X24896Y-66920D01*
X28514D01*
X16000Y-34816D02*
X32080Y-50896D01*
Y-63354D02*
Y-50896D01*
X51920Y25315D02*
X52060Y25175D01*
X34000Y-45650D02*
X44000Y-55650D01*
X48324Y91860D02*
X53080Y87104D01*
X51920Y55630D02*
X53080Y56790D01*
X51920Y25315D02*
Y55630D01*
X52060Y19175D02*
Y25175D01*
X53080Y56790D02*
Y87104D01*
X-53750Y106265D02*
Y141000D01*
X43000Y-32500D02*
X49500D01*
X55000Y-27000D01*
X-9718Y169282D02*
X-9000Y168565D01*
Y145500D02*
Y168565D01*
Y145500D02*
X-5000Y141500D01*
X6500D01*
X-4250Y213280D02*
X-3298Y212328D01*
Y208812D02*
Y212328D01*
Y208812D02*
X2810Y202704D01*
Y202567D02*
Y202704D01*
Y202567D02*
X4250Y201126D01*
Y199780D02*
Y201126D01*
X-4250Y199780D02*
X-1548Y197078D01*
Y191737D02*
Y197078D01*
Y191737D02*
X3690Y186500D01*
X28500D01*
X35000Y180000D01*
Y124500D02*
Y180000D01*
X1500Y197030D02*
X4250Y199780D01*
X1500Y193000D02*
Y197030D01*
Y193000D02*
X4952Y189548D01*
X29762D01*
X38048Y181262D01*
Y124500D02*
Y181262D01*
X33000Y122500D02*
X35000Y120500D01*
Y112500D02*
Y120500D01*
X33000Y122500D02*
X35000Y124500D01*
X24500Y122500D02*
X33000D01*
X25548Y103048D02*
X35000Y112500D01*
X4000Y105080D02*
X6032Y103048D01*
X25548D01*
X38048Y124500D02*
X40048Y122500D01*
X48548D01*
X38048Y120500D02*
X40048Y122500D01*
X38048Y111237D02*
Y120500D01*
X26811Y100000D02*
X38048Y111237D01*
X6032Y100000D02*
X26811D01*
X4000Y97968D02*
X6032Y100000D01*
X12750Y-2000D02*
X17000Y2250D01*
Y5750D01*
X17750Y6500D01*
X25750Y-2000D02*
Y4512D01*
X27738Y6500D02*
X28000D01*
X25750Y4512D02*
X27738Y6500D01*
X-29500Y-25750D02*
X-23500Y-19750D01*
X-29500Y-32500D02*
Y-25750D01*
X-33250Y-62000D02*
X-28750Y-66500D01*
X-21750D01*
X-38250Y-57000D02*
X-33250Y-62000D01*
X-44750Y-57000D02*
X-38250D01*
X-21750Y-47500D02*
Y-41000D01*
X-29500Y-33250D02*
X-21750Y-41000D01*
X-63000Y-22000D02*
Y-20900D01*
X-61250Y-19150D01*
Y-13000D01*
X-46000Y-32500D02*
X-46000Y-32500D01*
Y-14100D01*
X-47100Y-13000D02*
X-46000Y-14100D01*
X-52250Y-13000D02*
X-47100D01*
X-53222Y-13972D02*
X-52250Y-13000D01*
X-53222Y-21222D02*
Y-13972D01*
X-54000Y-22000D02*
X-53222Y-21222D01*
X45375Y21125D02*
X45500Y21000D01*
X45375Y21125D02*
Y30875D01*
X45250Y31000D02*
X45375Y30875D01*
X49590Y10840D02*
X49750Y11000D01*
X40160Y10840D02*
X49590D01*
X36500Y14500D02*
X40160Y10840D01*
X45500Y21000D02*
X46250Y21750D01*
X45375Y31125D02*
X45500Y31000D01*
X45375Y38875D02*
X45500Y39000D01*
X45375Y31125D02*
Y38875D01*
X19251Y-77080D02*
X29104D01*
X37834Y-68350D01*
X44000D01*
X14250Y-82081D02*
X19251Y-77080D01*
X36500Y21000D02*
Y46200D01*
X23000Y-121050D02*
X27250D01*
X-76200Y-241300D02*
X-55000Y-220100D01*
Y-115250D01*
X-50250Y-110500D01*
X-43000D01*
X-42750D02*
X-40600Y-108350D01*
X-27250D01*
X-28025Y-120275D02*
X-27250Y-121050D01*
X-42225Y-120275D02*
X-28025D01*
X-43000Y-119500D02*
X-42225Y-120275D01*
X27250Y-95650D02*
X27300Y-95700D01*
X41950D01*
X42000Y-95750D01*
Y-88250D01*
Y-112250D02*
Y-104750D01*
X-7250Y-53000D02*
X2000D01*
X-7250Y-53000D02*
X-7250Y-53000D01*
X-7250Y-62000D02*
X2000D01*
X52000Y151000D02*
Y156000D01*
X76200Y180200D01*
Y190500D01*
X-45250Y108500D02*
X-30189D01*
X29180Y226430D02*
X33000Y230250D01*
X18000Y226430D02*
X29180D01*
X44240Y228500D02*
X55000D01*
X26516Y206530D02*
X26826Y206840D01*
X35875Y220135D02*
X44240Y228500D01*
X35875Y210743D02*
Y220135D01*
X-45250Y117500D02*
X-45000Y117750D01*
Y126000D01*
X33500Y-177000D02*
X34000Y-176500D01*
X20500Y-177000D02*
X33500D01*
X20500Y-167500D02*
X34000D01*
X7900Y-142000D02*
X7900Y-142000D01*
X-32900D02*
X-32900Y-142000D01*
X-19100Y-163900D02*
Y-142000D01*
Y-163900D02*
X-15500Y-167500D01*
X-4500D01*
X9000Y-157500D02*
X9500Y-158000D01*
X20500D01*
X-21100Y-184150D02*
X-13950Y-177000D01*
X-4500D01*
X49500Y132000D02*
X60000D01*
X3920Y-29920D02*
X27000Y-53000D01*
X-4920Y21736D02*
Y32920D01*
X-16000Y44000D02*
X-4920Y32920D01*
Y21736D02*
X896Y15920D01*
X3000Y21000D02*
Y54184D01*
X21166Y72350D01*
X10000Y52000D02*
X17650Y59650D01*
X10000Y24000D02*
Y52000D01*
X-3500Y151000D02*
X6500D01*
X6500Y151000D01*
X10000Y176000D02*
X11000D01*
X15000Y172000D01*
X23000D01*
X-47975Y85025D02*
X-35685D01*
X-32250Y197280D02*
X-29750Y199780D01*
X-32250Y182250D02*
Y197280D01*
X17650Y59650D02*
X35750D01*
X-54080Y53920D02*
X-48350Y59650D01*
X-35750D01*
X-57128Y43633D02*
Y55182D01*
Y43633D02*
X-30495Y17000D01*
X-57128Y55182D02*
X-47920Y64391D01*
X-54080Y44896D02*
Y53920D01*
X-47920Y64391D02*
Y69480D01*
X-54080Y44896D02*
X-34184Y25000D01*
X-25000D01*
X-30495Y17000D02*
X-25000D01*
X-15050Y-121050D02*
X-15000Y-121000D01*
X-27250Y-121050D02*
X-15050D01*
X-55000Y237500D02*
Y247000D01*
X55000Y237500D02*
Y247000D01*
X12750Y199780D02*
Y200826D01*
X18454Y206530D01*
X26516D01*
X31972Y206840D02*
X35875Y210743D01*
X26826Y206840D02*
X31972D01*
X-32500Y182000D02*
X-32250Y182250D01*
X-52222Y69778D02*
Y80778D01*
X-47975Y85025D01*
X-47920Y69480D02*
X-45050Y72350D01*
X-35750D01*
X-53000Y69000D02*
X-52222Y69778D01*
X35750Y85050D02*
X35775Y85025D01*
X47975D01*
X48000Y85000D01*
X-30000Y241000D02*
X-29930Y240930D01*
X-18000D01*
X-18364Y218894D02*
X-12750Y213280D01*
X34000Y-45650D02*
Y-32250D01*
X36500Y14500D02*
Y21000D01*
X35750Y46950D02*
X36500Y46200D01*
X3920Y-29920D02*
Y15000D01*
Y15500D02*
X18000D01*
X896Y15920D02*
X3500D01*
X3920Y15500D01*
X-23025Y46975D02*
X-23000Y47000D01*
X-35725Y46975D02*
X-23025D01*
X-35750Y46950D02*
X-35725Y46975D01*
X26260Y17240D02*
X28000Y15500D01*
X26260Y17240D02*
Y23811D01*
X26071Y24000D02*
X26260Y23811D01*
X21166Y72350D02*
X35750D01*
X-25654Y218894D02*
X-18364D01*
X-35260Y228500D02*
X-25654Y218894D01*
X-55000Y228500D02*
X-35260D01*
D43*
X-76200Y241300D02*
D03*
Y215900D02*
D03*
Y190500D02*
D03*
Y165100D02*
D03*
Y139700D02*
D03*
Y114300D02*
D03*
Y88900D02*
D03*
Y63500D02*
D03*
Y38100D02*
D03*
Y12700D02*
D03*
Y-12700D02*
D03*
Y-38100D02*
D03*
Y-63500D02*
D03*
Y-88900D02*
D03*
Y-114300D02*
D03*
Y-139700D02*
D03*
Y-165100D02*
D03*
Y-190500D02*
D03*
Y-215900D02*
D03*
Y-241300D02*
D03*
X76200D02*
D03*
Y-215900D02*
D03*
Y-190500D02*
D03*
Y-165100D02*
D03*
Y-139700D02*
D03*
Y-114300D02*
D03*
Y-88900D02*
D03*
Y-63500D02*
D03*
Y-38100D02*
D03*
Y-12700D02*
D03*
Y12700D02*
D03*
Y38100D02*
D03*
Y63500D02*
D03*
Y88900D02*
D03*
Y114300D02*
D03*
Y139700D02*
D03*
Y165100D02*
D03*
Y190500D02*
D03*
Y215900D02*
D03*
Y241300D02*
D03*
D44*
X69500Y51000D02*
D03*
X46750Y-10250D02*
D03*
X-61250Y-216750D02*
D03*
X0Y-231250D02*
D03*
X4000Y105080D02*
D03*
Y97968D02*
D03*
X12750Y-2000D02*
D03*
X25750D02*
D03*
X-23500Y-19750D02*
D03*
X-10000Y-21000D02*
D03*
X-33250Y-62000D02*
D03*
X62957Y19773D02*
D03*
X49750Y11000D02*
D03*
X45500Y39000D02*
D03*
X57000Y46500D02*
D03*
X27000Y-61250D02*
D03*
X42000Y-88250D02*
D03*
Y-112250D02*
D03*
X52000Y151000D02*
D03*
X-53750Y141000D02*
D03*
X33000Y230250D02*
D03*
X-3000Y101532D02*
D03*
X-45000Y126000D02*
D03*
X-21000Y-213000D02*
D03*
X-33000Y-153000D02*
D03*
X-35000Y-213000D02*
D03*
Y-174000D02*
D03*
X17000Y-142000D02*
D03*
X-37000Y-129500D02*
D03*
X9000Y-157500D02*
D03*
X60000Y132000D02*
D03*
X-3500Y151000D02*
D03*
X10000Y176000D02*
D03*
X-49000Y47000D02*
D03*
X-23000Y56000D02*
D03*
X-15000Y-121000D02*
D03*
X-55000Y247000D02*
D03*
X55000D02*
D03*
X-53000Y69000D02*
D03*
X48000Y85000D02*
D03*
X-30000Y241000D02*
D03*
X-16000Y44000D02*
D03*
X-25000Y17000D02*
D03*
X-23000Y47000D02*
D03*
X-25000Y25000D02*
D03*
X-10112Y66000D02*
D03*
X4112D02*
D03*
X-3000D02*
D03*
X-10000Y21000D02*
D03*
X3000D02*
D03*
X10000Y24000D02*
D03*
X24000Y47000D02*
D03*
X22000Y66000D02*
D03*
X26071Y24000D02*
D03*
X18000D02*
D03*
X-63000Y-22000D02*
D03*
X-54000D02*
D03*
X27000Y-53000D02*
D03*
Y-72000D02*
D03*
X2000Y-62000D02*
D03*
Y-53000D02*
D03*
X25000Y-24000D02*
D03*
X16000D02*
D03*
X55000Y-27000D02*
D03*
D45*
X64430Y229530D02*
X76200Y241300D01*
X64430Y219430D02*
Y229530D01*
X53298Y208298D02*
X64430Y219430D01*
X-21100Y-202000D02*
X-21050Y-202050D01*
Y-212950D02*
Y-202050D01*
Y-212950D02*
X-21000Y-213000D01*
X-33000Y-153000D02*
X-32950Y-152950D01*
Y-142050D01*
X-32900Y-142000D01*
X-35000Y-213000D02*
X-34950Y-212950D01*
Y-202050D01*
X-34900Y-202000D01*
X-35000Y-174000D02*
X-34950Y-174050D01*
Y-185450D02*
Y-174050D01*
Y-185450D02*
X-34900Y-185500D01*
X7900Y-142000D02*
X17000D01*
X53298Y197918D02*
Y208298D01*
X53000Y197620D02*
X53298Y197918D01*
X53000Y196000D02*
Y197620D01*
X48650Y191650D02*
X53000Y196000D01*
X48650Y182000D02*
Y191650D01*
X61350Y182000D02*
Y201050D01*
X76200Y215900D01*
D46*
X-21100Y-201500D02*
X-7000D01*
X-5900Y-157750D02*
Y-142000D01*
X-5900Y-142000D02*
X-5900Y-142000D01*
X-19100Y-142000D02*
X-5900D01*
X-19100Y-142000D02*
X-19100Y-142000D01*
X-19700Y-141400D02*
X-19100Y-142000D01*
X-19700Y-141400D02*
Y-134300D01*
X-22998Y-131002D02*
X-19700Y-134300D01*
X-35498Y-131002D02*
X-22998D01*
X-37000Y-129500D02*
X-35498Y-131002D01*
X20500Y-167500D02*
X20500Y-167500D01*
X13000Y-167500D02*
X20500D01*
X8001Y-172500D02*
X13000Y-167500D01*
X8001Y-187001D02*
Y-172500D01*
Y-187001D02*
X18000Y-197000D01*
Y-204500D02*
Y-197000D01*
X-21100Y-186850D02*
Y-185500D01*
Y-186850D02*
X-20500Y-187450D01*
X-13550D01*
X-4000Y-197000D01*
Y-204500D02*
Y-197000D01*
X-7000Y-201500D02*
X-4000Y-204500D01*
X24500Y144750D02*
X24500Y144750D01*
X24500Y136500D02*
Y144750D01*
X20000Y132000D02*
X24500Y136500D01*
X17000Y132000D02*
X20000D01*
X5000Y120000D02*
X17000Y132000D01*
X-9650Y120000D02*
X5000D01*
X-9650Y120000D02*
X-9650Y120000D01*
X-38500Y160500D02*
X-37000Y159000D01*
Y132000D02*
Y159000D01*
Y132000D02*
X-25000Y120000D01*
X-22350D01*
X-76200Y215900D02*
X-56500Y196200D01*
Y178500D02*
Y196200D01*
Y178500D02*
X-38500Y160500D01*
X-18500D01*
X-21250Y174984D02*
X-16564Y170298D01*
X-10733D01*
X24500Y144750D02*
Y155500D01*
X19500Y160500D02*
X24500Y155500D01*
X6500Y160500D02*
X19500D01*
X6500Y163750D02*
Y164596D01*
X1814Y169282D02*
X6500Y164596D01*
X-9718Y169282D02*
X1814D01*
X-10733Y170298D02*
X-9718Y169282D01*
X-21250Y174984D02*
Y199780D01*
D48*
X-21750Y-47500D02*
D03*
Y-66500D02*
D03*
X-44750Y-57000D02*
D03*
D49*
X-29500Y-32500D02*
D03*
X-46000D02*
D03*
D50*
X-34900Y-185500D02*
D03*
X-21100Y-185500D02*
D03*
X-34900Y-202000D02*
D03*
X-21100Y-202000D02*
D03*
X7900Y-142000D02*
D03*
X-5900Y-142000D02*
D03*
X-32900D02*
D03*
X-19100Y-142000D02*
D03*
D51*
X20500Y-177000D02*
D03*
X20500Y-167500D02*
D03*
Y-158000D02*
D03*
X-4500Y-158000D02*
D03*
X-4500Y-167500D02*
D03*
X-4500Y-177000D02*
D03*
X24500Y141500D02*
D03*
Y122500D02*
D03*
X49500D02*
D03*
X49500Y132000D02*
D03*
X49500Y141500D02*
D03*
X-18500Y160500D02*
D03*
X-18500Y141500D02*
D03*
X6500Y141500D02*
D03*
Y151000D02*
D03*
X6500Y160500D02*
D03*
D52*
X18000Y-204500D02*
D03*
X-4000Y-204500D02*
D03*
D53*
X35750Y85050D02*
D03*
Y72350D02*
D03*
Y59650D02*
D03*
Y46950D02*
D03*
X-35750Y85050D02*
D03*
Y72350D02*
D03*
Y59650D02*
D03*
Y46950D02*
D03*
X-27250Y-121050D02*
D03*
Y-108350D02*
D03*
Y-95650D02*
D03*
Y-82950D02*
D03*
X27250Y-121050D02*
D03*
Y-108350D02*
D03*
Y-95650D02*
D03*
Y-82950D02*
D03*
D54*
X-18000Y240930D02*
D03*
Y226430D02*
D03*
X18000Y240930D02*
D03*
Y226430D02*
D03*
D55*
X17505Y15995D02*
Y23505D01*
Y15995D02*
X18000Y15500D01*
X17505Y23505D02*
X18000Y24000D01*
M02*
