G04*
G04 #@! TF.GenerationSoftware,Altium Limited,Altium Designer,25.5.2 (35)*
G04*
G04 Layer_Color=8421504*
%FSLAX44Y44*%
%MOMM*%
G71*
G04*
G04 #@! TF.SameCoordinates,031FDC87-80B5-42A0-ABBE-4A2DC663B68C*
G04*
G04*
G04 #@! TF.FilePolarity,Positive*
G04*
G01*
G75*
G04:AMPARAMS|DCode=16|XSize=0.55mm|YSize=0.6mm|CornerRadius=0.0688mm|HoleSize=0mm|Usage=FLASHONLY|Rotation=90.000|XOffset=0mm|YOffset=0mm|HoleType=Round|Shape=RoundedRectangle|*
%AMROUNDEDRECTD16*
21,1,0.5500,0.4625,0,0,90.0*
21,1,0.4125,0.6000,0,0,90.0*
1,1,0.1375,0.2313,0.2063*
1,1,0.1375,0.2313,-0.2063*
1,1,0.1375,-0.2313,-0.2063*
1,1,0.1375,-0.2313,0.2063*
%
%ADD16ROUNDEDRECTD16*%
G04:AMPARAMS|DCode=17|XSize=0.55mm|YSize=0.6mm|CornerRadius=0.0688mm|HoleSize=0mm|Usage=FLASHONLY|Rotation=0.000|XOffset=0mm|YOffset=0mm|HoleType=Round|Shape=RoundedRectangle|*
%AMROUNDEDRECTD17*
21,1,0.5500,0.4625,0,0,0.0*
21,1,0.4125,0.6000,0,0,0.0*
1,1,0.1375,0.2063,-0.2313*
1,1,0.1375,-0.2063,-0.2313*
1,1,0.1375,-0.2063,0.2313*
1,1,0.1375,0.2063,0.2313*
%
%ADD17ROUNDEDRECTD17*%
G04:AMPARAMS|DCode=18|XSize=0.2mm|YSize=0.84mm|CornerRadius=0.05mm|HoleSize=0mm|Usage=FLASHONLY|Rotation=0.000|XOffset=0mm|YOffset=0mm|HoleType=Round|Shape=RoundedRectangle|*
%AMROUNDEDRECTD18*
21,1,0.2000,0.7400,0,0,0.0*
21,1,0.1000,0.8400,0,0,0.0*
1,1,0.1000,0.0500,-0.3700*
1,1,0.1000,-0.0500,-0.3700*
1,1,0.1000,-0.0500,0.3700*
1,1,0.1000,0.0500,0.3700*
%
%ADD18ROUNDEDRECTD18*%
G04:AMPARAMS|DCode=19|XSize=0.84mm|YSize=0.2mm|CornerRadius=0.05mm|HoleSize=0mm|Usage=FLASHONLY|Rotation=0.000|XOffset=0mm|YOffset=0mm|HoleType=Round|Shape=RoundedRectangle|*
%AMROUNDEDRECTD19*
21,1,0.8400,0.1000,0,0,0.0*
21,1,0.7400,0.2000,0,0,0.0*
1,1,0.1000,0.3700,-0.0500*
1,1,0.1000,-0.3700,-0.0500*
1,1,0.1000,-0.3700,0.0500*
1,1,0.1000,0.3700,0.0500*
%
%ADD19ROUNDEDRECTD19*%
G04:AMPARAMS|DCode=20|XSize=1.96mm|YSize=1.96mm|CornerRadius=0mm|HoleSize=0mm|Usage=FLASHONLY|Rotation=0.000|XOffset=0mm|YOffset=0mm|HoleType=Round|Shape=RoundedRectangle|*
%AMROUNDEDRECTD20*
21,1,1.9600,1.9600,0,0,0.0*
21,1,1.9600,1.9600,0,0,0.0*
1,1,0.0000,0.9800,-0.9800*
1,1,0.0000,-0.9800,-0.9800*
1,1,0.0000,-0.9800,0.9800*
1,1,0.0000,0.9800,0.9800*
%
%ADD20ROUNDEDRECTD20*%
G04:AMPARAMS|DCode=21|XSize=0.8mm|YSize=0.8mm|CornerRadius=0.05mm|HoleSize=0mm|Usage=FLASHONLY|Rotation=90.000|XOffset=0mm|YOffset=0mm|HoleType=Round|Shape=RoundedRectangle|*
%AMROUNDEDRECTD21*
21,1,0.8000,0.7000,0,0,90.0*
21,1,0.7000,0.8000,0,0,90.0*
1,1,0.1000,0.3500,0.3500*
1,1,0.1000,0.3500,-0.3500*
1,1,0.1000,-0.3500,-0.3500*
1,1,0.1000,-0.3500,0.3500*
%
%ADD21ROUNDEDRECTD21*%
G04:AMPARAMS|DCode=22|XSize=1.05mm|YSize=1.3mm|CornerRadius=0.05mm|HoleSize=0mm|Usage=FLASHONLY|Rotation=90.000|XOffset=0mm|YOffset=0mm|HoleType=Round|Shape=RoundedRectangle|*
%AMROUNDEDRECTD22*
21,1,1.0500,1.2000,0,0,90.0*
21,1,0.9500,1.3000,0,0,90.0*
1,1,0.1000,0.6000,0.4750*
1,1,0.1000,0.6000,-0.4750*
1,1,0.1000,-0.6000,-0.4750*
1,1,0.1000,-0.6000,0.4750*
%
%ADD22ROUNDEDRECTD22*%
G04:AMPARAMS|DCode=23|XSize=1.15mm|YSize=1.05mm|CornerRadius=0.1313mm|HoleSize=0mm|Usage=FLASHONLY|Rotation=270.000|XOffset=0mm|YOffset=0mm|HoleType=Round|Shape=RoundedRectangle|*
%AMROUNDEDRECTD23*
21,1,1.1500,0.7875,0,0,270.0*
21,1,0.8875,1.0500,0,0,270.0*
1,1,0.2625,-0.3938,-0.4438*
1,1,0.2625,-0.3938,0.4438*
1,1,0.2625,0.3938,0.4438*
1,1,0.2625,0.3938,-0.4438*
%
%ADD23ROUNDEDRECTD23*%
%ADD24R,1.0500X1.1500*%
D16*
X-41000Y56500D02*
D03*
Y47500D02*
D03*
X3000Y56500D02*
D03*
Y47500D02*
D03*
X9000Y-61500D02*
D03*
Y-52500D02*
D03*
X-6000D02*
D03*
Y-61500D02*
D03*
X-31000Y47500D02*
D03*
Y56500D02*
D03*
X-8000D02*
D03*
Y47500D02*
D03*
X19000Y-61500D02*
D03*
Y-52500D02*
D03*
X6000Y74500D02*
D03*
Y83500D02*
D03*
X18000Y74500D02*
D03*
Y83500D02*
D03*
D17*
X31500Y57000D02*
D03*
X22500D02*
D03*
X31500Y47000D02*
D03*
X40500D02*
D03*
X18500Y-72000D02*
D03*
X9500D02*
D03*
X-24500Y-61000D02*
D03*
X-15500D02*
D03*
D18*
X-26000Y-34350D02*
D03*
X-22000D02*
D03*
X-18000D02*
D03*
X-14000D02*
D03*
X-10000D02*
D03*
X-6000D02*
D03*
X-2000D02*
D03*
X2000D02*
D03*
X6000D02*
D03*
X10000D02*
D03*
X14000D02*
D03*
X18000D02*
D03*
X22000D02*
D03*
X26000D02*
D03*
Y34350D02*
D03*
X22000D02*
D03*
X18000D02*
D03*
X14000D02*
D03*
X10000D02*
D03*
X6000D02*
D03*
X2000D02*
D03*
X-2000D02*
D03*
X-6000D02*
D03*
X-10000D02*
D03*
X-14000D02*
D03*
X-18000D02*
D03*
X-22000D02*
D03*
X-26000D02*
D03*
D19*
X-34350Y26000D02*
D03*
Y22000D02*
D03*
Y18000D02*
D03*
Y14000D02*
D03*
Y10000D02*
D03*
Y6000D02*
D03*
Y2000D02*
D03*
Y-2000D02*
D03*
Y-6000D02*
D03*
Y-10000D02*
D03*
Y-14000D02*
D03*
Y-18000D02*
D03*
Y-22000D02*
D03*
Y-26000D02*
D03*
X34350D02*
D03*
Y-22000D02*
D03*
Y-18000D02*
D03*
Y-14000D02*
D03*
Y-10000D02*
D03*
Y-6000D02*
D03*
Y-2000D02*
D03*
Y2000D02*
D03*
Y6000D02*
D03*
Y10000D02*
D03*
Y14000D02*
D03*
Y18000D02*
D03*
Y22000D02*
D03*
Y26000D02*
D03*
D20*
X0Y0D02*
D03*
D21*
X-1Y163501D02*
D03*
X-1Y178501D02*
D03*
D22*
X-5500Y-74250D02*
D03*
X-28500D02*
D03*
X-28500Y-91750D02*
D03*
X-5500D02*
D03*
D23*
X38230Y140730D02*
D03*
X22730D02*
D03*
X38230Y174230D02*
D03*
X-22730Y140730D02*
D03*
X-38230D02*
D03*
X-22730Y174230D02*
D03*
D24*
X22730D02*
D03*
X-38230D02*
D03*
M02*
