G04*
G04 #@! TF.GenerationSoftware,Altium Limited,Altium Designer,25.5.2 (35)*
G04*
G04 Layer_Physical_Order=1*
G04 Layer_Color=255*
%FSLAX44Y44*%
%MOMM*%
G71*
G04*
G04 #@! TF.SameCoordinates,031FDC87-80B5-42A0-ABBE-4A2DC663B68C*
G04*
G04*
G04 #@! TF.FilePolarity,Positive*
G04*
G01*
G75*
G04:AMPARAMS|DCode=16|XSize=0.55mm|YSize=0.6mm|CornerRadius=0.0688mm|HoleSize=0mm|Usage=FLASHONLY|Rotation=90.000|XOffset=0mm|YOffset=0mm|HoleType=Round|Shape=RoundedRectangle|*
%AMROUNDEDRECTD16*
21,1,0.5500,0.4625,0,0,90.0*
21,1,0.4125,0.6000,0,0,90.0*
1,1,0.1375,0.2313,0.2063*
1,1,0.1375,0.2313,-0.2063*
1,1,0.1375,-0.2313,-0.2063*
1,1,0.1375,-0.2313,0.2063*
%
%ADD16ROUNDEDRECTD16*%
G04:AMPARAMS|DCode=17|XSize=0.55mm|YSize=0.6mm|CornerRadius=0.0688mm|HoleSize=0mm|Usage=FLASHONLY|Rotation=0.000|XOffset=0mm|YOffset=0mm|HoleType=Round|Shape=RoundedRectangle|*
%AMROUNDEDRECTD17*
21,1,0.5500,0.4625,0,0,0.0*
21,1,0.4125,0.6000,0,0,0.0*
1,1,0.1375,0.2063,-0.2313*
1,1,0.1375,-0.2063,-0.2313*
1,1,0.1375,-0.2063,0.2313*
1,1,0.1375,0.2063,0.2313*
%
%ADD17ROUNDEDRECTD17*%
G04:AMPARAMS|DCode=18|XSize=0.2mm|YSize=0.84mm|CornerRadius=0.05mm|HoleSize=0mm|Usage=FLASHONLY|Rotation=0.000|XOffset=0mm|YOffset=0mm|HoleType=Round|Shape=RoundedRectangle|*
%AMROUNDEDRECTD18*
21,1,0.2000,0.7400,0,0,0.0*
21,1,0.1000,0.8400,0,0,0.0*
1,1,0.1000,0.0500,-0.3700*
1,1,0.1000,-0.0500,-0.3700*
1,1,0.1000,-0.0500,0.3700*
1,1,0.1000,0.0500,0.3700*
%
%ADD18ROUNDEDRECTD18*%
G04:AMPARAMS|DCode=19|XSize=0.84mm|YSize=0.2mm|CornerRadius=0.05mm|HoleSize=0mm|Usage=FLASHONLY|Rotation=0.000|XOffset=0mm|YOffset=0mm|HoleType=Round|Shape=RoundedRectangle|*
%AMROUNDEDRECTD19*
21,1,0.8400,0.1000,0,0,0.0*
21,1,0.7400,0.2000,0,0,0.0*
1,1,0.1000,0.3700,-0.0500*
1,1,0.1000,-0.3700,-0.0500*
1,1,0.1000,-0.3700,0.0500*
1,1,0.1000,0.3700,0.0500*
%
%ADD19ROUNDEDRECTD19*%
G04:AMPARAMS|DCode=21|XSize=0.8mm|YSize=0.8mm|CornerRadius=0.05mm|HoleSize=0mm|Usage=FLASHONLY|Rotation=90.000|XOffset=0mm|YOffset=0mm|HoleType=Round|Shape=RoundedRectangle|*
%AMROUNDEDRECTD21*
21,1,0.8000,0.7000,0,0,90.0*
21,1,0.7000,0.8000,0,0,90.0*
1,1,0.1000,0.3500,0.3500*
1,1,0.1000,0.3500,-0.3500*
1,1,0.1000,-0.3500,-0.3500*
1,1,0.1000,-0.3500,0.3500*
%
%ADD21ROUNDEDRECTD21*%
G04:AMPARAMS|DCode=22|XSize=1.05mm|YSize=1.3mm|CornerRadius=0.05mm|HoleSize=0mm|Usage=FLASHONLY|Rotation=90.000|XOffset=0mm|YOffset=0mm|HoleType=Round|Shape=RoundedRectangle|*
%AMROUNDEDRECTD22*
21,1,1.0500,1.2000,0,0,90.0*
21,1,0.9500,1.3000,0,0,90.0*
1,1,0.1000,0.6000,0.4750*
1,1,0.1000,0.6000,-0.4750*
1,1,0.1000,-0.6000,-0.4750*
1,1,0.1000,-0.6000,0.4750*
%
%ADD22ROUNDEDRECTD22*%
G04:AMPARAMS|DCode=23|XSize=1.15mm|YSize=1.05mm|CornerRadius=0.1313mm|HoleSize=0mm|Usage=FLASHONLY|Rotation=270.000|XOffset=0mm|YOffset=0mm|HoleType=Round|Shape=RoundedRectangle|*
%AMROUNDEDRECTD23*
21,1,1.1500,0.7875,0,0,270.0*
21,1,0.8875,1.0500,0,0,270.0*
1,1,0.2625,-0.3938,-0.4438*
1,1,0.2625,-0.3938,0.4438*
1,1,0.2625,0.3938,0.4438*
1,1,0.2625,0.3938,-0.4438*
%
%ADD23ROUNDEDRECTD23*%
%ADD24R,1.0500X1.1500*%
G04:AMPARAMS|DCode=36|XSize=0.9mm|YSize=1.7mm|CornerRadius=0.45mm|HoleSize=0mm|Usage=FLASHONLY|Rotation=180.000|XOffset=0mm|YOffset=0mm|HoleType=Round|Shape=RoundedRectangle|*
%AMROUNDEDRECTD36*
21,1,0.9000,0.8000,0,0,180.0*
21,1,0.0000,1.7000,0,0,180.0*
1,1,0.9000,0.0000,0.4000*
1,1,0.9000,0.0000,0.4000*
1,1,0.9000,0.0000,-0.4000*
1,1,0.9000,0.0000,-0.4000*
%
%ADD36ROUNDEDRECTD36*%
G04:AMPARAMS|DCode=37|XSize=0.9mm|YSize=2.4mm|CornerRadius=0.45mm|HoleSize=0mm|Usage=FLASHONLY|Rotation=180.000|XOffset=0mm|YOffset=0mm|HoleType=Round|Shape=RoundedRectangle|*
%AMROUNDEDRECTD37*
21,1,0.9000,1.5000,0,0,180.0*
21,1,0.0000,2.4000,0,0,180.0*
1,1,0.9000,0.0000,0.7500*
1,1,0.9000,0.0000,0.7500*
1,1,0.9000,0.0000,-0.7500*
1,1,0.9000,0.0000,-0.7500*
%
%ADD37ROUNDEDRECTD37*%
%ADD38C,0.6500*%
%ADD39O,1.0000X1.5000*%
G04:AMPARAMS|DCode=40|XSize=3.1mm|YSize=3.1mm|CornerRadius=0.05mm|HoleSize=0mm|Usage=FLASHONLY|Rotation=0.000|XOffset=0mm|YOffset=0mm|HoleType=Round|Shape=RoundedRectangle|*
%AMROUNDEDRECTD40*
21,1,3.1000,3.0000,0,0,0.0*
21,1,3.0000,3.1000,0,0,0.0*
1,1,0.1000,1.5000,-1.5000*
1,1,0.1000,-1.5000,-1.5000*
1,1,0.1000,-1.5000,1.5000*
1,1,0.1000,1.5000,1.5000*
%
%ADD40ROUNDEDRECTD40*%
%ADD41C,0.1524*%
%ADD42C,0.2500*%
%ADD43C,1.2000*%
%ADD44C,0.5588*%
G36*
X82550Y252441D02*
X84383Y252077D01*
X85938Y251038D01*
X86977Y249484D01*
X87341Y247650D01*
X87341D01*
Y-247650D01*
X87341D01*
X86977Y-249484D01*
X85938Y-251038D01*
X84383Y-252077D01*
X82550Y-252441D01*
Y-252442D01*
X23669D01*
X23316Y-251050D01*
X23331Y-250917D01*
X24653Y-249903D01*
X25699Y-248540D01*
X26356Y-246953D01*
X26580Y-245250D01*
Y-240250D01*
X26356Y-238547D01*
X25699Y-236960D01*
X24653Y-235597D01*
X23290Y-234551D01*
X23010Y-232786D01*
X34648Y-221148D01*
X35153Y-220392D01*
X35331Y-219500D01*
Y-180318D01*
X36739Y-179735D01*
X69486Y-212482D01*
X69189Y-212996D01*
X68676Y-214909D01*
Y-216891D01*
X69189Y-218804D01*
X70179Y-220520D01*
X71580Y-221921D01*
X73296Y-222911D01*
X75209Y-223424D01*
X77190D01*
X79104Y-222911D01*
X80820Y-221921D01*
X82221Y-220520D01*
X83211Y-218804D01*
X83724Y-216891D01*
Y-214909D01*
X83211Y-212996D01*
X82221Y-211280D01*
X80820Y-209879D01*
X79104Y-208889D01*
X77190Y-208376D01*
X75209D01*
X73296Y-208889D01*
X72782Y-209186D01*
X39251Y-175655D01*
Y-93435D01*
X40775Y-92416D01*
X41141Y-92568D01*
X42859D01*
X43225Y-92416D01*
X44749Y-93435D01*
Y-161380D01*
X44927Y-162272D01*
X45432Y-163028D01*
X69486Y-187082D01*
X69189Y-187596D01*
X68676Y-189510D01*
Y-191490D01*
X69189Y-193404D01*
X70179Y-195120D01*
X71580Y-196521D01*
X73296Y-197511D01*
X75209Y-198024D01*
X77190D01*
X79104Y-197511D01*
X80820Y-196521D01*
X82221Y-195120D01*
X83211Y-193404D01*
X83724Y-191490D01*
Y-189510D01*
X83211Y-187596D01*
X82221Y-185880D01*
X80820Y-184479D01*
X79104Y-183489D01*
X77190Y-182976D01*
X75209D01*
X73296Y-183489D01*
X72782Y-183786D01*
X49411Y-160415D01*
Y-147408D01*
X50819Y-146825D01*
X68676Y-164682D01*
Y-166091D01*
X69189Y-168004D01*
X70179Y-169720D01*
X71580Y-171121D01*
X73296Y-172111D01*
X75209Y-172624D01*
X77190D01*
X79104Y-172111D01*
X80820Y-171121D01*
X82221Y-169720D01*
X83211Y-168004D01*
X83724Y-166091D01*
Y-164109D01*
X83211Y-162196D01*
X82221Y-160480D01*
X80820Y-159079D01*
X79104Y-158089D01*
X77190Y-157576D01*
X75209D01*
X73296Y-158089D01*
X71580Y-159079D01*
X70623Y-160037D01*
X53131Y-142545D01*
Y-122049D01*
X54655Y-121451D01*
X69486Y-136282D01*
X69189Y-136796D01*
X68676Y-138709D01*
Y-140690D01*
X69189Y-142604D01*
X70179Y-144320D01*
X71580Y-145721D01*
X73296Y-146711D01*
X75209Y-147224D01*
X77190D01*
X79104Y-146711D01*
X80820Y-145721D01*
X82221Y-144320D01*
X83211Y-142604D01*
X83724Y-140690D01*
Y-138709D01*
X83211Y-136796D01*
X82221Y-135080D01*
X80820Y-133679D01*
X79104Y-132689D01*
X77190Y-132176D01*
X75209D01*
X73296Y-132689D01*
X72782Y-132986D01*
X58211Y-118415D01*
Y-101598D01*
X59619Y-101015D01*
X69486Y-110882D01*
X69189Y-111396D01*
X68676Y-113309D01*
Y-115290D01*
X69189Y-117204D01*
X70179Y-118920D01*
X71580Y-120321D01*
X73296Y-121311D01*
X75209Y-121824D01*
X77190D01*
X79104Y-121311D01*
X80820Y-120321D01*
X82221Y-118920D01*
X83211Y-117204D01*
X83724Y-115290D01*
Y-113309D01*
X83211Y-111396D01*
X82221Y-109680D01*
X80820Y-108279D01*
X79104Y-107289D01*
X77190Y-106776D01*
X75209D01*
X73296Y-107289D01*
X72782Y-107586D01*
X61259Y-96063D01*
Y-79246D01*
X62667Y-78663D01*
X69486Y-85482D01*
X69189Y-85996D01*
X68676Y-87909D01*
Y-89890D01*
X69189Y-91804D01*
X70179Y-93520D01*
X71580Y-94921D01*
X73296Y-95911D01*
X75209Y-96424D01*
X77190D01*
X79104Y-95911D01*
X80820Y-94921D01*
X82221Y-93520D01*
X83211Y-91804D01*
X83724Y-89890D01*
Y-87909D01*
X83211Y-85996D01*
X82221Y-84280D01*
X80820Y-82879D01*
X79104Y-81889D01*
X77190Y-81376D01*
X75209D01*
X73296Y-81889D01*
X72782Y-82186D01*
X64307Y-73711D01*
Y-47236D01*
X64129Y-46345D01*
X63624Y-45588D01*
X52251Y-34215D01*
Y-32185D01*
X53775Y-31166D01*
X54141Y-31318D01*
X55859D01*
X57446Y-30661D01*
X58661Y-29446D01*
X59318Y-27859D01*
Y-26141D01*
X58661Y-24554D01*
X57446Y-23339D01*
X56553Y-22970D01*
Y-22222D01*
X56376Y-21330D01*
X55870Y-20574D01*
X49331Y-14035D01*
Y-13776D01*
X50411Y-12696D01*
X51068Y-11109D01*
Y-9391D01*
X50411Y-7804D01*
X49903Y-7297D01*
X50535Y-5773D01*
X57536D01*
X61011Y-9247D01*
Y-39115D01*
X61189Y-40007D01*
X61694Y-40764D01*
X73869Y-52939D01*
Y-56335D01*
X73296Y-56489D01*
X71580Y-57479D01*
X70179Y-58880D01*
X69189Y-60596D01*
X68676Y-62509D01*
Y-64490D01*
X69189Y-66404D01*
X70179Y-68120D01*
X71580Y-69521D01*
X73296Y-70511D01*
X75209Y-71024D01*
X77190D01*
X79104Y-70511D01*
X80820Y-69521D01*
X82221Y-68120D01*
X83211Y-66404D01*
X83724Y-64490D01*
Y-62509D01*
X83211Y-60596D01*
X82221Y-58880D01*
X80820Y-57479D01*
X79104Y-56489D01*
X78531Y-56335D01*
Y-51973D01*
X78353Y-51082D01*
X77848Y-50325D01*
X74547Y-47024D01*
X75103Y-45848D01*
X75302Y-45624D01*
X77190D01*
X79104Y-45111D01*
X80820Y-44121D01*
X82221Y-42720D01*
X83211Y-41004D01*
X83724Y-39090D01*
Y-37109D01*
X83211Y-35196D01*
X82221Y-33480D01*
X80820Y-32079D01*
X79104Y-31089D01*
X77190Y-30576D01*
X75209D01*
X73296Y-31089D01*
X72782Y-31386D01*
X68721Y-27325D01*
Y-17842D01*
X69946Y-17404D01*
X70245Y-17385D01*
X71580Y-18721D01*
X73296Y-19711D01*
X75209Y-20224D01*
X77190D01*
X79104Y-19711D01*
X80820Y-18721D01*
X82221Y-17320D01*
X83211Y-15604D01*
X83724Y-13691D01*
Y-11710D01*
X83211Y-9796D01*
X82221Y-8080D01*
X80820Y-6679D01*
X79104Y-5689D01*
X77190Y-5176D01*
X75209D01*
X73296Y-5689D01*
X72896Y-5919D01*
X64796Y2181D01*
X65379Y3589D01*
X69420D01*
X70312Y3767D01*
X71068Y4272D01*
X72782Y5986D01*
X73296Y5689D01*
X75209Y5176D01*
X77190D01*
X79104Y5689D01*
X80820Y6679D01*
X82221Y8080D01*
X83211Y9796D01*
X83724Y11710D01*
Y13691D01*
X83211Y15604D01*
X82221Y17320D01*
X80820Y18721D01*
X79104Y19711D01*
X77190Y20224D01*
X75209D01*
X73296Y19711D01*
X71580Y18721D01*
X70179Y17320D01*
X69189Y15604D01*
X68676Y13691D01*
Y11710D01*
X69189Y9796D01*
X69486Y9282D01*
X68455Y8251D01*
X54935D01*
X53916Y9775D01*
X54068Y10141D01*
Y11859D01*
X53916Y12225D01*
X54935Y13749D01*
X59264D01*
X60156Y13927D01*
X60912Y14432D01*
X61983Y15503D01*
X62098Y15455D01*
X63816D01*
X65403Y16112D01*
X66618Y17327D01*
X67275Y18914D01*
Y20632D01*
X67227Y20747D01*
X68298Y21818D01*
X68803Y22574D01*
X68981Y23466D01*
Y27584D01*
X72782Y31386D01*
X73296Y31089D01*
X75209Y30576D01*
X77190D01*
X79104Y31089D01*
X80820Y32079D01*
X82221Y33480D01*
X83211Y35196D01*
X83724Y37109D01*
Y39090D01*
X83211Y41004D01*
X82221Y42720D01*
X80820Y44121D01*
X79104Y45111D01*
X77190Y45624D01*
X75209D01*
X73296Y45111D01*
X71580Y44121D01*
X70179Y42720D01*
X69189Y41004D01*
X68676Y39090D01*
Y37109D01*
X69189Y35196D01*
X69486Y34682D01*
X65002Y30198D01*
X64496Y29442D01*
X64319Y28550D01*
Y25499D01*
X63816Y24091D01*
X62098D01*
X60511Y23433D01*
X59296Y22219D01*
X58639Y20632D01*
Y18914D01*
X57231Y18411D01*
X50869D01*
X50286Y19819D01*
X58648Y28181D01*
X59153Y28937D01*
X59331Y29829D01*
Y42792D01*
X59446Y42839D01*
X60661Y44054D01*
X60982Y44829D01*
X64895Y48742D01*
X65839Y48554D01*
X67054Y47339D01*
X68641Y46682D01*
X70359D01*
X71946Y47339D01*
X73161Y48554D01*
X73818Y50141D01*
Y51859D01*
X73161Y53446D01*
X71946Y54661D01*
X71758Y55605D01*
X72881Y56728D01*
X73296Y56489D01*
X75209Y55976D01*
X77190D01*
X79104Y56489D01*
X80820Y57479D01*
X82221Y58880D01*
X83211Y60596D01*
X83724Y62509D01*
Y64490D01*
X83211Y66404D01*
X82221Y68120D01*
X80820Y69521D01*
X79104Y70511D01*
X77190Y71024D01*
X75209D01*
X73296Y70511D01*
X71580Y69521D01*
X70179Y68120D01*
X69189Y66404D01*
X68676Y64490D01*
Y62509D01*
X69189Y60596D01*
X69543Y59983D01*
X67971Y58411D01*
X67396D01*
X66504Y58233D01*
X65748Y57728D01*
X62772Y54752D01*
X62267Y53996D01*
X62089Y53104D01*
Y52529D01*
X59583Y50023D01*
X59446Y50161D01*
X57859Y50818D01*
X56141D01*
X55775Y50666D01*
X54251Y51685D01*
Y63655D01*
X72782Y82186D01*
X73296Y81889D01*
X75209Y81376D01*
X77190D01*
X79104Y81889D01*
X80820Y82879D01*
X82221Y84280D01*
X83211Y85996D01*
X83724Y87909D01*
Y89890D01*
X83211Y91804D01*
X82221Y93520D01*
X80820Y94921D01*
X79104Y95911D01*
X77190Y96424D01*
X75302D01*
X75103Y96649D01*
X74547Y97824D01*
X77848Y101125D01*
X78353Y101882D01*
X78531Y102773D01*
Y107135D01*
X79104Y107289D01*
X80820Y108279D01*
X82221Y109680D01*
X83211Y111396D01*
X83724Y113309D01*
Y115290D01*
X83211Y117204D01*
X82221Y118920D01*
X80820Y120321D01*
X79104Y121311D01*
X77190Y121824D01*
X75209D01*
X73296Y121311D01*
X71580Y120321D01*
X70179Y118920D01*
X69189Y117204D01*
X68676Y115290D01*
Y113309D01*
X69189Y111396D01*
X70179Y109680D01*
X71580Y108279D01*
X73296Y107289D01*
X73869Y107135D01*
Y103739D01*
X53726Y83596D01*
X52851Y83935D01*
X52318Y84343D01*
Y85859D01*
X51661Y87446D01*
X50446Y88661D01*
X48859Y89318D01*
X47141D01*
X45554Y88661D01*
X44339Y87446D01*
X43682Y85859D01*
Y84141D01*
X44339Y82554D01*
X45554Y81339D01*
X47141Y80682D01*
X48657D01*
X49065Y80149D01*
X49404Y79274D01*
X47224Y77094D01*
X46719Y76337D01*
X46541Y75445D01*
Y42812D01*
X46719Y41920D01*
X47224Y41164D01*
X48249Y40139D01*
Y32996D01*
X41638Y26384D01*
X41115Y26424D01*
X40028Y26930D01*
X39957Y27290D01*
X39509Y27959D01*
X38840Y28407D01*
X38050Y28564D01*
X37314D01*
X37288Y28569D01*
X36681Y29869D01*
Y33385D01*
X42148Y38852D01*
X42653Y39608D01*
X42831Y40500D01*
Y42486D01*
X43425Y42604D01*
X44157Y43093D01*
X44646Y43825D01*
X44817Y44688D01*
Y49313D01*
X44646Y50175D01*
X44157Y50907D01*
X43425Y51396D01*
X42831Y51514D01*
Y59500D01*
X42653Y60392D01*
X42148Y61148D01*
X35648Y67648D01*
X34892Y68153D01*
X34000Y68331D01*
X25708D01*
X25661Y68446D01*
X24446Y69661D01*
X23274Y70146D01*
X22618Y71213D01*
X22449Y71842D01*
X22567Y72438D01*
Y76562D01*
X22396Y77425D01*
X21961Y78076D01*
X21910Y78159D01*
X21908Y79000D01*
X21910Y79841D01*
X21961Y79924D01*
X22396Y80575D01*
X22567Y81438D01*
Y85562D01*
X22396Y86425D01*
X21907Y87157D01*
X21175Y87646D01*
X20312Y87817D01*
X16979D01*
X15855Y88941D01*
Y99787D01*
X15677Y100679D01*
X15172Y101435D01*
X11911Y104696D01*
X11155Y105201D01*
X10263Y105379D01*
X8318D01*
Y105939D01*
X7661Y107526D01*
X6446Y108741D01*
X4859Y109398D01*
X3141D01*
X1554Y108741D01*
X339Y107526D01*
X-318Y105939D01*
Y104221D01*
X339Y102634D01*
X1449Y101524D01*
X339Y100414D01*
X-318Y98827D01*
Y97109D01*
X339Y95522D01*
X1554Y94307D01*
X3141Y93650D01*
X4859D01*
X6446Y94307D01*
X6621Y94483D01*
X8145Y93851D01*
Y88941D01*
X7021Y87817D01*
X3688D01*
X2825Y87646D01*
X2093Y87157D01*
X1604Y86425D01*
X1433Y85562D01*
Y81438D01*
X1604Y80575D01*
X2039Y79924D01*
X2090Y79841D01*
X2092Y79000D01*
X2090Y78159D01*
X2039Y78076D01*
X1604Y77425D01*
X1433Y76562D01*
Y72438D01*
X1604Y71575D01*
X2093Y70843D01*
X2825Y70354D01*
X3688Y70183D01*
X7281D01*
X7669Y69794D01*
Y62702D01*
X7343Y62375D01*
X6145Y61688D01*
X5312Y61853D01*
X4270D01*
Y56500D01*
X1730D01*
Y61853D01*
X1115D01*
X511Y62928D01*
X444Y63337D01*
X661Y63554D01*
X1318Y65141D01*
Y66859D01*
X661Y68446D01*
X-554Y69661D01*
X-2141Y70318D01*
X-3859D01*
X-5446Y69661D01*
X-6661Y68446D01*
X-7318Y66859D01*
Y65141D01*
X-6661Y63554D01*
X-6484Y63377D01*
X-6730Y62783D01*
Y56500D01*
X-8000D01*
Y55230D01*
X-13603D01*
Y54437D01*
X-13353Y53178D01*
X-12639Y52111D01*
X-12396Y50425D01*
X-12515Y49828D01*
X-13392Y49653D01*
X-14148Y49148D01*
X-15026Y48270D01*
X-15141Y48318D01*
X-16859D01*
X-17277Y48145D01*
X-18565Y47883D01*
X-19116Y48907D01*
X-19339Y49446D01*
X-20554Y50661D01*
X-20589Y50675D01*
Y52325D01*
X-20554Y52339D01*
X-19339Y53554D01*
X-18682Y55141D01*
Y56859D01*
X-19339Y58446D01*
X-20554Y59661D01*
X-20669Y59708D01*
Y93535D01*
X19197Y133400D01*
X26667D01*
X27774Y133621D01*
X28712Y134248D01*
X29339Y135186D01*
X29560Y136292D01*
Y143562D01*
X29876Y143773D01*
X31400Y142959D01*
Y136292D01*
X31621Y135186D01*
X32248Y134248D01*
X33186Y133621D01*
X34293Y133400D01*
X42168D01*
X43274Y133621D01*
X44212Y134248D01*
X44839Y135186D01*
X45060Y136292D01*
Y143609D01*
X46584Y144240D01*
X47751Y143073D01*
X48507Y142568D01*
X49399Y142390D01*
X56471D01*
X57363Y142568D01*
X58119Y143073D01*
X73194Y158148D01*
X73296Y158089D01*
X75209Y157576D01*
X77190D01*
X79104Y158089D01*
X80820Y159079D01*
X82221Y160480D01*
X83211Y162196D01*
X83724Y164109D01*
Y166091D01*
X83211Y168004D01*
X82221Y169720D01*
X80820Y171121D01*
X79104Y172111D01*
X77190Y172624D01*
X75209D01*
X73296Y172111D01*
X72782Y171814D01*
X63681Y180916D01*
Y216400D01*
X63503Y217292D01*
X62998Y218048D01*
X49148Y231898D01*
X48392Y232403D01*
X47500Y232581D01*
X36708D01*
X36661Y232696D01*
X35446Y233911D01*
X33859Y234568D01*
X32141D01*
X30554Y233911D01*
X29339Y232696D01*
X28682Y231109D01*
Y229391D01*
X29339Y227804D01*
X30554Y226589D01*
X32141Y225932D01*
X33859D01*
X35446Y226589D01*
X36661Y227804D01*
X36708Y227919D01*
X46535D01*
X59019Y215435D01*
Y179950D01*
X59197Y179058D01*
X59702Y178302D01*
X69486Y168518D01*
X69189Y168004D01*
X68676Y166091D01*
Y164109D01*
X69189Y162196D01*
X69724Y161270D01*
X57524Y149070D01*
X56232Y149934D01*
X56318Y150141D01*
Y151859D01*
X55661Y153446D01*
X54446Y154661D01*
X52859Y155318D01*
X51141D01*
X50248Y154948D01*
X50210Y154986D01*
X49454Y155491D01*
X48562Y155669D01*
X19045D01*
X18153Y155491D01*
X17397Y154986D01*
X-4088Y133501D01*
X-15414D01*
X-16228Y135025D01*
X-16121Y135186D01*
X-15900Y136292D01*
Y145168D01*
X-16121Y146274D01*
X-16747Y147212D01*
X-17686Y147839D01*
X-18793Y148060D01*
X-26667D01*
X-27774Y147839D01*
X-28712Y147212D01*
X-29339Y146274D01*
X-29560Y145168D01*
Y138501D01*
X-31084Y137687D01*
X-31400Y137898D01*
Y145168D01*
X-31621Y146274D01*
X-32248Y147212D01*
X-33186Y147839D01*
X-34293Y148060D01*
X-42168D01*
X-43274Y147839D01*
X-44212Y147212D01*
X-44839Y146274D01*
X-45059Y145168D01*
Y143331D01*
X-50042D01*
X-50089Y143446D01*
X-51304Y144661D01*
X-51670Y144812D01*
X-52028Y146610D01*
X-40206Y158432D01*
X-4796D01*
X-4290Y158094D01*
X-3501Y157937D01*
X3499D01*
X4289Y158094D01*
X4958Y158541D01*
X5406Y159211D01*
X5563Y160001D01*
Y167001D01*
X5406Y167790D01*
X4958Y168460D01*
X4289Y168907D01*
X3499Y169064D01*
X-3501D01*
X-4290Y168907D01*
X-4960Y168460D01*
X-5407Y167790D01*
X-5565Y167001D01*
Y163093D01*
X-41171D01*
X-42063Y162916D01*
X-42820Y162411D01*
X-58955Y146275D01*
X-60479Y146906D01*
Y151710D01*
X-60657Y152602D01*
X-61162Y153358D01*
X-69486Y161682D01*
X-69189Y162196D01*
X-68676Y164109D01*
Y166091D01*
X-69189Y168004D01*
X-70179Y169720D01*
X-71580Y171121D01*
X-73296Y172111D01*
X-75209Y172624D01*
X-77190D01*
X-79104Y172111D01*
X-80820Y171121D01*
X-82221Y169720D01*
X-83211Y168004D01*
X-83724Y166091D01*
Y164109D01*
X-83211Y162196D01*
X-82221Y160480D01*
X-80820Y159079D01*
X-79104Y158089D01*
X-77190Y157576D01*
X-75209D01*
X-73296Y158089D01*
X-72782Y158386D01*
X-65141Y150745D01*
Y133928D01*
X-66549Y133345D01*
X-69486Y136282D01*
X-69189Y136796D01*
X-68676Y138709D01*
Y140690D01*
X-69189Y142604D01*
X-70179Y144320D01*
X-71580Y145721D01*
X-73296Y146711D01*
X-75209Y147224D01*
X-77190D01*
X-79104Y146711D01*
X-80820Y145721D01*
X-82221Y144320D01*
X-83211Y142604D01*
X-83724Y140690D01*
Y138709D01*
X-83211Y136796D01*
X-82221Y135080D01*
X-80820Y133679D01*
X-79104Y132689D01*
X-77190Y132176D01*
X-75209D01*
X-73296Y132689D01*
X-72782Y132986D01*
X-68721Y128925D01*
Y119442D01*
X-69946Y119003D01*
X-70245Y118985D01*
X-71580Y120321D01*
X-73296Y121311D01*
X-75209Y121824D01*
X-77190D01*
X-79104Y121311D01*
X-80820Y120321D01*
X-82221Y118920D01*
X-83211Y117204D01*
X-83724Y115290D01*
Y113309D01*
X-83211Y111396D01*
X-82221Y109680D01*
X-80820Y108279D01*
X-79104Y107289D01*
X-77190Y106776D01*
X-75209D01*
X-73296Y107289D01*
X-72782Y107586D01*
X-67427Y102231D01*
Y91117D01*
X-68951Y90916D01*
X-69189Y91804D01*
X-70179Y93520D01*
X-71580Y94921D01*
X-73296Y95911D01*
X-75209Y96424D01*
X-77190D01*
X-79104Y95911D01*
X-80820Y94921D01*
X-82221Y93520D01*
X-83211Y91804D01*
X-83724Y89890D01*
Y87909D01*
X-83211Y85996D01*
X-82221Y84280D01*
X-80820Y82879D01*
X-79104Y81889D01*
X-78531Y81735D01*
Y76194D01*
X-78353Y75302D01*
X-77848Y74546D01*
X-75850Y72548D01*
X-76481Y71024D01*
X-77190D01*
X-79104Y70511D01*
X-80820Y69521D01*
X-82221Y68120D01*
X-83211Y66404D01*
X-83724Y64490D01*
Y62509D01*
X-83211Y60596D01*
X-82221Y58880D01*
X-80820Y57479D01*
X-79104Y56489D01*
X-77190Y55976D01*
X-75209D01*
X-73296Y56489D01*
X-72782Y56786D01*
X-68721Y52725D01*
Y43242D01*
X-69946Y42804D01*
X-70245Y42785D01*
X-71580Y44121D01*
X-73296Y45111D01*
X-75209Y45624D01*
X-77190D01*
X-79104Y45111D01*
X-80820Y44121D01*
X-82221Y42720D01*
X-83211Y41004D01*
X-83724Y39090D01*
Y37109D01*
X-83211Y35196D01*
X-82221Y33480D01*
X-80820Y32079D01*
X-79104Y31089D01*
X-78531Y30935D01*
Y26573D01*
X-78353Y25682D01*
X-77848Y24925D01*
X-74547Y21624D01*
X-75103Y20449D01*
X-75302Y20224D01*
X-77190D01*
X-79104Y19711D01*
X-80820Y18721D01*
X-82221Y17320D01*
X-83211Y15604D01*
X-83724Y13691D01*
Y11710D01*
X-83211Y9796D01*
X-82221Y8080D01*
X-80820Y6679D01*
X-79104Y5689D01*
X-77190Y5176D01*
X-75209D01*
X-73296Y5689D01*
X-72782Y5986D01*
X-64651Y-2145D01*
X-65282Y-3669D01*
X-69500D01*
X-70392Y-3847D01*
X-71148Y-4352D01*
X-72782Y-5986D01*
X-73296Y-5689D01*
X-75209Y-5176D01*
X-77190D01*
X-79104Y-5689D01*
X-80820Y-6679D01*
X-82221Y-8080D01*
X-83211Y-9796D01*
X-83724Y-11710D01*
Y-13691D01*
X-83211Y-15604D01*
X-82221Y-17320D01*
X-80820Y-18721D01*
X-79104Y-19711D01*
X-77190Y-20224D01*
X-75209D01*
X-73296Y-19711D01*
X-71580Y-18721D01*
X-70179Y-17320D01*
X-69189Y-15604D01*
X-68676Y-13691D01*
Y-11710D01*
X-69189Y-9796D01*
X-69350Y-9517D01*
X-68412Y-8331D01*
X-51532D01*
X-50901Y-9855D01*
X-55648Y-14602D01*
X-56153Y-15358D01*
X-56331Y-16250D01*
Y-18292D01*
X-56446Y-18339D01*
X-57661Y-19554D01*
X-58318Y-21141D01*
Y-22859D01*
X-57661Y-24446D01*
X-56446Y-25661D01*
X-54859Y-26318D01*
X-53141D01*
X-52605Y-26096D01*
X-51081Y-27114D01*
Y-30785D01*
X-53579Y-33283D01*
X-53611Y-33304D01*
X-56076Y-35769D01*
X-69035D01*
X-69189Y-35196D01*
X-70179Y-33480D01*
X-71580Y-32079D01*
X-73296Y-31089D01*
X-75209Y-30576D01*
X-77190D01*
X-79104Y-31089D01*
X-80820Y-32079D01*
X-82221Y-33480D01*
X-83211Y-35196D01*
X-83724Y-37109D01*
Y-39090D01*
X-83211Y-41004D01*
X-82221Y-42720D01*
X-80820Y-44121D01*
X-79104Y-45111D01*
X-77190Y-45624D01*
X-75209D01*
X-73296Y-45111D01*
X-71580Y-44121D01*
X-70179Y-42720D01*
X-69189Y-41004D01*
X-69035Y-40431D01*
X-58408D01*
X-57825Y-41839D01*
X-72775Y-56789D01*
X-73296Y-56489D01*
X-75209Y-55976D01*
X-77190D01*
X-79104Y-56489D01*
X-80820Y-57479D01*
X-82221Y-58880D01*
X-83211Y-60596D01*
X-83724Y-62509D01*
Y-64490D01*
X-83211Y-66404D01*
X-82221Y-68120D01*
X-80820Y-69521D01*
X-79104Y-70511D01*
X-77190Y-71024D01*
X-75209D01*
X-73296Y-70511D01*
X-71580Y-69521D01*
X-70179Y-68120D01*
X-69189Y-66404D01*
X-68676Y-64490D01*
Y-62509D01*
X-69189Y-60596D01*
X-69482Y-60088D01*
X-63979Y-54585D01*
X-62571Y-55169D01*
Y-71975D01*
X-72782Y-82186D01*
X-73296Y-81889D01*
X-75209Y-81376D01*
X-77190D01*
X-79104Y-81889D01*
X-80820Y-82879D01*
X-82221Y-84280D01*
X-83211Y-85996D01*
X-83724Y-87909D01*
Y-89890D01*
X-83211Y-91804D01*
X-82221Y-93520D01*
X-80820Y-94921D01*
X-79104Y-95911D01*
X-77190Y-96424D01*
X-75209D01*
X-73296Y-95911D01*
X-71580Y-94921D01*
X-70179Y-93520D01*
X-69189Y-91804D01*
X-68676Y-89890D01*
Y-87909D01*
X-69189Y-85996D01*
X-69486Y-85482D01*
X-60931Y-76927D01*
X-59523Y-77510D01*
Y-94327D01*
X-72782Y-107586D01*
X-73296Y-107289D01*
X-75209Y-106776D01*
X-77190D01*
X-79104Y-107289D01*
X-80820Y-108279D01*
X-82221Y-109680D01*
X-83211Y-111396D01*
X-83724Y-113309D01*
Y-115290D01*
X-83211Y-117204D01*
X-82221Y-118920D01*
X-80820Y-120321D01*
X-79104Y-121311D01*
X-77190Y-121824D01*
X-75209D01*
X-73296Y-121311D01*
X-71580Y-120321D01*
X-70179Y-118920D01*
X-69189Y-117204D01*
X-68676Y-115290D01*
Y-113309D01*
X-69189Y-111396D01*
X-69486Y-110882D01*
X-57883Y-99279D01*
X-56475Y-99862D01*
Y-116679D01*
X-72782Y-132986D01*
X-73296Y-132689D01*
X-75209Y-132176D01*
X-77190D01*
X-79104Y-132689D01*
X-80820Y-133679D01*
X-82221Y-135080D01*
X-83211Y-136796D01*
X-83724Y-138709D01*
Y-140690D01*
X-83211Y-142604D01*
X-82221Y-144320D01*
X-80820Y-145721D01*
X-79104Y-146711D01*
X-77190Y-147224D01*
X-75209D01*
X-73296Y-146711D01*
X-71580Y-145721D01*
X-70179Y-144320D01*
X-69189Y-142604D01*
X-68676Y-140690D01*
Y-138709D01*
X-69189Y-136796D01*
X-69486Y-136282D01*
X-54835Y-121631D01*
X-53427Y-122214D01*
Y-139031D01*
X-72782Y-158386D01*
X-73296Y-158089D01*
X-75209Y-157576D01*
X-77190D01*
X-79104Y-158089D01*
X-80820Y-159079D01*
X-82221Y-160480D01*
X-83211Y-162196D01*
X-83724Y-164109D01*
Y-166091D01*
X-83211Y-168004D01*
X-82221Y-169720D01*
X-80820Y-171121D01*
X-79104Y-172111D01*
X-77190Y-172624D01*
X-75209D01*
X-73296Y-172111D01*
X-71580Y-171121D01*
X-70179Y-169720D01*
X-69189Y-168004D01*
X-68676Y-166091D01*
Y-164109D01*
X-69189Y-162196D01*
X-69486Y-161682D01*
X-51787Y-143983D01*
X-50379Y-144566D01*
Y-161383D01*
X-72782Y-183786D01*
X-73296Y-183489D01*
X-75209Y-182976D01*
X-77190D01*
X-79104Y-183489D01*
X-80820Y-184479D01*
X-82221Y-185880D01*
X-83211Y-187596D01*
X-83724Y-189510D01*
Y-191490D01*
X-83211Y-193404D01*
X-82221Y-195120D01*
X-80820Y-196521D01*
X-79104Y-197511D01*
X-77190Y-198024D01*
X-75209D01*
X-73296Y-197511D01*
X-71580Y-196521D01*
X-70179Y-195120D01*
X-69189Y-193404D01*
X-68676Y-191490D01*
Y-189510D01*
X-69189Y-187596D01*
X-69486Y-187082D01*
X-48739Y-166335D01*
X-47331Y-166918D01*
Y-183735D01*
X-72782Y-209186D01*
X-73296Y-208889D01*
X-75209Y-208376D01*
X-77190D01*
X-79104Y-208889D01*
X-80820Y-209879D01*
X-82221Y-211280D01*
X-83211Y-212996D01*
X-83724Y-214909D01*
Y-216891D01*
X-83211Y-218804D01*
X-82221Y-220520D01*
X-80820Y-221921D01*
X-79104Y-222911D01*
X-77190Y-223424D01*
X-75209D01*
X-73296Y-222911D01*
X-71580Y-221921D01*
X-70179Y-220520D01*
X-69189Y-218804D01*
X-68676Y-216891D01*
Y-214909D01*
X-69189Y-212996D01*
X-69486Y-212482D01*
X-43352Y-186348D01*
X-42847Y-185592D01*
X-42669Y-184700D01*
Y-131079D01*
X-41145Y-130776D01*
X-40661Y-131946D01*
X-39446Y-133161D01*
X-37859Y-133818D01*
X-36141D01*
X-34554Y-133161D01*
X-33339Y-131946D01*
X-32682Y-130359D01*
Y-128641D01*
X-33339Y-127054D01*
X-34554Y-125839D01*
X-36141Y-125182D01*
X-37859D01*
X-39446Y-125839D01*
X-40661Y-127054D01*
X-41145Y-128224D01*
X-42669Y-127921D01*
Y-62965D01*
X-36225Y-56521D01*
X-30690D01*
X-29725Y-58045D01*
X-29853Y-58688D01*
Y-59730D01*
X-24500D01*
Y-62270D01*
X-29853D01*
Y-63313D01*
X-29603Y-64572D01*
X-29399Y-64876D01*
X-30214Y-66400D01*
X-34500D01*
X-35686Y-66636D01*
X-36692Y-67308D01*
X-37364Y-68314D01*
X-37599Y-69500D01*
Y-72980D01*
X-28500D01*
Y-74250D01*
X-27230D01*
Y-82100D01*
X-23051D01*
X-22363Y-83567D01*
X-23733Y-84936D01*
X-34500D01*
X-35290Y-85093D01*
X-35959Y-85541D01*
X-36407Y-86210D01*
X-36564Y-87000D01*
Y-96500D01*
X-36407Y-97290D01*
X-35959Y-97959D01*
X-35290Y-98407D01*
X-34500Y-98564D01*
X-22500D01*
X-21710Y-98407D01*
X-21041Y-97959D01*
X-20594Y-97290D01*
X-20436Y-96500D01*
Y-88233D01*
X-14162Y-81958D01*
X-13907Y-81576D01*
X-12290Y-80907D01*
X-11500Y-81064D01*
X500D01*
X1290Y-80907D01*
X1959Y-80459D01*
X2407Y-79790D01*
X2564Y-79000D01*
Y-74331D01*
X5186D01*
X5354Y-75175D01*
X5843Y-75907D01*
X6575Y-76396D01*
X7437Y-76567D01*
X11562D01*
X12425Y-76396D01*
X14111Y-76639D01*
X15178Y-77353D01*
X16437Y-77603D01*
X17230D01*
Y-72000D01*
X18500D01*
Y-70730D01*
X23853D01*
Y-69688D01*
X23603Y-68428D01*
X23224Y-67861D01*
X22925Y-67284D01*
X23535Y-65959D01*
X23639Y-65889D01*
X24353Y-64822D01*
X24603Y-63562D01*
Y-62770D01*
X19000D01*
Y-60230D01*
X24603D01*
Y-59437D01*
X24363Y-58231D01*
X24517Y-57997D01*
X25408Y-57014D01*
X26141Y-57318D01*
X27859D01*
X29145Y-56785D01*
X30186Y-57225D01*
X30669Y-57593D01*
Y-218535D01*
X18352Y-230852D01*
X17847Y-231608D01*
X17669Y-232500D01*
Y-234154D01*
X16710Y-234551D01*
X15347Y-235597D01*
X14301Y-236960D01*
X13644Y-238547D01*
X13420Y-240250D01*
Y-245250D01*
X13644Y-246953D01*
X14301Y-248540D01*
X15347Y-249903D01*
X16669Y-250917D01*
X16684Y-251050D01*
X16331Y-252442D01*
X5517D01*
X5000Y-250917D01*
X5378Y-250628D01*
X6586Y-249053D01*
X7346Y-247218D01*
X7605Y-245250D01*
Y-244020D01*
X0D01*
X-7605D01*
Y-245250D01*
X-7346Y-247218D01*
X-6586Y-249053D01*
X-5378Y-250628D01*
X-5000Y-250917D01*
X-5517Y-252442D01*
X-16331D01*
X-16684Y-251050D01*
X-16669Y-250917D01*
X-15347Y-249903D01*
X-14301Y-248540D01*
X-13644Y-246953D01*
X-13420Y-245250D01*
Y-240250D01*
X-13644Y-238547D01*
X-14301Y-236960D01*
X-15347Y-235597D01*
X-16710Y-234551D01*
X-17669Y-234154D01*
Y-233000D01*
X-17847Y-232108D01*
X-18352Y-231352D01*
X-22102Y-227602D01*
X-22858Y-227097D01*
X-23750Y-226919D01*
X-47785D01*
X-56980Y-217724D01*
X-56932Y-217609D01*
Y-215891D01*
X-57589Y-214304D01*
X-58804Y-213089D01*
X-60391Y-212432D01*
X-62109D01*
X-63696Y-213089D01*
X-64911Y-214304D01*
X-65568Y-215891D01*
Y-217609D01*
X-64911Y-219196D01*
X-63696Y-220411D01*
X-62109Y-221068D01*
X-60391D01*
X-60276Y-221020D01*
X-50398Y-230898D01*
X-49642Y-231403D01*
X-48750Y-231581D01*
X-24715D01*
X-23364Y-232932D01*
X-23335Y-233556D01*
X-23635Y-234816D01*
X-24653Y-235597D01*
X-25699Y-236960D01*
X-26356Y-238547D01*
X-26580Y-240250D01*
Y-245250D01*
X-26356Y-246953D01*
X-25699Y-248540D01*
X-24653Y-249903D01*
X-23331Y-250917D01*
X-23316Y-251050D01*
X-23668Y-252442D01*
X-82550D01*
Y-252441D01*
X-84383Y-252077D01*
X-85938Y-251038D01*
X-86977Y-249484D01*
X-87341Y-247650D01*
X-87341D01*
Y247650D01*
X-87341D01*
X-86977Y249484D01*
X-85938Y251038D01*
X-84383Y252077D01*
X-82550Y252441D01*
Y252442D01*
X82550D01*
Y252441D01*
D02*
G37*
G36*
X14831Y145344D02*
X15900Y144742D01*
Y136697D01*
X-24648Y96148D01*
X-25153Y95392D01*
X-25331Y94500D01*
Y60907D01*
X-26781Y60063D01*
X-27093Y60157D01*
X-27825Y60646D01*
X-28688Y60817D01*
X-33312D01*
X-34175Y60646D01*
X-34352Y60528D01*
X-36042Y60684D01*
X-36305Y60807D01*
X-36361Y60889D01*
X-37428Y61603D01*
X-38688Y61853D01*
X-39730D01*
Y56500D01*
X-41000D01*
Y55230D01*
X-46603D01*
Y54437D01*
X-46353Y53178D01*
X-45859Y52439D01*
X-45977Y51816D01*
X-47402Y51012D01*
X-48141Y51318D01*
X-49859D01*
X-50225Y51166D01*
X-51749Y52185D01*
Y58622D01*
X-51927Y59514D01*
X-52432Y60270D01*
X-55749Y63587D01*
Y104845D01*
X-55927Y105737D01*
X-56432Y106493D01*
X-60479Y110540D01*
Y135093D01*
X-58955Y135725D01*
X-49318Y126088D01*
Y125141D01*
X-48661Y123554D01*
X-47446Y122339D01*
X-45859Y121682D01*
X-44141D01*
X-42554Y122339D01*
X-41339Y123554D01*
X-40682Y125141D01*
Y126859D01*
X-41339Y128446D01*
X-42554Y129661D01*
X-44141Y130318D01*
X-45859D01*
X-46635Y129997D01*
X-52028Y135390D01*
X-51670Y137188D01*
X-51304Y137339D01*
X-50089Y138554D01*
X-50042Y138669D01*
X-45059D01*
Y136292D01*
X-44839Y135186D01*
X-44212Y134248D01*
X-43274Y133621D01*
X-42168Y133400D01*
X-34697D01*
X-30818Y129522D01*
X-30062Y129017D01*
X-29170Y128839D01*
X-3123D01*
X-2231Y129017D01*
X-1475Y129522D01*
X14416Y145413D01*
X14831Y145344D01*
D02*
G37*
G36*
X-14774Y21162D02*
X-14353Y20840D01*
X-14318Y20725D01*
Y20141D01*
X-14104Y19624D01*
X-14973Y18146D01*
X-15113Y18077D01*
X-16186Y17864D01*
X-17192Y17192D01*
X-17864Y16186D01*
X-18100Y15000D01*
Y1270D01*
X0D01*
Y-1270D01*
X-18100D01*
Y-15000D01*
X-17864Y-16186D01*
X-17192Y-17192D01*
X-16186Y-17864D01*
X-15000Y-18100D01*
X-637D01*
X-54Y-19508D01*
X-4295Y-23749D01*
X-16205D01*
X-19230Y-20724D01*
X-19182Y-20609D01*
Y-18891D01*
X-19839Y-17304D01*
X-21054Y-16089D01*
X-22641Y-15432D01*
X-24359D01*
X-25946Y-16089D01*
X-26916Y-17060D01*
X-28443Y-16806D01*
X-28966Y-15623D01*
X-28743Y-15290D01*
X-28586Y-14500D01*
Y-13500D01*
X-28743Y-12710D01*
X-29191Y-12041D01*
Y-11959D01*
X-28743Y-11290D01*
X-28586Y-10500D01*
Y-9500D01*
X-28743Y-8710D01*
X-29191Y-8041D01*
Y-7959D01*
X-28743Y-7290D01*
X-28586Y-6500D01*
Y-5500D01*
X-28743Y-4710D01*
X-29191Y-4041D01*
Y-3959D01*
X-28743Y-3290D01*
X-28586Y-2500D01*
Y-1500D01*
X-28743Y-710D01*
X-29191Y-41D01*
Y41D01*
X-28743Y710D01*
X-28586Y1500D01*
Y2500D01*
X-28743Y3290D01*
X-29191Y3959D01*
Y4041D01*
X-28743Y4710D01*
X-28586Y5500D01*
Y6500D01*
X-28743Y7290D01*
X-29191Y7959D01*
Y8041D01*
X-28743Y8710D01*
X-28586Y9500D01*
Y10500D01*
X-28743Y11290D01*
X-28689Y11645D01*
X-28074Y12906D01*
X-27094Y13193D01*
X-25859Y12682D01*
X-24141D01*
X-22554Y13339D01*
X-21339Y14554D01*
X-20682Y16141D01*
Y17121D01*
X-16352Y21452D01*
X-14774Y21162D01*
D02*
G37*
G36*
X28380Y11823D02*
X28743Y11290D01*
X28586Y10500D01*
Y9500D01*
X28743Y8710D01*
X29191Y8041D01*
Y7959D01*
X28743Y7290D01*
X28586Y6500D01*
Y5500D01*
X28743Y4710D01*
X29191Y4041D01*
Y3959D01*
X28743Y3290D01*
X28586Y2500D01*
Y1500D01*
X28743Y710D01*
X29191Y41D01*
Y-41D01*
X28743Y-710D01*
X28586Y-1500D01*
Y-2500D01*
X28743Y-3290D01*
X29191Y-3959D01*
Y-4041D01*
X28743Y-4710D01*
X28586Y-5500D01*
Y-6500D01*
X28743Y-7290D01*
X29191Y-7959D01*
Y-8041D01*
X28743Y-8710D01*
X28586Y-9500D01*
Y-10500D01*
X28743Y-11290D01*
X29191Y-11959D01*
Y-12041D01*
X28743Y-12710D01*
X28586Y-13500D01*
Y-14500D01*
X28743Y-15290D01*
X29191Y-15959D01*
Y-16041D01*
X28743Y-16710D01*
X28586Y-17500D01*
Y-18500D01*
X28605Y-18595D01*
X27808Y-20124D01*
X27595Y-20314D01*
X27475Y-20334D01*
X27330Y-20291D01*
X25859Y-19682D01*
X24141D01*
X22554Y-20339D01*
X21339Y-21554D01*
X21325Y-21589D01*
X19675D01*
X19661Y-21554D01*
X18473Y-20367D01*
X22398Y-16442D01*
X22903Y-15686D01*
X23081Y-14794D01*
Y-5250D01*
X23001Y-4848D01*
Y8455D01*
X26521Y11975D01*
X28380Y11823D01*
D02*
G37*
%LPC*%
G36*
X77190Y248824D02*
X75209D01*
X73296Y248311D01*
X71580Y247321D01*
X70179Y245920D01*
X69189Y244204D01*
X68676Y242290D01*
Y240310D01*
X69189Y238396D01*
X70179Y236680D01*
X71580Y235279D01*
X73296Y234289D01*
X75209Y233776D01*
X77190D01*
X79104Y234289D01*
X80820Y235279D01*
X82221Y236680D01*
X83211Y238396D01*
X83724Y240310D01*
Y242290D01*
X83211Y244204D01*
X82221Y245920D01*
X80820Y247321D01*
X79104Y248311D01*
X77190Y248824D01*
D02*
G37*
G36*
X-75209D02*
X-77190D01*
X-79104Y248311D01*
X-80820Y247321D01*
X-82221Y245920D01*
X-83211Y244204D01*
X-83724Y242290D01*
Y240310D01*
X-83211Y238396D01*
X-82221Y236680D01*
X-80820Y235279D01*
X-79104Y234289D01*
X-77190Y233776D01*
X-75209D01*
X-73296Y234289D01*
X-71580Y235279D01*
X-70179Y236680D01*
X-69189Y238396D01*
X-68676Y240310D01*
Y242290D01*
X-69189Y244204D01*
X-70179Y245920D01*
X-71580Y247321D01*
X-73296Y248311D01*
X-75209Y248824D01*
D02*
G37*
G36*
X22200Y218054D02*
X20300D01*
X18546Y217327D01*
X17996Y216777D01*
X17000Y216118D01*
X16004Y216777D01*
X15454Y217327D01*
X13700Y218054D01*
X11800D01*
X10046Y217327D01*
X9496Y216777D01*
X8500Y216118D01*
X7504Y216777D01*
X6954Y217327D01*
X5200Y218054D01*
X3300D01*
X1546Y217327D01*
X996Y216777D01*
X0Y216118D01*
X-996Y216777D01*
X-1546Y217327D01*
X-3300Y218054D01*
X-5200D01*
X-6954Y217327D01*
X-7504Y216777D01*
X-8500Y216118D01*
X-9496Y216777D01*
X-10046Y217327D01*
X-11800Y218054D01*
X-13700D01*
X-15454Y217327D01*
X-16004Y216777D01*
X-17000Y216118D01*
X-17996Y216777D01*
X-18546Y217327D01*
X-20300Y218054D01*
X-22200D01*
X-23954Y217327D01*
X-25297Y215984D01*
X-26024Y214230D01*
Y212330D01*
X-25297Y210576D01*
X-23954Y209233D01*
X-22200Y208506D01*
X-20300D01*
X-18546Y209233D01*
X-17996Y209783D01*
X-17000Y210442D01*
X-16004Y209783D01*
X-15454Y209233D01*
X-13700Y208506D01*
X-11800D01*
X-10046Y209233D01*
X-9496Y209783D01*
X-8500Y210441D01*
X-7504Y209783D01*
X-6954Y209233D01*
X-5200Y208506D01*
X-3300D01*
X-1866Y209100D01*
X-1002Y207808D01*
X-4257Y204554D01*
X-5200D01*
X-6954Y203827D01*
X-7504Y203277D01*
X-8500Y202618D01*
X-9496Y203277D01*
X-10046Y203827D01*
X-11800Y204554D01*
X-13700D01*
X-15454Y203827D01*
X-16004Y203277D01*
X-17000Y202618D01*
X-17996Y203277D01*
X-18546Y203827D01*
X-20300Y204554D01*
X-22200D01*
X-23954Y203827D01*
X-25297Y202484D01*
X-26024Y200730D01*
Y198830D01*
X-25297Y197076D01*
X-23954Y195733D01*
X-22200Y195006D01*
X-20300D01*
X-18546Y195733D01*
X-17996Y196283D01*
X-17000Y196942D01*
X-16004Y196283D01*
X-15454Y195733D01*
X-13700Y195006D01*
X-11800D01*
X-10046Y195733D01*
X-9496Y196283D01*
X-8500Y196942D01*
X-7504Y196283D01*
X-6954Y195733D01*
X-5200Y195006D01*
X-3300D01*
X-1546Y195733D01*
X-996Y196283D01*
X0Y196942D01*
X996Y196283D01*
X1546Y195733D01*
X3300Y195006D01*
X5200D01*
X6954Y195733D01*
X7504Y196283D01*
X8500Y196942D01*
X9496Y196283D01*
X10046Y195733D01*
X11800Y195006D01*
X13700D01*
X15454Y195733D01*
X16004Y196283D01*
X17000Y196942D01*
X17996Y196283D01*
X18546Y195733D01*
X20300Y195006D01*
X22200D01*
X23954Y195733D01*
X25297Y197076D01*
X26024Y198830D01*
Y200730D01*
X25297Y202484D01*
X23954Y203827D01*
X22200Y204554D01*
X20300D01*
X18546Y203827D01*
X17996Y203277D01*
X17000Y202618D01*
X16004Y203277D01*
X15454Y203827D01*
X13700Y204554D01*
X11800D01*
X10046Y203827D01*
X9496Y203277D01*
X8500Y202618D01*
X7504Y203277D01*
X6954Y203827D01*
X5200Y204554D01*
X4491D01*
X3860Y206078D01*
X4946Y207164D01*
X5451Y207920D01*
X5601Y208672D01*
X6954Y209233D01*
X7504Y209783D01*
X8500Y210441D01*
X9496Y209783D01*
X10046Y209233D01*
X11800Y208506D01*
X13700D01*
X15454Y209233D01*
X16004Y209783D01*
X17000Y210442D01*
X17996Y209783D01*
X18546Y209233D01*
X20300Y208506D01*
X22200D01*
X23954Y209233D01*
X25297Y210576D01*
X26024Y212330D01*
Y214230D01*
X25297Y215984D01*
X23954Y217327D01*
X22200Y218054D01*
D02*
G37*
G36*
X77190Y223424D02*
X75209D01*
X73296Y222911D01*
X71580Y221921D01*
X70179Y220520D01*
X69189Y218804D01*
X68676Y216891D01*
Y214909D01*
X69189Y212996D01*
X70179Y211280D01*
X71580Y209879D01*
X73296Y208889D01*
X75209Y208376D01*
X77190D01*
X79104Y208889D01*
X80820Y209879D01*
X82221Y211280D01*
X83211Y212996D01*
X83724Y214909D01*
Y216891D01*
X83211Y218804D01*
X82221Y220520D01*
X80820Y221921D01*
X79104Y222911D01*
X77190Y223424D01*
D02*
G37*
G36*
X-75209D02*
X-77190D01*
X-79104Y222911D01*
X-80820Y221921D01*
X-82221Y220520D01*
X-83211Y218804D01*
X-83724Y216891D01*
Y214909D01*
X-83211Y212996D01*
X-82221Y211280D01*
X-80820Y209879D01*
X-79104Y208889D01*
X-77190Y208376D01*
X-75209D01*
X-73296Y208889D01*
X-71580Y209879D01*
X-70179Y211280D01*
X-69189Y212996D01*
X-68676Y214909D01*
Y216891D01*
X-69189Y218804D01*
X-70179Y220520D01*
X-71580Y221921D01*
X-73296Y222911D01*
X-75209Y223424D01*
D02*
G37*
G36*
X77190Y198024D02*
X75209D01*
X73296Y197511D01*
X71580Y196521D01*
X70179Y195120D01*
X69189Y193404D01*
X68676Y191490D01*
Y189510D01*
X69189Y187596D01*
X70179Y185880D01*
X71580Y184479D01*
X73296Y183489D01*
X75209Y182976D01*
X77190D01*
X79104Y183489D01*
X80820Y184479D01*
X82221Y185880D01*
X83211Y187596D01*
X83724Y189510D01*
Y191490D01*
X83211Y193404D01*
X82221Y195120D01*
X80820Y196521D01*
X79104Y197511D01*
X77190Y198024D01*
D02*
G37*
G36*
X36960Y182595D02*
X34293D01*
X32789Y182296D01*
X31515Y181445D01*
X31028Y180716D01*
X29504Y181178D01*
Y181504D01*
X15956D01*
Y166956D01*
X29504D01*
Y167281D01*
X31028Y167744D01*
X31515Y167015D01*
X32789Y166164D01*
X34293Y165865D01*
X36960D01*
Y174230D01*
Y182595D01*
D02*
G37*
G36*
X-24000D02*
X-26667D01*
X-28171Y182296D01*
X-29445Y181445D01*
X-29932Y180716D01*
X-31456Y181178D01*
Y181504D01*
X-45004D01*
Y166956D01*
X-31456D01*
Y167281D01*
X-29932Y167744D01*
X-29445Y167015D01*
X-28171Y166164D01*
X-26667Y165865D01*
X-24000D01*
Y174230D01*
Y182595D01*
D02*
G37*
G36*
X3499Y185100D02*
X1269D01*
Y179771D01*
X6599D01*
Y182001D01*
X6363Y183187D01*
X5691Y184193D01*
X4685Y184865D01*
X3499Y185100D01*
D02*
G37*
G36*
X-1271D02*
X-3501D01*
X-4687Y184865D01*
X-5693Y184193D01*
X-6364Y183187D01*
X-6600Y182001D01*
Y179771D01*
X-1271D01*
Y185100D01*
D02*
G37*
G36*
X42168Y182595D02*
X39500D01*
Y175500D01*
X46095D01*
Y178668D01*
X45796Y180171D01*
X44945Y181445D01*
X43671Y182296D01*
X42168Y182595D01*
D02*
G37*
G36*
X-18793D02*
X-21460D01*
Y175500D01*
X-14865D01*
Y178668D01*
X-15164Y180171D01*
X-16015Y181445D01*
X-17289Y182296D01*
X-18793Y182595D01*
D02*
G37*
G36*
X6599Y177231D02*
X1269D01*
Y171901D01*
X3499D01*
X4685Y172137D01*
X5691Y172809D01*
X6363Y173815D01*
X6599Y175001D01*
Y177231D01*
D02*
G37*
G36*
X-1271D02*
X-6600D01*
Y175001D01*
X-6364Y173815D01*
X-5693Y172809D01*
X-4687Y172137D01*
X-3501Y171901D01*
X-1271D01*
Y177231D01*
D02*
G37*
G36*
X46095Y172960D02*
X39500D01*
Y165865D01*
X42168D01*
X43671Y166164D01*
X44945Y167015D01*
X45796Y168289D01*
X46095Y169792D01*
Y172960D01*
D02*
G37*
G36*
X-14865D02*
X-21460D01*
Y165865D01*
X-18793D01*
X-17289Y166164D01*
X-16015Y167015D01*
X-15164Y168289D01*
X-14865Y169792D01*
Y172960D01*
D02*
G37*
G36*
X77190Y147224D02*
X75209D01*
X73296Y146711D01*
X71580Y145721D01*
X70179Y144320D01*
X69189Y142604D01*
X68676Y140690D01*
Y138709D01*
X69189Y136796D01*
X70179Y135080D01*
X71580Y133679D01*
X73296Y132689D01*
X75209Y132176D01*
X77190D01*
X79104Y132689D01*
X80820Y133679D01*
X82221Y135080D01*
X83211Y136796D01*
X83724Y138709D01*
Y140690D01*
X83211Y142604D01*
X82221Y144320D01*
X80820Y145721D01*
X79104Y146711D01*
X77190Y147224D01*
D02*
G37*
G36*
X-9270Y61853D02*
X-10312D01*
X-11572Y61603D01*
X-12639Y60889D01*
X-13353Y59822D01*
X-13603Y58562D01*
Y57770D01*
X-9270D01*
Y61853D01*
D02*
G37*
G36*
X23853Y-73270D02*
X19770D01*
Y-77603D01*
X20563D01*
X21822Y-77353D01*
X22889Y-76639D01*
X23603Y-75572D01*
X23853Y-74313D01*
Y-73270D01*
D02*
G37*
G36*
X-29770Y-75520D02*
X-37599D01*
Y-79000D01*
X-37364Y-80186D01*
X-36692Y-81192D01*
X-35686Y-81864D01*
X-34500Y-82100D01*
X-29770D01*
Y-75520D01*
D02*
G37*
G36*
X500Y-83900D02*
X-4230D01*
Y-90480D01*
X3600D01*
Y-87000D01*
X3363Y-85814D01*
X2692Y-84808D01*
X1686Y-84136D01*
X500Y-83900D01*
D02*
G37*
G36*
X-6770D02*
X-11500D01*
X-12686Y-84136D01*
X-13692Y-84808D01*
X-14364Y-85814D01*
X-14600Y-87000D01*
Y-90480D01*
X-6770D01*
Y-83900D01*
D02*
G37*
G36*
X3600Y-93020D02*
X-4230D01*
Y-99600D01*
X500D01*
X1686Y-99364D01*
X2692Y-98692D01*
X3363Y-97686D01*
X3600Y-96500D01*
Y-93020D01*
D02*
G37*
G36*
X-6770D02*
X-14600D01*
Y-96500D01*
X-14364Y-97686D01*
X-13692Y-98692D01*
X-12686Y-99364D01*
X-11500Y-99600D01*
X-6770D01*
Y-93020D01*
D02*
G37*
G36*
X-20141Y-208682D02*
X-21859D01*
X-23446Y-209339D01*
X-24661Y-210554D01*
X-25318Y-212141D01*
Y-213859D01*
X-24661Y-215446D01*
X-23446Y-216661D01*
X-21859Y-217318D01*
X-20141D01*
X-18554Y-216661D01*
X-17339Y-215446D01*
X-16682Y-213859D01*
Y-212141D01*
X-17339Y-210554D01*
X-18554Y-209339D01*
X-20141Y-208682D01*
D02*
G37*
G36*
X1270Y-232812D02*
Y-241480D01*
X7605D01*
Y-240250D01*
X7346Y-238282D01*
X6586Y-236448D01*
X5378Y-234872D01*
X3803Y-233664D01*
X1968Y-232904D01*
X1270Y-232812D01*
D02*
G37*
G36*
X-1270Y-232812D02*
X-1968Y-232904D01*
X-3803Y-233664D01*
X-5378Y-234872D01*
X-6586Y-236448D01*
X-7346Y-238282D01*
X-7605Y-240250D01*
Y-241480D01*
X-1270D01*
Y-232812D01*
D02*
G37*
G36*
X-75209Y-233776D02*
X-77190D01*
X-79104Y-234289D01*
X-80820Y-235279D01*
X-82221Y-236680D01*
X-83211Y-238396D01*
X-83724Y-240310D01*
Y-242290D01*
X-83211Y-244204D01*
X-82221Y-245920D01*
X-80820Y-247321D01*
X-79104Y-248311D01*
X-77190Y-248824D01*
X-75209D01*
X-73296Y-248311D01*
X-71580Y-247321D01*
X-70179Y-245920D01*
X-69189Y-244204D01*
X-68676Y-242290D01*
Y-240310D01*
X-69189Y-238396D01*
X-70179Y-236680D01*
X-71580Y-235279D01*
X-73296Y-234289D01*
X-75209Y-233776D01*
D02*
G37*
G36*
X-42270Y61853D02*
X-43313D01*
X-44572Y61603D01*
X-45639Y60889D01*
X-46353Y59822D01*
X-46603Y58562D01*
Y57770D01*
X-42270D01*
Y61853D01*
D02*
G37*
%LPD*%
D16*
X-41000Y56500D02*
D03*
Y47500D02*
D03*
X3000Y56500D02*
D03*
Y47500D02*
D03*
X9000Y-61500D02*
D03*
Y-52500D02*
D03*
X-6000D02*
D03*
Y-61500D02*
D03*
X-31000Y47500D02*
D03*
Y56500D02*
D03*
X-8000D02*
D03*
Y47500D02*
D03*
X19000Y-61500D02*
D03*
Y-52500D02*
D03*
X6000Y74500D02*
D03*
Y83500D02*
D03*
X18000Y74500D02*
D03*
Y83500D02*
D03*
D17*
X31500Y57000D02*
D03*
X22500D02*
D03*
X31500Y47000D02*
D03*
X40500D02*
D03*
X18500Y-72000D02*
D03*
X9500D02*
D03*
X-24500Y-61000D02*
D03*
X-15500D02*
D03*
D18*
X-26000Y-34350D02*
D03*
X-22000D02*
D03*
X-18000D02*
D03*
X-14000D02*
D03*
X-10000D02*
D03*
X-6000D02*
D03*
X-2000D02*
D03*
X2000D02*
D03*
X6000D02*
D03*
X10000D02*
D03*
X14000D02*
D03*
X18000D02*
D03*
X22000D02*
D03*
X26000D02*
D03*
Y34350D02*
D03*
X22000D02*
D03*
X18000D02*
D03*
X14000D02*
D03*
X10000D02*
D03*
X6000D02*
D03*
X2000D02*
D03*
X-2000D02*
D03*
X-6000D02*
D03*
X-10000D02*
D03*
X-14000D02*
D03*
X-18000D02*
D03*
X-22000D02*
D03*
X-26000D02*
D03*
D19*
X-34350Y26000D02*
D03*
Y22000D02*
D03*
Y18000D02*
D03*
Y14000D02*
D03*
Y10000D02*
D03*
Y6000D02*
D03*
Y2000D02*
D03*
Y-2000D02*
D03*
Y-6000D02*
D03*
Y-10000D02*
D03*
Y-14000D02*
D03*
Y-18000D02*
D03*
Y-22000D02*
D03*
Y-26000D02*
D03*
X34350D02*
D03*
Y-22000D02*
D03*
Y-18000D02*
D03*
Y-14000D02*
D03*
Y-10000D02*
D03*
Y-6000D02*
D03*
Y-2000D02*
D03*
Y2000D02*
D03*
Y6000D02*
D03*
Y10000D02*
D03*
Y14000D02*
D03*
Y18000D02*
D03*
Y22000D02*
D03*
Y26000D02*
D03*
D21*
X-1Y163501D02*
D03*
X-1Y178501D02*
D03*
D22*
X-5500Y-74250D02*
D03*
X-28500D02*
D03*
X-28500Y-91750D02*
D03*
X-5500D02*
D03*
D23*
X38230Y140730D02*
D03*
X22730D02*
D03*
X38230Y174230D02*
D03*
X-22730Y140730D02*
D03*
X-38230D02*
D03*
X-22730Y174230D02*
D03*
D24*
X22730D02*
D03*
X-38230D02*
D03*
D36*
X43250Y243380D02*
D03*
X-43250D02*
D03*
D37*
X43250Y209580D02*
D03*
X-43250D02*
D03*
D38*
X29750Y199780D02*
D03*
X21250D02*
D03*
X12750D02*
D03*
X4250D02*
D03*
X-4250D02*
D03*
X-12750D02*
D03*
X-21250D02*
D03*
X-29750D02*
D03*
Y213280D02*
D03*
X-21250D02*
D03*
X-12750D02*
D03*
X-4250D02*
D03*
X4250D02*
D03*
X12750D02*
D03*
X21250D02*
D03*
X29750D02*
D03*
D39*
X20000Y-242750D02*
D03*
X0Y-242750D02*
D03*
X-20000Y-242750D02*
D03*
D40*
X0Y0D02*
D03*
D41*
X57000Y44144D02*
X64420Y51564D01*
Y53104D01*
X67396Y56080D02*
X68936D01*
X64420Y53104D02*
X67396Y56080D01*
X68936D02*
X76200Y63344D01*
X18000Y-34350D02*
Y-29184D01*
X21080Y-26104D01*
Y-26002D01*
X22304Y-24778D02*
X24778D01*
X25000Y-25000D01*
X21080Y-26002D02*
X22304Y-24778D01*
X12050Y-42360D02*
X19912D01*
X10000Y-40310D02*
Y-34350D01*
Y-40310D02*
X12050Y-42360D01*
X10408Y-45408D02*
X17408D01*
X6000Y-41000D02*
X10408Y-45408D01*
X-60240Y-51861D02*
X-42500Y-34121D01*
X-45548Y-22903D02*
X-40645Y-18000D01*
X-76189Y-63500D02*
X-45548Y-32859D01*
X-42500Y-25000D02*
X-39500Y-22000D01*
X-34350D01*
X-45548Y-32859D02*
Y-22903D01*
X-42500Y-34121D02*
Y-25000D01*
X-40645Y-18000D02*
X-34350D01*
X-51952Y-34952D02*
X-48750Y-31750D01*
Y-21750D01*
X-41000Y-14000D01*
X-54000Y-22000D02*
Y-16250D01*
X-47750Y-10000D01*
X-34350D01*
X-61250Y-216750D02*
X-48750Y-229250D01*
X-23750D01*
X-20000Y-233000D01*
Y-242750D02*
Y-233000D01*
X47080Y-161380D02*
Y-51769D01*
Y-161380D02*
X76200Y-190500D01*
X20000Y-242750D02*
Y-232500D01*
X33000Y-219500D01*
Y-50750D01*
X0Y-242750D02*
Y-231250D01*
X3298Y212328D02*
X4250Y213280D01*
X3298Y208812D02*
Y212328D01*
X-2810Y202704D02*
X3298Y208812D01*
X-2810Y202567D02*
Y202704D01*
X-4250Y201126D02*
X-2810Y202567D01*
X-4250Y199780D02*
Y201126D01*
X13524Y87976D02*
X18000Y83500D01*
X10263Y103048D02*
X13524Y99787D01*
Y87976D02*
Y99787D01*
X4000Y105048D02*
Y105080D01*
X6000Y103048D02*
X10263D01*
X4000Y105048D02*
X6000Y103048D01*
X9000Y100000D02*
X10476Y98524D01*
Y87976D02*
Y98524D01*
X6000Y100000D02*
X9000D01*
X6000Y83500D02*
X10476Y87976D01*
X4000Y98000D02*
X6000Y100000D01*
X4000Y97968D02*
Y98000D01*
X-23500Y-19750D02*
X-17170Y-26080D01*
X-3330D01*
X3830Y-18920D01*
X16624D01*
X20750Y-14794D01*
Y-5250D01*
X20670Y-5170D02*
X20750Y-5250D01*
X20670Y-5170D02*
Y9420D01*
X26071Y14821D01*
Y24000D01*
X28250Y-46000D02*
X33000Y-50750D01*
X23552Y-46000D02*
X28250D01*
X19912Y-42360D02*
X23552Y-46000D01*
X17408Y-45408D02*
X19000Y-47000D01*
X24050Y-41550D02*
X32550D01*
X22000Y-39500D02*
X24050Y-41550D01*
X22000Y-39500D02*
Y-34350D01*
X19000Y-52500D02*
Y-47000D01*
X6000Y-41000D02*
Y-34350D01*
X-10000Y-10000D02*
X0Y0D01*
X-10000Y-21000D02*
Y-10000D01*
X62957Y19773D02*
X66650Y23466D01*
X47646Y16080D02*
X59264D01*
X62957Y19773D01*
X34350Y10000D02*
X41566D01*
X47646Y16080D01*
X50580Y32030D02*
Y41104D01*
X34350Y14000D02*
X41171D01*
X57000Y29829D02*
Y44144D01*
X40860Y18000D02*
X53628Y30768D01*
X34350Y22000D02*
X40550D01*
X53628Y30768D02*
Y42367D01*
X40550Y22000D02*
X50580Y32030D01*
X34350Y18000D02*
X40860D01*
X41171Y14000D02*
X57000Y29829D01*
X40121Y-6000D02*
X42679Y-3442D01*
X59764Y-394D02*
X66390Y-7020D01*
X34350Y6000D02*
X47566D01*
X61027Y2654D02*
X76200Y-12519D01*
X47566Y6000D02*
X47646Y5920D01*
X39636Y2136D02*
X40154Y2654D01*
X41416Y-394D02*
X59764D01*
X47646Y5920D02*
X69420D01*
X40154Y2654D02*
X61027D01*
X39810Y-2000D02*
X41416Y-394D01*
X58502Y-3442D02*
X63342Y-8282D01*
X42679Y-3442D02*
X58502D01*
X69420Y5920D02*
X76200Y12700D01*
X48872Y75445D02*
X76200Y102773D01*
X48872Y42812D02*
Y75445D01*
X51920Y44075D02*
Y64620D01*
X48872Y42812D02*
X50580Y41104D01*
X51920Y44075D02*
X53628Y42367D01*
X76200Y102773D02*
Y114300D01*
X51920Y64620D02*
X76200Y88900D01*
X57000Y44144D02*
Y46500D01*
X40500Y47000D02*
Y59500D01*
X34350Y26000D02*
X37050D01*
X40500Y40500D02*
Y47000D01*
X37050Y26000D02*
X37288Y26238D01*
X34350Y34350D02*
X40500Y40500D01*
X19125Y-61375D02*
X26875D01*
X27000Y-61250D01*
X19000Y-61500D02*
X19125Y-61375D01*
X26000Y-34350D02*
X29660D01*
X36920Y-176620D02*
X76200Y-215900D01*
X32550Y-41550D02*
X36920Y-45920D01*
X29660Y-34350D02*
X47080Y-51769D01*
X36920Y-176620D02*
Y-45920D01*
X50800Y-143510D02*
Y-49161D01*
X8988Y-52500D02*
X9000D01*
X7000Y-50512D02*
X8988Y-52500D01*
X7000Y-50512D02*
Y-47250D01*
X2000Y-42250D02*
X7000Y-47250D01*
X2000Y-42250D02*
Y-34350D01*
X-2000Y-48750D02*
Y-34350D01*
X-38230Y140230D02*
Y140730D01*
X-29170Y131170D02*
X-3123D01*
X19045Y153338D02*
X48562D01*
X50900Y151000D01*
X-3123Y131170D02*
X19045Y153338D01*
X-38230Y140230D02*
X-29170Y131170D01*
X50900Y151000D02*
X52000D01*
X31790Y150290D02*
X43830D01*
X56471Y144721D02*
X76200Y164450D01*
X43830Y150290D02*
X49399Y144721D01*
X56471D01*
X22730Y140730D02*
Y141230D01*
Y140230D02*
Y140730D01*
Y141230D02*
X31790Y150290D01*
X76200Y164450D02*
Y165100D01*
X61350Y179950D02*
X76200Y165100D01*
X61350Y179950D02*
Y216400D01*
X47500Y230250D02*
X61350Y216400D01*
X33000Y230250D02*
X47500D01*
X-2739Y160763D02*
X-1Y163501D01*
X-58830Y143104D02*
X-41171Y160763D01*
X-2739D01*
X-58830Y138896D02*
Y143104D01*
Y138896D02*
X-45934Y126000D01*
X-45000D01*
X-62810Y109575D02*
Y151710D01*
X-38500Y141000D02*
X-38230Y140730D01*
X-53750Y141000D02*
X-38500D01*
X38230Y173586D02*
Y174230D01*
X31820Y167176D02*
X38230Y173586D01*
X31820Y166932D02*
Y167176D01*
X29558Y164670D02*
X31820Y166932D01*
X15902Y164670D02*
X29558D01*
X10000Y170572D02*
X15902Y164670D01*
X10000Y170572D02*
Y176000D01*
X-4272Y174230D02*
X-1Y178501D01*
X-22730Y174230D02*
X-4272D01*
X8900Y176000D02*
X10000D01*
X6399Y178501D02*
X8900Y176000D01*
X-1Y178501D02*
X6399D01*
X-55111Y-38100D02*
X-51962Y-34952D01*
X-51952D01*
X-76200Y-38100D02*
X-55111D01*
X-48048Y-69502D02*
Y-60738D01*
X-38452Y-51142D01*
X-51096Y-68240D02*
Y-59475D01*
X-39715Y-48094D02*
X-30950D01*
X-38452Y-51142D02*
X-29688D01*
X-45000Y-62000D02*
X-37190Y-54190D01*
X-45000Y-184700D02*
Y-62000D01*
X-37190Y-54190D02*
X-27190D01*
X-51096Y-59475D02*
X-39715Y-48094D01*
X-51096Y-139996D02*
Y-68240D01*
X-48048Y-162348D02*
Y-69502D01*
X-76200Y-165100D02*
X-51096Y-139996D01*
X-76200Y-215900D02*
X-45000Y-184700D01*
X-23000Y94500D02*
X22730Y140230D01*
X-23000Y56000D02*
Y94500D01*
X-41000Y56500D02*
Y61536D01*
X-52456Y68456D02*
X-47920D01*
X-41000Y61536D01*
X-54080Y31080D02*
Y58622D01*
X-60176Y27555D02*
Y56097D01*
X-63224Y24623D02*
Y54834D01*
X-61128Y61360D02*
X-57128Y57359D01*
Y28818D02*
X-46311Y18000D01*
X-64176Y60097D02*
X-60176Y56097D01*
X-48750Y47250D02*
X-41250D01*
X-67224Y58835D02*
X-63224Y54834D01*
Y24623D02*
X-48601Y10000D01*
X-60176Y27555D02*
X-46621Y14000D01*
X-41250Y47250D02*
X-41000Y47500D01*
X-49000Y47000D02*
X-48750Y47250D01*
X-54080Y31080D02*
X-45000Y22000D01*
X-58080Y62622D02*
X-54080Y58622D01*
X-57128Y28818D02*
Y57359D01*
X-66390Y21940D02*
Y53690D01*
Y21940D02*
X-50450Y6000D01*
X-76200Y63500D02*
X-66390Y53690D01*
X-30750Y56250D02*
X-23250D01*
X-23000Y56000D01*
X-31000Y56500D02*
X-30750Y56250D01*
X18500Y-79250D02*
Y-72000D01*
X6000Y-91750D02*
X18500Y-79250D01*
X-5500Y-102500D02*
Y-91750D01*
X-8000Y-105000D02*
X-5500Y-102500D01*
X-34850Y-105000D02*
X-8000D01*
X-40000Y-99850D02*
X-34850Y-105000D01*
X-40000Y-99850D02*
Y-84500D01*
X-29750Y-74250D01*
X-28500D01*
X-5500Y-91750D02*
X6000D01*
X-45000Y22000D02*
X-34350D01*
X-66390Y108844D02*
Y129890D01*
Y108844D02*
X-62048Y104502D01*
Y70663D02*
Y104502D01*
X-76200Y139700D02*
X-66390Y129890D01*
X-53000Y69000D02*
X-52456Y68456D01*
X-58080Y62622D02*
Y104845D01*
X-62810Y109575D02*
X-58080Y104845D01*
X-76200Y76194D02*
Y88900D01*
X-67224Y58835D02*
Y67218D01*
X-64176Y60097D02*
Y68481D01*
X-61128Y61360D02*
Y69743D01*
X-48601Y10000D02*
X-34350D01*
X-62048Y70663D02*
X-61128Y69743D01*
X-65096Y69401D02*
X-64176Y68481D01*
X-65096Y69401D02*
Y103196D01*
X-76200Y114300D02*
X-65096Y103196D01*
X-76200Y165100D02*
X-62810Y151710D01*
X8248Y72512D02*
X10000Y70760D01*
X8238Y72512D02*
X8248D01*
X6510Y74240D02*
Y74250D01*
X10000Y34350D02*
Y70760D01*
X6510Y74240D02*
X8238Y72512D01*
X14000Y34350D02*
Y70750D01*
X16509Y73260D01*
Y74250D01*
X66650Y23466D02*
Y28550D01*
X76200Y-12700D02*
Y-12519D01*
X66390Y-28290D02*
Y-7020D01*
X63342Y-39115D02*
Y-8282D01*
X34486Y2136D02*
X39636D01*
X34350Y2000D02*
X34486Y2136D01*
X66650Y28550D02*
X76200Y38100D01*
Y63344D02*
Y63500D01*
X-12500Y47500D02*
X-8000D01*
X-16000Y44000D02*
X-12500Y47500D01*
X-25000Y17000D02*
X-24100D01*
X-18000Y23100D01*
Y34350D01*
X-41000Y38000D02*
Y47500D01*
Y38000D02*
X-34350Y31350D01*
Y26000D02*
Y31350D01*
X-34762Y26000D02*
X-34350D01*
X-31000Y47000D02*
X-23000D01*
Y45900D02*
Y47000D01*
X-26000Y34350D02*
Y42900D01*
X-23000Y45900D01*
X-25000Y25000D02*
X-22000Y28000D01*
Y34350D01*
X-2000D02*
Y41750D01*
X-7750Y47500D02*
X-2000Y41750D01*
X-10112Y66000D02*
X-9831Y65719D01*
Y58331D02*
Y65719D01*
Y58331D02*
X-8000Y56500D01*
X3893Y66000D02*
X4112D01*
X3000Y65107D02*
X3893Y66000D01*
X3000Y56500D02*
Y65107D01*
X-3000Y66000D02*
X-2500Y65500D01*
Y52750D02*
Y65500D01*
Y52750D02*
X2750Y47500D01*
X3000D01*
X2000Y46500D02*
X3000Y47500D01*
X2000Y34350D02*
Y46500D01*
X3250Y47500D02*
X6000Y44750D01*
Y34350D02*
Y44750D01*
X-14000Y25262D02*
Y34350D01*
X-10000Y21000D02*
Y21262D01*
X-14000Y25262D02*
X-10000Y21262D01*
Y28890D02*
Y34350D01*
Y28890D02*
X-2110Y21000D01*
X-6000Y29200D02*
X-3140Y26340D01*
X-2110Y21000D02*
X3000D01*
X-6000Y29200D02*
Y34350D01*
X-3140Y26340D02*
X2321D01*
X7075D01*
X9415Y24000D02*
X10000D01*
X7075Y26340D02*
X9415Y24000D01*
X22000Y66000D02*
X34000D01*
X40500Y59500D01*
X34350Y26000D02*
Y34350D01*
X31500Y47000D02*
X31500Y47000D01*
X31500Y47000D02*
Y57000D01*
X24000Y47000D02*
X31500D01*
X21997Y54762D02*
X22250Y55015D01*
X20512Y54762D02*
X21997D01*
X18920Y53170D02*
X20512Y54762D01*
X18920Y44896D02*
Y53170D01*
X22000Y34350D02*
Y41816D01*
X18920Y44896D02*
X22000Y41816D01*
Y66000D02*
X22250Y65750D01*
Y55015D02*
Y65750D01*
X26000Y24071D02*
X26071Y24000D01*
X26000Y24071D02*
Y37550D01*
X-41000Y-14000D02*
X-34350D01*
X-76200Y-63500D02*
X-76189D01*
X-30950Y-48094D02*
X-30594D01*
X-57192Y-95292D02*
Y-56950D01*
X-29688Y-51142D02*
X-28452D01*
X-57192Y-56950D02*
X-34350Y-34108D01*
X-54144Y-117644D02*
Y-58212D01*
X-30282Y-34350D01*
X-60240Y-72940D02*
Y-51861D01*
X-46311Y18000D02*
X-34350D01*
Y-34108D02*
Y-26000D01*
X-30282Y-34350D02*
X-26000D01*
X26750Y-52750D02*
X27000Y-53000D01*
X19250Y-52750D02*
X26750D01*
X19000Y-52500D02*
X19250Y-52750D01*
X18500Y-72000D02*
X27000D01*
X8750Y-61750D02*
X9000Y-61500D01*
X2250Y-61750D02*
X8750D01*
X2000Y-62000D02*
X2250Y-61750D01*
X8750Y-52750D02*
X9000Y-52500D01*
X2250Y-52750D02*
X8750D01*
X2000Y-53000D02*
X2250Y-52750D01*
X-6000Y-73750D02*
Y-61500D01*
Y-73750D02*
X-5500Y-74250D01*
X-3250Y-72000D01*
X9500D01*
X34350Y-32711D02*
X50800Y-49161D01*
X34350Y-32711D02*
Y-26000D01*
X-5750Y-52500D02*
X-2000Y-48750D01*
X-6000Y-43000D02*
Y-34350D01*
X-7000Y-44000D02*
X-6000Y-43000D01*
X-7235Y-44000D02*
X-7000D01*
X-15500Y-52265D02*
X-7235Y-44000D01*
X-6000Y-52500D02*
X-5750D01*
X-15500Y-61000D02*
Y-52265D01*
Y-67405D02*
Y-61000D01*
X-15810Y-67715D02*
X-15500Y-67405D01*
X-15810Y-80310D02*
Y-67715D01*
X-27250Y-91750D02*
X-15810Y-80310D01*
X-28500Y-91750D02*
X-27250D01*
X-24500Y-61000D02*
Y-55810D01*
X-28500Y-74250D02*
X-24500Y-70250D01*
Y-61000D01*
X-10000Y-41311D02*
Y-34350D01*
X-28452Y-51142D02*
X-18000Y-40690D01*
X-14000Y-41000D02*
Y-34350D01*
X-18000Y-40690D02*
Y-34350D01*
X-24500Y-55810D02*
X-10000Y-41311D01*
X-76200Y-88900D02*
X-60240Y-72940D01*
X-27190Y-54190D02*
X-14000Y-41000D01*
X-22000Y-39500D02*
Y-34350D01*
X-30594Y-48094D02*
X-22000Y-39500D01*
X-76200Y-114300D02*
X-57192Y-95292D01*
X-76200Y-190500D02*
X-48048Y-162348D01*
X-76200Y-139700D02*
X-54144Y-117644D01*
X14000Y-34350D02*
Y-27100D01*
X16000Y-25100D02*
Y-24000D01*
X14000Y-27100D02*
X16000Y-25100D01*
X47000Y-15000D02*
X54222Y-22222D01*
Y-26222D02*
Y-22222D01*
X41146Y-14000D02*
X49920Y-22773D01*
X40836Y-18000D02*
X46872Y-24036D01*
X54222Y-26222D02*
X55000Y-27000D01*
X47000Y-15000D02*
Y-10500D01*
X46500Y-10000D02*
X47000Y-10500D01*
X39780Y-22000D02*
X43824Y-26044D01*
Y-37706D02*
X55880Y-49762D01*
X49920Y-35180D02*
Y-22773D01*
X46872Y-36443D02*
X58928Y-48499D01*
X43824Y-37706D02*
Y-26044D01*
X34350Y-14000D02*
X41146D01*
X34350Y-22000D02*
X39780D01*
X34350Y-18000D02*
X40836D01*
X34350Y-22000D02*
X34350Y-22000D01*
X34350Y-10000D02*
X46500D01*
X63342Y-39115D02*
X76200Y-51973D01*
Y-63500D02*
Y-51973D01*
X34350Y-6000D02*
X40121D01*
X34350Y-2000D02*
X39810D01*
X66390Y-28290D02*
X76200Y-38100D01*
X34350Y-2000D02*
X34350Y-2000D01*
X-50450Y6000D02*
X-34350D01*
X-76200Y26573D02*
X-51627Y2000D01*
X-76200Y38100D02*
X-74972D01*
X-51627Y2000D02*
X-34350D01*
X61976Y-74676D02*
Y-47236D01*
X58928Y-97028D02*
X76200Y-114300D01*
X46872Y-36443D02*
Y-24036D01*
X55880Y-119380D02*
Y-49762D01*
X61976Y-74676D02*
X76200Y-88900D01*
X49920Y-35180D02*
X61976Y-47236D01*
X58928Y-97028D02*
Y-48499D01*
X55880Y-119380D02*
X76200Y-139700D01*
X74195Y-163095D02*
X76200Y-165100D01*
X70385Y-163095D02*
X74195D01*
X50800Y-143510D02*
X70385Y-163095D01*
X-46621Y14000D02*
X-34350D01*
X-76200Y76194D02*
X-67224Y67218D01*
X-76200Y26573D02*
Y38100D01*
Y-12700D02*
X-69500Y-6000D01*
X-34350D01*
X-76200Y12700D02*
X-61500Y-2000D01*
X-34350D01*
D42*
X18000Y24000D02*
Y34350D01*
D43*
X-76200Y241300D02*
D03*
Y215900D02*
D03*
Y190500D02*
D03*
Y165100D02*
D03*
Y139700D02*
D03*
Y114300D02*
D03*
Y88900D02*
D03*
Y63500D02*
D03*
Y38100D02*
D03*
Y12700D02*
D03*
Y-12700D02*
D03*
Y-38100D02*
D03*
Y-63500D02*
D03*
Y-88900D02*
D03*
Y-114300D02*
D03*
Y-139700D02*
D03*
Y-165100D02*
D03*
Y-190500D02*
D03*
Y-215900D02*
D03*
Y-241300D02*
D03*
X76200D02*
D03*
Y-215900D02*
D03*
Y-190500D02*
D03*
Y-165100D02*
D03*
Y-139700D02*
D03*
Y-114300D02*
D03*
Y-88900D02*
D03*
Y-63500D02*
D03*
Y-38100D02*
D03*
Y-12700D02*
D03*
Y12700D02*
D03*
Y38100D02*
D03*
Y63500D02*
D03*
Y88900D02*
D03*
Y114300D02*
D03*
Y139700D02*
D03*
Y165100D02*
D03*
Y190500D02*
D03*
Y215900D02*
D03*
Y241300D02*
D03*
D44*
X69500Y51000D02*
D03*
X46750Y-10250D02*
D03*
X-61250Y-216750D02*
D03*
X0Y-231250D02*
D03*
X4000Y105080D02*
D03*
Y97968D02*
D03*
X12750Y-2000D02*
D03*
X25750D02*
D03*
X-23500Y-19750D02*
D03*
X-10000Y-21000D02*
D03*
X-33250Y-62000D02*
D03*
X62957Y19773D02*
D03*
X49750Y11000D02*
D03*
X45500Y39000D02*
D03*
X57000Y46500D02*
D03*
X27000Y-61250D02*
D03*
X42000Y-88250D02*
D03*
Y-112250D02*
D03*
X52000Y151000D02*
D03*
X-53750Y141000D02*
D03*
X33000Y230250D02*
D03*
X-3000Y101532D02*
D03*
X-45000Y126000D02*
D03*
X-21000Y-213000D02*
D03*
X-33000Y-153000D02*
D03*
X-35000Y-213000D02*
D03*
Y-174000D02*
D03*
X17000Y-142000D02*
D03*
X-37000Y-129500D02*
D03*
X9000Y-157500D02*
D03*
X60000Y132000D02*
D03*
X-3500Y151000D02*
D03*
X10000Y176000D02*
D03*
X-49000Y47000D02*
D03*
X-23000Y56000D02*
D03*
X-15000Y-121000D02*
D03*
X-55000Y247000D02*
D03*
X55000D02*
D03*
X-53000Y69000D02*
D03*
X48000Y85000D02*
D03*
X-30000Y241000D02*
D03*
X-16000Y44000D02*
D03*
X-25000Y17000D02*
D03*
X-23000Y47000D02*
D03*
X-25000Y25000D02*
D03*
X-10112Y66000D02*
D03*
X4112D02*
D03*
X-3000D02*
D03*
X-10000Y21000D02*
D03*
X3000D02*
D03*
X10000Y24000D02*
D03*
X24000Y47000D02*
D03*
X22000Y66000D02*
D03*
X26071Y24000D02*
D03*
X18000D02*
D03*
X-63000Y-22000D02*
D03*
X-54000D02*
D03*
X27000Y-53000D02*
D03*
Y-72000D02*
D03*
X2000Y-62000D02*
D03*
Y-53000D02*
D03*
X25000Y-24000D02*
D03*
X16000D02*
D03*
X55000Y-27000D02*
D03*
M02*
