G04*
G04 #@! TF.GenerationSoftware,Altium Limited,Altium Designer,25.5.2 (35)*
G04*
G04 Layer_Color=255*
%FSLAX44Y44*%
%MOMM*%
G71*
G04*
G04 #@! TF.SameCoordinates,031FDC87-80B5-42A0-ABBE-4A2DC663B68C*
G04*
G04*
G04 #@! TF.FilePolarity,Positive*
G04*
G01*
G75*
G04:AMPARAMS|DCode=16|XSize=0.55mm|YSize=0.6mm|CornerRadius=0.0688mm|HoleSize=0mm|Usage=FLASHONLY|Rotation=90.000|XOffset=0mm|YOffset=0mm|HoleType=Round|Shape=RoundedRectangle|*
%AMROUNDEDRECTD16*
21,1,0.5500,0.4625,0,0,90.0*
21,1,0.4125,0.6000,0,0,90.0*
1,1,0.1375,0.2313,0.2063*
1,1,0.1375,0.2313,-0.2063*
1,1,0.1375,-0.2313,-0.2063*
1,1,0.1375,-0.2313,0.2063*
%
%ADD16ROUNDEDRECTD16*%
G04:AMPARAMS|DCode=17|XSize=0.55mm|YSize=0.6mm|CornerRadius=0.0688mm|HoleSize=0mm|Usage=FLASHONLY|Rotation=0.000|XOffset=0mm|YOffset=0mm|HoleType=Round|Shape=RoundedRectangle|*
%AMROUNDEDRECTD17*
21,1,0.5500,0.4625,0,0,0.0*
21,1,0.4125,0.6000,0,0,0.0*
1,1,0.1375,0.2063,-0.2313*
1,1,0.1375,-0.2063,-0.2313*
1,1,0.1375,-0.2063,0.2313*
1,1,0.1375,0.2063,0.2313*
%
%ADD17ROUNDEDRECTD17*%
G04:AMPARAMS|DCode=36|XSize=0.9mm|YSize=1.7mm|CornerRadius=0.45mm|HoleSize=0mm|Usage=FLASHONLY|Rotation=180.000|XOffset=0mm|YOffset=0mm|HoleType=Round|Shape=RoundedRectangle|*
%AMROUNDEDRECTD36*
21,1,0.9000,0.8000,0,0,180.0*
21,1,0.0000,1.7000,0,0,180.0*
1,1,0.9000,0.0000,0.4000*
1,1,0.9000,0.0000,0.4000*
1,1,0.9000,0.0000,-0.4000*
1,1,0.9000,0.0000,-0.4000*
%
%ADD36ROUNDEDRECTD36*%
G04:AMPARAMS|DCode=37|XSize=0.9mm|YSize=2.4mm|CornerRadius=0.45mm|HoleSize=0mm|Usage=FLASHONLY|Rotation=180.000|XOffset=0mm|YOffset=0mm|HoleType=Round|Shape=RoundedRectangle|*
%AMROUNDEDRECTD37*
21,1,0.9000,1.5000,0,0,180.0*
21,1,0.0000,2.4000,0,0,180.0*
1,1,0.9000,0.0000,0.7500*
1,1,0.9000,0.0000,0.7500*
1,1,0.9000,0.0000,-0.7500*
1,1,0.9000,0.0000,-0.7500*
%
%ADD37ROUNDEDRECTD37*%
%ADD38C,0.6500*%
%ADD43C,1.2000*%
G04:AMPARAMS|DCode=48|XSize=1mm|YSize=0.6mm|CornerRadius=0.075mm|HoleSize=0mm|Usage=FLASHONLY|Rotation=180.000|XOffset=0mm|YOffset=0mm|HoleType=Round|Shape=RoundedRectangle|*
%AMROUNDEDRECTD48*
21,1,1.0000,0.4500,0,0,180.0*
21,1,0.8500,0.6000,0,0,180.0*
1,1,0.1500,-0.4250,0.2250*
1,1,0.1500,0.4250,0.2250*
1,1,0.1500,0.4250,-0.2250*
1,1,0.1500,-0.4250,-0.2250*
%
%ADD48ROUNDEDRECTD48*%
G04:AMPARAMS|DCode=49|XSize=0.85mm|YSize=0.7mm|CornerRadius=0.05mm|HoleSize=0mm|Usage=FLASHONLY|Rotation=90.000|XOffset=0mm|YOffset=0mm|HoleType=Round|Shape=RoundedRectangle|*
%AMROUNDEDRECTD49*
21,1,0.8500,0.6000,0,0,90.0*
21,1,0.7500,0.7000,0,0,90.0*
1,1,0.1000,0.3000,0.3750*
1,1,0.1000,0.3000,-0.3750*
1,1,0.1000,-0.3000,-0.3750*
1,1,0.1000,-0.3000,0.3750*
%
%ADD49ROUNDEDRECTD49*%
G04:AMPARAMS|DCode=50|XSize=0.72mm|YSize=0.99mm|CornerRadius=0.09mm|HoleSize=0mm|Usage=FLASHONLY|Rotation=180.000|XOffset=0mm|YOffset=0mm|HoleType=Round|Shape=RoundedRectangle|*
%AMROUNDEDRECTD50*
21,1,0.7200,0.8100,0,0,180.0*
21,1,0.5400,0.9900,0,0,180.0*
1,1,0.1800,-0.2700,0.4050*
1,1,0.1800,0.2700,0.4050*
1,1,0.1800,0.2700,-0.4050*
1,1,0.1800,-0.2700,-0.4050*
%
%ADD50ROUNDEDRECTD50*%
G04:AMPARAMS|DCode=51|XSize=1.05mm|YSize=0.55mm|CornerRadius=0.0688mm|HoleSize=0mm|Usage=FLASHONLY|Rotation=0.000|XOffset=0mm|YOffset=0mm|HoleType=Round|Shape=RoundedRectangle|*
%AMROUNDEDRECTD51*
21,1,1.0500,0.4125,0,0,0.0*
21,1,0.9125,0.5500,0,0,0.0*
1,1,0.1375,0.4563,-0.2063*
1,1,0.1375,-0.4563,-0.2063*
1,1,0.1375,-0.4563,0.2063*
1,1,0.1375,0.4563,0.2063*
%
%ADD51ROUNDEDRECTD51*%
G04:AMPARAMS|DCode=52|XSize=1.2mm|YSize=2.7mm|CornerRadius=0.05mm|HoleSize=0mm|Usage=FLASHONLY|Rotation=180.000|XOffset=0mm|YOffset=0mm|HoleType=Round|Shape=RoundedRectangle|*
%AMROUNDEDRECTD52*
21,1,1.2000,2.6000,0,0,180.0*
21,1,1.1000,2.7000,0,0,180.0*
1,1,0.1000,-0.5500,1.3000*
1,1,0.1000,0.5500,1.3000*
1,1,0.1000,0.5500,-1.3000*
1,1,0.1000,-0.5500,-1.3000*
%
%ADD52ROUNDEDRECTD52*%
G04:AMPARAMS|DCode=53|XSize=0.6mm|YSize=1.45mm|CornerRadius=0.075mm|HoleSize=0mm|Usage=FLASHONLY|Rotation=270.000|XOffset=0mm|YOffset=0mm|HoleType=Round|Shape=RoundedRectangle|*
%AMROUNDEDRECTD53*
21,1,0.6000,1.3000,0,0,270.0*
21,1,0.4500,1.4500,0,0,270.0*
1,1,0.1500,-0.6500,-0.2250*
1,1,0.1500,-0.6500,0.2250*
1,1,0.1500,0.6500,0.2250*
1,1,0.1500,0.6500,-0.2250*
%
%ADD53ROUNDEDRECTD53*%
G04:AMPARAMS|DCode=54|XSize=1.05mm|YSize=1.4mm|CornerRadius=0.05mm|HoleSize=0mm|Usage=FLASHONLY|Rotation=90.000|XOffset=0mm|YOffset=0mm|HoleType=Round|Shape=RoundedRectangle|*
%AMROUNDEDRECTD54*
21,1,1.0500,1.3000,0,0,90.0*
21,1,0.9500,1.4000,0,0,90.0*
1,1,0.1000,0.6500,0.4750*
1,1,0.1000,0.6500,-0.4750*
1,1,0.1000,-0.6500,-0.4750*
1,1,0.1000,-0.6500,0.4750*
%
%ADD54ROUNDEDRECTD54*%
G36*
G01X45326Y182000D02*
G03X53626Y173700I8300J0D01*
G03X54238Y174312I0J612D01*
G01Y189688D01*
G03X53626Y190300I-612J0D01*
G03X45326Y182000I0J-8300D01*
D02*
G37*
G36*
G01X64674Y182000D02*
G02X56374Y173700I-8300J0D01*
G02X55762Y174312I0J612D01*
G01Y189688D01*
G02X56374Y190300I612J0D01*
G02X64674Y182000I0J-8300D01*
D02*
G37*
G36*
G01X-6326Y120000D02*
G03X-14626Y128300I-8300J0D01*
G03X-15238Y127688I0J-612D01*
G01Y112312D01*
G03X-14626Y111700I612J0D01*
G03X-6326Y120000I0J8300D01*
D02*
G37*
G36*
G01X-25674Y120000D02*
G02X-17374Y128300I8300J0D01*
G02X-16762Y127688I0J-612D01*
G01Y112312D01*
G02X-17374Y111700I-612J0D01*
G02X-25674Y120000I0J8300D01*
D02*
G37*
G36*
G01X63674Y103750D02*
G03X55374Y112050I-8300J0D01*
G03X54762Y111438I0J-612D01*
G01Y96062D01*
G03X55374Y95450I612J0D01*
G03X63674Y103750I0J8300D01*
D02*
G37*
G36*
G01X44326Y103750D02*
G02X52626Y112050I8300J0D01*
G02X53238Y111438I0J-612D01*
G01Y96062D01*
G02X52626Y95450I-612J0D01*
G02X44326Y103750I0J8300D01*
D02*
G37*
G36*
G01X44000Y-71674D02*
G03X52300Y-63374I0J8300D01*
G03X51688Y-62762I-612J0D01*
G01X36312D01*
G03X35700Y-63374I0J-612D01*
G03X44000Y-71674I8300J0D01*
D02*
G37*
G36*
G01X44000Y-52326D02*
G02X52300Y-60626I0J-8300D01*
G02X51688Y-61238I-612J0D01*
G01X36312D01*
G02X35700Y-60626I0J612D01*
G02X44000Y-52326I8300J0D01*
D02*
G37*
D16*
X42000Y-104750D02*
D03*
Y-95750D02*
D03*
X34000Y-176500D02*
D03*
Y-167500D02*
D03*
X-43000Y-119500D02*
D03*
Y-110500D02*
D03*
X55000Y237500D02*
D03*
Y228500D02*
D03*
X-45250Y117500D02*
D03*
Y108500D02*
D03*
X17000Y6500D02*
D03*
Y15500D02*
D03*
X27000Y6500D02*
D03*
Y15500D02*
D03*
X-55000Y237500D02*
D03*
Y228500D02*
D03*
X-7250Y-62000D02*
D03*
Y-53000D02*
D03*
X23000Y172000D02*
D03*
Y163000D02*
D03*
D17*
X15750Y-12000D02*
D03*
X24750D02*
D03*
X-61250Y-3000D02*
D03*
X-52250D02*
D03*
X-61250Y-13000D02*
D03*
X-52250D02*
D03*
X43000Y-32500D02*
D03*
X34000D02*
D03*
X45250Y31000D02*
D03*
X36250D02*
D03*
X45500Y21000D02*
D03*
X36500D02*
D03*
X-32500Y182000D02*
D03*
X-23500D02*
D03*
D36*
X43250Y243380D02*
D03*
X-43250D02*
D03*
D37*
X43250Y209580D02*
D03*
X-43250D02*
D03*
D38*
X29750Y199780D02*
D03*
X21250D02*
D03*
X12750D02*
D03*
X4250D02*
D03*
X-4250D02*
D03*
X-12750D02*
D03*
X-21250D02*
D03*
X-29750D02*
D03*
Y213280D02*
D03*
X-21250D02*
D03*
X-12750D02*
D03*
X-4250D02*
D03*
X4250D02*
D03*
X12750D02*
D03*
X21250D02*
D03*
X29750D02*
D03*
D43*
X-76200Y241300D02*
D03*
Y215900D02*
D03*
Y190500D02*
D03*
Y165100D02*
D03*
Y139700D02*
D03*
Y114300D02*
D03*
Y88900D02*
D03*
Y63500D02*
D03*
Y38100D02*
D03*
Y12700D02*
D03*
Y-12700D02*
D03*
Y-38100D02*
D03*
Y-63500D02*
D03*
Y-88900D02*
D03*
Y-114300D02*
D03*
Y-139700D02*
D03*
Y-165100D02*
D03*
Y-190500D02*
D03*
Y-215900D02*
D03*
Y-241300D02*
D03*
X76200D02*
D03*
Y-215900D02*
D03*
Y-190500D02*
D03*
Y-165100D02*
D03*
Y-139700D02*
D03*
Y-114300D02*
D03*
Y-88900D02*
D03*
Y-63500D02*
D03*
Y-38100D02*
D03*
Y-12700D02*
D03*
Y12700D02*
D03*
Y38100D02*
D03*
Y63500D02*
D03*
Y88900D02*
D03*
Y114300D02*
D03*
Y139700D02*
D03*
Y165100D02*
D03*
Y190500D02*
D03*
Y215900D02*
D03*
Y241300D02*
D03*
D48*
X-21750Y-47500D02*
D03*
Y-66500D02*
D03*
X-44750Y-57000D02*
D03*
D49*
X-29500Y-32500D02*
D03*
X-46000D02*
D03*
D50*
X-34900Y-185500D02*
D03*
X-21100Y-185500D02*
D03*
X-34900Y-202000D02*
D03*
X-21100Y-202000D02*
D03*
X7900Y-142000D02*
D03*
X-5900Y-142000D02*
D03*
X-32900D02*
D03*
X-19100Y-142000D02*
D03*
D51*
X20500Y-177000D02*
D03*
X20500Y-167500D02*
D03*
Y-158000D02*
D03*
X-4500Y-158000D02*
D03*
X-4500Y-167500D02*
D03*
X-4500Y-177000D02*
D03*
X24500Y141500D02*
D03*
Y122500D02*
D03*
X49500D02*
D03*
X49500Y132000D02*
D03*
X49500Y141500D02*
D03*
X-18500Y160500D02*
D03*
X-18500Y141500D02*
D03*
X6500Y141500D02*
D03*
Y151000D02*
D03*
X6500Y160500D02*
D03*
D52*
X18000Y-204500D02*
D03*
X-4000Y-204500D02*
D03*
D53*
X35750Y85050D02*
D03*
Y72350D02*
D03*
Y59650D02*
D03*
Y46950D02*
D03*
X-35750Y85050D02*
D03*
Y72350D02*
D03*
Y59650D02*
D03*
Y46950D02*
D03*
X-27250Y-121050D02*
D03*
Y-108350D02*
D03*
Y-95650D02*
D03*
Y-82950D02*
D03*
X27250Y-121050D02*
D03*
Y-108350D02*
D03*
Y-95650D02*
D03*
Y-82950D02*
D03*
D54*
X-18000Y240930D02*
D03*
Y226430D02*
D03*
X18000Y240930D02*
D03*
Y226430D02*
D03*
M02*
